<svg id="svg" version="1.1" xmlns="http://www.w3.org/2000/svg" xmlns:xlink="http://www.w3.org/1999/xlink" width="400" height="84.50704225352112" viewBox="0, 0, 400,84.50704225352112"><g id="svgg"><path id="path0" d="M43.734 0.318 C 43.042 0.632,42.333 1.426,42.333 1.887 C 42.333 2.025,42.240 2.170,42.125 2.208 C 41.852 2.299,41.865 4.362,42.140 4.683 C 42.249 4.812,42.568 5.241,42.847 5.638 C 43.919 7.162,46.434 7.330,47.865 5.973 C 50.911 3.085,47.605 -1.441,43.734 0.318 M46.386 0.741 C 47.200 1.032,47.618 1.416,48.015 2.238 C 48.327 2.884,48.455 4.167,48.207 4.167 C 48.138 4.167,47.983 4.389,47.863 4.661 C 47.223 6.106,45.313 6.599,44.011 5.655 C 41.356 3.732,43.329 -0.349,46.386 0.741 M35.912 2.862 C 35.273 3.520,34.986 3.869,35.275 3.637 C 35.564 3.406,36.045 2.937,36.345 2.596 C 36.697 2.195,36.993 2.003,37.182 2.052 C 37.381 2.104,37.447 2.055,37.386 1.898 C 37.245 1.530,37.140 1.599,35.912 2.862 M43.167 2.417 C 43.167 2.556,43.315 2.667,43.500 2.667 C 43.796 2.667,43.833 2.778,43.833 3.667 C 43.833 4.622,43.852 4.667,44.250 4.667 C 44.648 4.667,44.667 4.622,44.667 3.667 C 44.667 2.778,44.704 2.667,45.000 2.667 C 45.296 2.667,45.333 2.778,45.333 3.667 C 45.333 4.444,45.389 4.667,45.583 4.667 C 45.744 4.667,45.834 4.504,45.836 4.208 L 45.838 3.750 46.048 4.165 C 46.332 4.725,46.794 4.793,46.990 4.304 L 47.146 3.917 47.156 4.292 C 47.163 4.552,47.269 4.667,47.500 4.667 C 47.804 4.667,47.833 4.556,47.833 3.417 C 47.833 1.904,47.235 1.535,46.819 2.792 L 46.612 3.417 46.448 2.917 C 46.219 2.220,46.096 2.172,44.542 2.169 C 43.429 2.167,43.167 2.214,43.167 2.417 M38.340 3.510 C 38.540 3.790,38.740 3.983,38.785 3.938 C 38.888 3.834,38.296 3.012,38.114 3.005 C 38.039 3.002,38.141 3.229,38.340 3.510 M33.417 5.333 C 33.153 5.608,33.008 5.829,33.094 5.824 C 33.241 5.815,34.100 4.833,33.961 4.833 C 33.925 4.833,33.680 5.058,33.417 5.333 M40.167 6.167 C 40.362 6.442,40.560 6.667,40.606 6.667 C 40.652 6.667,40.529 6.442,40.333 6.167 C 40.138 5.892,39.940 5.667,39.894 5.667 C 39.848 5.667,39.971 5.892,40.167 6.167 M35.312 6.292 C 35.106 6.554,35.112 6.561,35.368 6.361 C 35.524 6.238,35.730 6.186,35.826 6.245 C 35.922 6.305,36.000 6.274,36.000 6.177 C 36.000 5.898,35.564 5.971,35.312 6.292 M30.750 8.039 C 30.017 8.794,29.127 9.750,28.773 10.164 C 28.418 10.578,29.037 9.994,30.148 8.866 C 31.941 7.043,32.280 6.667,32.125 6.667 C 32.102 6.667,31.483 7.284,30.750 8.039 M40.667 6.926 C 40.667 6.976,40.854 7.294,41.083 7.631 C 41.590 8.376,41.633 8.244,41.150 7.426 C 40.823 6.871,40.667 6.709,40.667 6.926 M33.906 7.708 L 33.417 8.250 33.958 7.760 C 34.463 7.304,34.577 7.167,34.448 7.167 C 34.419 7.167,34.175 7.410,33.906 7.708 M37.167 7.785 C 37.167 7.986,38.128 9.333,38.271 9.333 C 38.328 9.333,38.299 9.240,38.206 9.125 C 38.114 9.010,37.842 8.625,37.602 8.268 C 37.363 7.912,37.167 7.694,37.167 7.785 M31.952 9.708 C 30.627 11.037,30.058 11.668,30.188 11.665 C 30.302 11.662,33.544 8.333,33.433 8.333 C 33.372 8.333,32.706 8.952,31.952 9.708 M42.167 9.667 C 42.167 9.758,42.242 9.833,42.333 9.833 C 42.425 9.833,42.500 9.937,42.500 10.063 C 42.500 10.189,42.605 10.379,42.732 10.485 C 42.912 10.634,42.904 10.544,42.698 10.089 C 42.444 9.529,42.167 9.308,42.167 9.667 M39.432 11.250 C 39.582 11.479,39.732 11.667,39.766 11.667 C 39.799 11.667,39.741 11.479,39.636 11.250 C 39.532 11.021,39.382 10.833,39.303 10.833 C 39.224 10.833,39.282 11.021,39.432 11.250 M44.229 13.458 C 44.383 13.756,44.537 14.000,44.572 14.000 C 44.724 14.000,44.440 13.325,44.206 13.130 C 43.988 12.950,43.992 13.000,44.229 13.458 M41.600 15.083 C 41.850 15.542,42.126 15.992,42.212 16.083 C 42.459 16.345,41.725 14.956,41.419 14.583 C 41.269 14.400,41.350 14.625,41.600 15.083 M42.345 16.417 C 42.345 16.508,42.452 16.771,42.583 17.000 C 42.714 17.229,42.822 17.342,42.822 17.250 C 42.822 17.158,42.714 16.896,42.583 16.667 C 42.452 16.438,42.345 16.325,42.345 16.417 M46.022 17.602 C 46.057 17.683,46.265 18.221,46.484 18.796 C 46.702 19.371,46.914 19.808,46.954 19.768 C 47.062 19.660,46.314 17.674,46.121 17.555 C 46.031 17.499,45.986 17.520,46.022 17.602 M43.877 20.083 C 43.975 20.404,44.114 20.667,44.186 20.667 C 44.341 20.667,44.026 19.703,43.832 19.583 C 43.758 19.537,43.778 19.762,43.877 20.083 M48.382 24.660 C 48.484 24.932,48.594 25.128,48.626 25.097 C 48.730 24.993,48.467 24.167,48.330 24.167 C 48.256 24.167,48.279 24.389,48.382 24.660 M45.667 24.698 C 45.667 24.751,45.783 25.047,45.925 25.356 C 46.182 25.915,46.183 25.915,46.080 25.417 C 45.991 24.985,45.667 24.421,45.667 24.698 M47.945 32.417 C 48.044 33.262,48.106 33.449,48.242 33.314 C 48.283 33.272,48.211 32.866,48.082 32.411 L 47.847 31.583 47.945 32.417 M18.667 33.810 C 18.667 33.889,18.854 33.918,19.083 33.874 C 19.313 33.830,19.500 33.766,19.500 33.731 C 19.500 33.695,19.313 33.667,19.083 33.667 C 18.854 33.667,18.667 33.731,18.667 33.810 M20.460 33.785 C 20.668 33.824,20.968 33.823,21.127 33.781 C 21.286 33.739,21.117 33.707,20.750 33.709 C 20.383 33.711,20.253 33.745,20.460 33.785 M21.514 33.734 C 21.666 33.883,22.663 33.962,22.574 33.819 C 22.523 33.735,22.247 33.667,21.962 33.667 C 21.678 33.667,21.476 33.697,21.514 33.734 M17.579 34.007 C 17.509 34.120,17.635 34.141,17.944 34.067 C 18.583 33.913,18.643 33.833,18.121 33.833 C 17.882 33.833,17.638 33.911,17.579 34.007 M22.833 33.897 C 22.833 33.932,23.021 33.997,23.250 34.041 C 23.479 34.085,23.667 34.056,23.667 33.977 C 23.667 33.898,23.479 33.833,23.250 33.833 C 23.021 33.833,22.833 33.862,22.833 33.897 M30.333 35.717 C 30.333 35.764,30.671 35.917,31.083 36.058 C 31.496 36.198,31.833 36.252,31.833 36.177 C 31.833 36.103,31.627 36.000,31.375 35.949 C 31.123 35.898,30.785 35.806,30.625 35.744 C 30.465 35.682,30.333 35.669,30.333 35.717 M38.902 38.088 C 39.261 38.224,39.592 38.297,39.638 38.251 C 39.774 38.115,39.623 38.050,38.917 37.943 L 38.250 37.841 38.902 38.088 M14.083 38.256 C 13.665 38.458,13.651 38.480,14.000 38.396 C 14.229 38.341,14.488 38.229,14.575 38.148 C 14.791 37.946,14.672 37.972,14.083 38.256 M26.000 38.309 C 26.137 38.389,26.475 38.504,26.750 38.563 C 27.070 38.632,27.160 38.619,27.000 38.525 C 26.863 38.444,26.525 38.330,26.250 38.270 C 25.930 38.201,25.840 38.215,26.000 38.309 M9.443 38.637 C 9.040 39.083,9.105 39.237,9.530 38.842 C 9.729 38.656,9.854 38.465,9.806 38.417 C 9.759 38.370,9.596 38.469,9.443 38.637 M44.367 40.920 C 44.168 41.331,44.067 41.667,44.144 41.667 C 44.282 41.667,44.876 40.320,44.780 40.224 C 44.752 40.197,44.566 40.510,44.367 40.920 M9.901 40.858 C 9.585 41.213,9.585 41.214,9.958 41.018 C 10.165 40.910,10.333 40.749,10.333 40.661 C 10.333 40.424,10.254 40.460,9.901 40.858 M7.436 41.345 C 7.020 42.049,7.165 42.090,7.617 41.397 C 7.819 41.087,7.929 40.833,7.862 40.833 C 7.794 40.833,7.603 41.064,7.436 41.345 M43.300 42.700 C 43.456 42.856,43.544 42.856,43.700 42.700 C 43.856 42.544,43.811 42.500,43.500 42.500 C 43.189 42.500,43.144 42.544,43.300 42.700 M8.162 43.343 C 8.061 43.531,8.008 43.773,8.043 43.880 C 8.079 43.987,8.192 43.833,8.295 43.537 C 8.507 42.930,8.437 42.828,8.162 43.343 M47.947 44.216 C 47.893 44.610,47.796 45.078,47.731 45.258 C 47.667 45.437,47.672 45.531,47.744 45.466 C 47.933 45.295,48.326 43.500,48.174 43.500 C 48.103 43.500,48.001 43.822,47.947 44.216 M68.167 44.773 C 66.181 44.981,64.203 45.633,63.531 46.301 C 63.374 46.456,62.885 46.878,62.444 47.238 C 61.796 47.768,60.349 49.907,60.238 50.500 C 60.229 50.546,60.129 50.808,60.015 51.083 C 59.223 52.996,59.358 59.500,60.190 59.500 C 60.280 59.500,60.311 59.569,60.259 59.652 C 60.207 59.736,60.221 59.830,60.291 59.861 C 60.360 59.892,60.637 60.358,60.907 60.897 C 63.068 65.217,70.211 66.930,73.463 63.908 C 74.424 63.015,74.459 63.011,74.590 63.792 C 74.805 65.066,74.709 65.000,76.345 65.000 L 77.833 65.000 77.833 59.500 L 77.833 54.000 73.583 54.000 L 69.333 54.000 69.333 55.833 L 69.333 57.667 71.438 57.667 L 73.544 57.667 73.444 58.280 C 72.748 62.572,65.898 62.436,64.634 58.105 C 64.523 57.726,64.355 57.364,64.260 57.299 C 64.020 57.136,64.032 53.493,64.274 52.985 C 64.379 52.764,64.587 52.246,64.737 51.833 C 66.111 48.051,71.287 47.549,72.835 51.048 L 73.182 51.833 75.363 51.833 L 77.543 51.833 77.433 50.958 C 76.953 47.134,72.702 44.297,68.167 44.773 M162.917 44.829 C 157.930 45.440,154.735 49.493,154.768 55.167 C 154.781 57.440,155.669 60.581,156.575 61.558 C 156.784 61.784,157.121 62.202,157.324 62.487 C 159.337 65.314,165.673 66.354,168.346 64.296 C 168.617 64.087,169.057 63.746,169.324 63.537 L 169.808 63.158 169.923 64.079 L 170.038 65.000 171.603 65.000 L 173.167 65.000 173.167 59.497 L 173.167 53.994 168.875 54.039 L 164.583 54.083 164.583 55.833 L 164.583 57.583 166.792 57.630 C 168.006 57.655,169.000 57.713,169.000 57.757 C 169.000 57.802,168.934 57.968,168.854 58.127 C 168.773 58.286,168.583 58.707,168.430 59.062 C 166.913 62.591,161.433 62.133,159.982 58.355 C 159.130 56.137,159.432 52.358,160.592 50.726 C 162.599 47.904,166.949 48.052,168.078 50.982 L 168.407 51.833 170.721 51.833 C 172.860 51.833,173.027 51.811,172.916 51.542 C 172.851 51.381,172.706 50.871,172.595 50.409 C 171.653 46.492,167.743 44.238,162.917 44.829 M106.833 55.083 L 106.833 65.000 108.833 65.000 L 110.833 65.000 110.833 64.297 L 110.833 63.593 111.405 64.182 C 112.783 65.601,116.851 65.739,118.417 64.421 C 119.459 63.543,119.972 62.948,120.268 62.277 C 120.437 61.895,120.634 61.541,120.706 61.489 C 121.248 61.100,121.500 56.976,121.088 55.229 C 120.191 51.428,116.216 48.979,113.333 50.452 C 113.104 50.569,112.838 50.665,112.741 50.666 C 112.644 50.666,112.213 50.890,111.783 51.163 L 111.000 51.659 111.000 48.413 L 111.000 45.167 108.917 45.167 L 106.833 45.167 106.833 55.083 M123.333 55.083 L 123.333 65.000 125.493 65.000 L 127.652 65.000 127.701 60.292 C 127.760 54.668,127.849 54.299,129.279 53.787 C 131.031 53.159,132.276 53.790,132.566 55.454 C 132.586 55.565,132.654 55.709,132.717 55.773 C 132.781 55.837,132.833 57.939,132.833 60.444 L 132.833 65.000 134.927 65.000 L 137.020 65.000 136.968 59.244 C 136.934 55.462,136.857 53.447,136.741 53.369 C 136.645 53.303,136.433 52.896,136.271 52.463 C 135.935 51.566,135.292 50.953,134.379 50.659 C 134.033 50.548,133.675 50.405,133.583 50.341 C 133.280 50.131,131.420 50.029,130.750 50.186 C 130.126 50.332,128.419 51.185,128.042 51.539 L 127.667 51.891 127.667 48.529 L 127.667 45.167 125.500 45.167 L 123.333 45.167 123.333 55.083 M201.833 48.411 L 201.833 51.655 201.101 51.161 C 200.698 50.889,200.328 50.667,200.278 50.667 C 200.229 50.667,199.977 50.578,199.719 50.470 C 197.162 49.396,193.610 50.806,192.294 53.417 C 191.200 55.589,191.251 59.871,192.398 62.128 C 193.965 65.210,198.334 66.349,201.151 64.412 L 202.000 63.828 202.000 64.414 L 202.000 65.000 204.083 65.000 L 206.167 65.000 206.167 55.083 L 206.167 45.167 204.000 45.167 L 201.833 45.167 201.833 48.411 M208.703 46.958 L 208.750 48.750 210.792 48.797 L 212.833 48.844 212.833 47.005 L 212.833 45.167 210.744 45.167 L 208.655 45.167 208.703 46.958 M5.884 48.652 C 5.955 49.119,6.092 49.221,6.121 48.829 C 6.135 48.652,6.075 48.463,5.989 48.410 C 5.903 48.357,5.856 48.466,5.884 48.652 M48.364 49.749 C 48.259 49.979,48.238 50.167,48.317 50.167 C 48.456 50.167,48.705 49.483,48.604 49.382 C 48.576 49.354,48.469 49.520,48.364 49.749 M8.100 50.556 C 8.245 50.983,8.425 51.370,8.499 51.416 C 8.651 51.510,8.137 50.081,7.953 49.898 C 7.888 49.833,7.954 50.129,8.100 50.556 M86.004 50.160 C 85.686 50.241,85.364 50.269,85.288 50.222 C 85.213 50.176,85.062 50.210,84.951 50.297 C 84.840 50.385,84.487 50.506,84.167 50.566 C 82.216 50.933,80.500 52.786,80.500 54.526 L 80.500 55.167 82.557 55.167 L 84.614 55.167 84.806 54.527 C 85.371 52.641,88.968 52.646,89.274 54.533 C 89.431 55.502,88.652 55.974,86.472 56.230 C 86.258 56.255,85.971 56.318,85.833 56.370 C 85.696 56.421,85.015 56.543,84.321 56.641 C 82.520 56.896,80.667 57.776,80.667 58.378 C 80.667 58.462,80.524 58.712,80.349 58.934 C 79.768 59.673,79.753 62.312,80.326 63.052 C 81.386 64.423,81.877 64.808,82.921 65.091 C 84.935 65.636,87.949 65.202,89.046 64.209 C 89.388 63.899,89.659 64.118,89.664 64.708 C 89.666 64.971,89.883 65.000,91.851 65.000 L 94.036 65.000 93.913 64.542 C 93.569 63.262,93.514 62.381,93.507 57.994 C 93.498 52.022,93.084 51.013,90.462 50.579 C 90.071 50.515,89.675 50.414,89.583 50.357 C 89.492 50.299,89.267 50.240,89.083 50.226 C 88.900 50.211,88.263 50.157,87.667 50.106 C 87.071 50.055,86.323 50.080,86.004 50.160 M103.917 50.152 C 103.733 50.229,103.519 50.254,103.440 50.208 C 103.361 50.162,103.248 50.194,103.190 50.279 C 103.131 50.364,102.733 50.565,102.305 50.726 C 101.839 50.900,101.253 51.314,100.846 51.755 L 100.167 52.493 100.167 51.580 L 100.167 50.667 98.167 50.667 L 96.167 50.667 96.167 57.833 L 96.167 65.000 98.250 65.000 L 100.333 65.000 100.333 61.248 C 100.333 59.184,100.399 57.365,100.480 57.206 C 100.561 57.047,100.768 56.546,100.940 56.094 C 101.464 54.714,102.524 54.081,104.286 54.093 L 105.667 54.103 105.667 52.228 C 105.667 51.197,105.610 50.318,105.540 50.275 C 105.257 50.100,104.228 50.022,103.917 50.152 M145.004 50.160 C 144.686 50.241,144.364 50.269,144.288 50.222 C 144.213 50.176,144.062 50.211,143.951 50.300 C 143.840 50.389,143.487 50.517,143.167 50.585 C 141.128 51.015,139.682 52.521,139.450 54.458 L 139.365 55.167 141.497 55.167 L 143.630 55.167 143.734 54.610 C 144.066 52.842,147.505 52.537,148.145 54.219 C 148.558 55.305,147.819 55.905,145.680 56.218 C 145.444 56.252,145.137 56.321,145.000 56.370 C 144.862 56.419,144.114 56.543,143.337 56.646 C 139.765 57.116,138.267 59.304,139.250 62.615 C 140.072 65.382,145.743 66.413,148.039 64.212 C 148.456 63.814,148.501 63.802,148.505 64.094 C 148.518 64.888,148.822 65.000,150.967 65.000 C 153.170 65.000,153.280 64.956,152.873 64.238 C 152.637 63.821,152.583 62.961,152.506 58.333 C 152.397 51.741,152.294 51.443,149.871 50.736 C 149.346 50.583,148.804 50.416,148.667 50.365 C 148.002 50.121,145.675 49.991,145.004 50.160 M175.867 56.208 C 175.937 62.509,175.989 62.796,177.303 64.119 C 179.003 65.830,182.951 65.734,184.875 63.935 L 185.500 63.350 185.500 64.175 L 185.500 65.000 187.500 65.000 L 189.500 65.000 189.500 57.833 L 189.500 50.667 187.434 50.667 L 185.369 50.667 185.304 55.125 C 185.222 60.762,184.896 61.621,182.777 61.796 C 180.346 61.998,180.120 61.469,180.033 55.375 L 179.966 50.667 177.886 50.667 L 175.806 50.667 175.867 56.208 M208.667 57.833 L 208.667 65.000 210.750 65.000 L 212.833 65.000 212.833 57.833 L 212.833 50.667 210.750 50.667 L 208.667 50.667 208.667 57.833 M45.372 51.503 C 44.853 52.406,44.907 52.577,45.435 51.697 C 45.672 51.301,45.839 50.950,45.805 50.916 C 45.772 50.883,45.577 51.147,45.372 51.503 M8.667 51.885 C 8.667 52.005,8.778 52.249,8.914 52.426 C 9.141 52.722,9.147 52.704,8.981 52.208 C 8.793 51.643,8.667 51.513,8.667 51.885 M7.535 54.083 C 7.736 54.496,7.955 54.833,8.021 54.833 C 8.088 54.833,7.955 54.496,7.724 54.083 C 7.493 53.671,7.275 53.333,7.238 53.333 C 7.201 53.333,7.335 53.671,7.535 54.083 M199.695 53.569 C 202.407 54.161,202.881 60.292,200.316 61.592 C 197.679 62.929,195.419 60.719,195.722 57.101 C 195.919 54.749,197.470 53.057,199.083 53.433 C 199.175 53.455,199.450 53.516,199.695 53.569 M43.605 54.163 C 43.361 54.532,43.192 54.833,43.228 54.833 C 43.356 54.833,44.199 53.644,44.125 53.569 C 44.083 53.527,43.849 53.795,43.605 54.163 M115.373 53.803 C 118.621 55.945,117.032 62.606,113.435 61.931 C 111.042 61.482,110.069 57.173,111.773 54.572 C 112.458 53.526,114.343 53.124,115.373 53.803 M9.979 54.127 C 10.065 54.288,10.307 54.570,10.515 54.752 C 10.826 55.023,10.810 54.970,10.428 54.458 C 9.933 53.797,9.716 53.637,9.979 54.127 M46.025 54.427 C 45.914 54.671,45.902 54.810,45.998 54.751 C 46.242 54.600,46.536 54.000,46.366 54.000 C 46.286 54.000,46.133 54.192,46.025 54.427 M42.500 55.564 C 42.179 55.870,41.654 56.409,41.333 56.761 L 40.750 57.403 41.417 56.826 C 42.060 56.270,43.269 54.995,43.144 55.005 C 43.111 55.007,42.821 55.259,42.500 55.564 M9.101 56.470 C 9.275 56.774,9.562 57.149,9.739 57.303 C 9.927 57.466,9.861 57.304,9.582 56.917 C 8.914 55.989,8.729 55.817,9.101 56.470 M44.833 56.099 C 44.833 56.184,44.633 56.469,44.388 56.733 C 44.143 56.997,44.045 57.179,44.170 57.138 C 44.484 57.033,45.086 56.197,44.947 56.058 C 44.885 55.996,44.833 56.014,44.833 56.099 M39.794 57.995 C 39.495 58.267,39.296 58.492,39.352 58.495 C 39.409 58.498,39.709 58.276,40.019 58.003 C 40.329 57.729,40.528 57.504,40.461 57.503 C 40.394 57.501,40.094 57.723,39.794 57.995 M42.949 58.272 C 42.508 58.692,42.175 59.064,42.209 59.098 C 42.243 59.131,42.638 58.786,43.087 58.329 C 44.111 57.290,44.019 57.251,42.949 58.272 M11.119 58.672 C 11.597 59.164,12.019 59.534,12.056 59.492 C 12.093 59.451,11.702 59.047,11.187 58.596 L 10.250 57.776 11.119 58.672 M89.254 59.945 C 89.108 61.109,87.595 62.706,87.104 62.215 C 87.047 62.158,87.000 62.199,87.000 62.306 C 87.000 62.421,86.730 62.500,86.333 62.500 C 85.967 62.500,85.667 62.438,85.667 62.361 C 85.667 62.285,85.568 62.222,85.447 62.222 C 84.834 62.222,84.167 61.445,84.167 60.731 C 84.167 59.598,84.891 59.170,87.498 58.761 C 88.436 58.614,89.113 58.426,89.162 58.298 C 89.306 57.927,89.368 59.033,89.254 59.945 M148.272 59.346 C 148.111 61.072,147.383 62.167,146.394 62.167 C 146.177 62.167,146.000 62.242,146.000 62.333 C 146.000 62.425,145.700 62.500,145.333 62.500 C 144.967 62.500,144.667 62.421,144.667 62.323 C 144.667 62.226,144.600 62.188,144.520 62.238 C 144.301 62.373,143.498 61.684,143.316 61.204 C 142.841 59.956,143.719 59.238,146.233 58.815 C 147.250 58.644,148.107 58.428,148.138 58.335 C 148.305 57.834,148.368 58.309,148.272 59.346 M40.417 60.347 C 39.472 61.061,39.318 61.254,40.018 60.845 C 40.539 60.542,41.345 59.825,41.151 59.838 C 41.114 59.841,40.783 60.069,40.417 60.347 M13.005 60.287 C 13.012 60.453,13.833 61.056,13.926 60.963 C 13.964 60.924,13.772 60.727,13.498 60.525 C 13.224 60.322,13.002 60.215,13.005 60.287 M48.284 61.614 C 48.238 61.689,48.400 61.895,48.642 62.072 L 49.083 62.394 48.752 61.989 C 48.569 61.766,48.408 61.560,48.393 61.531 C 48.379 61.502,48.329 61.539,48.284 61.614 M23.000 62.064 C 23.000 62.099,23.188 62.164,23.417 62.207 C 23.646 62.251,23.833 62.223,23.833 62.144 C 23.833 62.065,23.646 62.000,23.417 62.000 C 23.188 62.000,23.000 62.029,23.000 62.064 M30.167 62.157 C 30.167 62.244,30.327 62.283,30.523 62.246 C 31.061 62.142,31.112 62.000,30.611 62.000 C 30.367 62.000,30.167 62.071,30.167 62.157 M24.768 62.362 C 24.815 62.438,25.011 62.500,25.204 62.500 C 25.397 62.500,25.504 62.448,25.441 62.385 C 25.275 62.219,24.666 62.198,24.768 62.362 M28.667 62.344 C 28.667 62.533,29.114 62.553,29.229 62.368 C 29.274 62.295,29.165 62.225,28.988 62.212 C 28.811 62.198,28.667 62.258,28.667 62.344 M36.583 62.592 C 36.125 62.814,35.938 62.950,36.167 62.894 C 36.649 62.775,37.500 62.362,37.500 62.246 C 37.500 62.142,37.541 62.127,36.583 62.592 M16.667 62.583 C 16.896 62.714,17.158 62.822,17.250 62.822 C 17.342 62.822,17.229 62.714,17.000 62.583 C 16.771 62.452,16.508 62.345,16.417 62.345 C 16.325 62.345,16.438 62.452,16.667 62.583 M22.449 64.343 C 22.523 64.414,23.033 64.515,23.583 64.569 C 24.793 64.686,24.618 64.565,23.282 64.362 C 22.750 64.281,22.375 64.272,22.449 64.343 M30.083 64.422 L 29.083 64.641 30.083 64.551 C 30.633 64.502,31.155 64.396,31.242 64.314 C 31.435 64.134,31.373 64.140,30.083 64.422 M25.917 64.668 C 25.562 64.757,25.825 64.800,26.819 64.814 C 27.591 64.824,28.176 64.787,28.120 64.731 C 27.960 64.571,26.470 64.528,25.917 64.668 M48.333 64.552 C 48.333 64.581,48.577 64.825,48.875 65.094 L 49.417 65.583 48.927 65.042 C 48.471 64.537,48.333 64.423,48.333 64.552 M47.167 64.719 C 47.167 64.748,47.410 64.991,47.708 65.260 L 48.250 65.750 47.760 65.208 C 47.304 64.703,47.167 64.590,47.167 64.719 M44.153 68.292 C 44.233 68.867,44.245 68.879,44.300 68.438 C 44.333 68.175,44.294 67.894,44.213 67.813 C 44.129 67.729,44.104 67.934,44.153 68.292 M13.000 68.253 C 13.000 68.284,13.233 68.425,13.517 68.567 C 13.907 68.762,13.987 68.769,13.845 68.597 C 13.674 68.392,13.000 68.118,13.000 68.253 M46.294 68.444 C 46.057 68.681,45.973 68.689,45.717 68.495 C 45.430 68.278,45.430 68.282,45.709 68.587 C 45.996 68.901,46.008 68.900,46.371 68.536 C 46.574 68.333,46.703 68.167,46.656 68.167 C 46.610 68.167,46.447 68.291,46.294 68.444 M22.833 70.231 C 22.833 70.267,23.054 70.328,23.325 70.368 C 23.595 70.407,23.778 70.378,23.731 70.303 C 23.649 70.170,22.833 70.104,22.833 70.231 M37.333 70.689 C 37.471 70.814,37.691 71.029,37.823 71.167 C 38.009 71.360,38.006 71.325,37.809 71.009 C 37.669 70.785,37.449 70.570,37.319 70.532 C 37.129 70.475,37.132 70.506,37.333 70.689 M257.529 72.309 C 257.333 72.478,257.221 72.666,257.281 72.725 C 257.340 72.785,257.310 72.833,257.213 72.833 C 257.116 72.833,256.988 73.096,256.928 73.417 C 256.850 73.832,256.730 74.000,256.512 74.000 C 256.335 74.000,256.163 74.159,256.105 74.375 C 255.952 74.945,255.973 75.000,256.337 75.000 C 256.600 75.000,256.654 75.081,256.585 75.375 C 256.467 75.881,255.833 79.020,255.833 79.102 C 255.833 79.656,256.988 79.064,257.089 78.458 C 257.154 78.069,257.262 77.712,257.328 77.667 C 257.395 77.621,257.555 77.021,257.686 76.333 C 257.904 75.179,257.956 75.079,258.360 75.032 C 259.054 74.951,259.158 74.000,258.472 74.000 C 258.304 74.000,258.168 73.906,258.169 73.792 C 258.174 73.372,258.460 73.147,258.925 73.198 C 259.501 73.261,259.947 72.446,259.494 72.159 C 259.067 71.889,257.911 71.977,257.529 72.309 M306.262 72.262 C 306.118 72.406,305.956 72.724,305.901 72.970 C 305.690 73.925,305.641 74.000,305.239 74.000 C 305.000 74.000,304.833 74.097,304.833 74.236 C 304.833 74.366,304.788 74.591,304.732 74.736 C 304.660 74.925,304.730 75.000,304.982 75.000 C 305.175 75.000,305.333 75.029,305.333 75.065 C 305.333 75.101,305.183 75.859,305.000 76.750 C 304.525 79.056,304.537 79.167,305.250 79.167 C 305.571 79.167,305.834 79.148,305.834 79.125 C 305.836 78.986,306.525 75.531,306.599 75.292 C 306.752 74.796,308.066 74.877,307.946 75.375 C 307.897 75.581,307.804 76.050,307.740 76.417 C 307.676 76.783,307.563 77.160,307.489 77.254 C 307.415 77.348,307.303 77.817,307.239 78.296 L 307.124 79.167 307.725 79.167 C 308.398 79.167,308.313 79.345,308.755 77.000 C 309.136 74.978,309.126 75.000,309.658 75.000 C 310.004 75.000,310.154 74.901,310.228 74.625 C 310.386 74.036,310.364 74.000,309.833 74.000 C 309.278 74.000,309.232 73.898,309.580 73.438 C 309.750 73.214,309.934 73.156,310.238 73.232 C 310.688 73.345,310.985 72.802,310.773 72.250 C 310.424 71.342,308.660 72.097,308.342 73.292 C 308.174 73.925,306.833 74.470,306.833 73.906 C 306.833 73.463,307.238 73.139,307.680 73.228 C 308.192 73.330,308.496 72.830,308.273 72.250 C 308.138 71.899,306.616 71.908,306.262 72.262 M347.000 72.113 C 345.138 72.883,345.418 75.238,347.463 76.003 C 348.818 76.510,349.293 77.183,348.684 77.734 C 347.956 78.393,346.167 77.927,346.167 77.079 C 346.167 76.709,346.098 76.667,345.500 76.667 C 344.735 76.667,344.587 77.206,345.086 78.172 C 346.063 80.062,350.333 79.302,350.333 77.238 C 350.333 76.142,350.094 75.856,348.585 75.149 C 346.970 74.392,346.648 74.019,347.163 73.504 C 347.804 72.863,349.500 73.338,349.500 74.159 C 349.500 74.255,349.762 74.333,350.083 74.333 C 351.092 74.333,350.913 73.341,349.724 72.337 C 349.421 72.081,347.465 71.920,347.000 72.113 M264.768 72.430 C 264.493 73.146,264.647 73.500,265.232 73.500 C 265.830 73.500,266.000 73.293,266.000 72.570 C 266.000 72.079,264.948 71.960,264.768 72.430 M267.666 72.292 C 267.665 72.360,267.440 72.544,267.166 72.701 C 266.814 72.900,266.667 73.111,266.667 73.413 C 266.667 73.717,266.545 73.888,266.250 74.000 C 265.776 74.180,265.640 75.000,266.083 75.000 C 266.386 75.000,266.386 74.864,266.083 76.444 C 265.615 78.892,265.707 79.167,266.996 79.167 C 267.650 79.167,267.833 78.979,267.833 78.309 C 267.833 78.062,267.739 77.992,267.458 78.031 C 267.061 78.086,266.950 76.332,267.342 76.194 C 267.429 76.164,267.501 75.976,267.503 75.778 C 267.506 75.294,267.682 75.051,268.083 74.976 C 268.580 74.883,268.655 74.000,268.167 74.000 C 267.906 74.000,267.834 73.922,267.897 73.708 C 268.185 72.727,268.199 72.167,267.935 72.167 C 267.788 72.167,267.666 72.223,267.666 72.292 M269.500 72.419 C 269.500 72.558,269.427 72.801,269.338 72.961 C 269.153 73.291,268.167 78.191,268.167 78.779 C 268.167 79.093,268.256 79.167,268.639 79.167 C 269.220 79.167,269.381 78.868,269.755 77.101 C 270.108 75.434,271.231 74.327,271.738 75.147 C 271.851 75.330,271.519 77.188,271.334 77.417 C 271.259 77.508,271.144 77.945,271.078 78.386 L 270.959 79.189 271.595 79.136 L 272.231 79.083 272.603 77.167 C 273.173 74.233,272.435 73.054,270.634 74.018 C 270.274 74.210,270.270 73.968,270.613 72.542 C 270.693 72.205,270.641 72.167,270.101 72.167 C 269.676 72.167,269.500 72.240,269.500 72.419 M320.000 72.313 C 320.000 72.394,319.775 72.553,319.500 72.667 C 319.168 72.804,318.999 72.993,318.997 73.229 C 318.993 73.912,318.846 73.956,316.467 73.981 C 315.887 73.987,315.844 74.025,315.735 74.619 C 315.671 74.966,315.570 75.287,315.511 75.333 C 315.387 75.429,314.833 78.266,314.833 78.806 C 314.833 79.103,314.931 79.167,315.385 79.167 L 315.936 79.167 316.239 77.677 C 316.545 76.170,316.987 75.183,317.373 75.147 C 318.375 75.054,318.659 75.097,318.594 75.333 C 318.382 76.104,318.142 77.998,318.192 78.500 C 318.298 79.570,320.157 79.435,320.164 78.357 C 320.166 78.027,320.104 77.980,319.775 78.062 C 319.178 78.212,319.129 77.295,319.668 76.083 C 319.749 75.900,319.839 75.603,319.867 75.424 C 319.897 75.236,320.095 75.057,320.334 75.001 C 320.901 74.868,321.043 74.000,320.498 74.000 C 320.124 74.000,320.122 73.960,320.450 72.542 C 320.512 72.272,320.461 72.167,320.268 72.167 C 320.121 72.167,320.000 72.233,320.000 72.313 M336.259 74.708 C 335.999 76.106,335.729 77.325,335.659 77.417 C 335.589 77.508,335.478 77.940,335.413 78.375 L 335.295 79.167 335.951 79.167 L 336.606 79.167 336.904 77.583 L 337.202 76.000 338.748 76.000 L 340.295 76.000 340.064 77.208 C 339.710 79.068,339.731 79.198,340.375 79.136 L 340.917 79.083 341.259 77.333 C 341.447 76.371,341.652 75.471,341.714 75.333 C 341.850 75.036,342.333 72.749,342.333 72.406 C 342.333 71.774,341.045 72.126,340.922 72.792 C 340.859 73.135,340.732 73.773,340.640 74.208 L 340.472 75.000 338.986 75.000 L 337.500 75.000 337.500 74.533 C 337.500 74.277,337.574 73.992,337.665 73.902 C 337.756 73.811,337.879 73.383,337.938 72.952 L 338.045 72.167 337.388 72.167 L 336.731 72.167 336.259 74.708 M343.438 72.458 C 343.391 72.619,343.122 73.987,342.839 75.500 C 342.556 77.012,342.283 78.456,342.233 78.708 C 342.146 79.138,342.176 79.167,342.719 79.167 C 343.323 79.167,343.500 78.963,343.500 78.270 C 343.500 78.066,343.568 77.829,343.651 77.742 C 343.734 77.655,344.002 76.533,344.246 75.250 C 344.490 73.967,344.731 72.748,344.780 72.542 C 344.899 72.044,343.582 71.962,343.438 72.458 M241.750 73.994 C 239.952 74.746,239.385 78.272,240.948 78.984 C 242.786 79.822,244.648 78.615,244.802 76.486 C 244.953 74.402,243.537 73.246,241.750 73.994 M252.608 73.948 C 252.545 74.011,252.173 74.045,251.781 74.025 L 251.069 73.988 250.618 76.370 C 250.065 79.290,250.064 79.167,250.639 79.167 C 251.191 79.167,251.385 78.852,251.667 77.500 C 252.041 75.707,252.628 74.900,253.416 75.098 C 253.866 75.211,254.290 74.356,253.952 74.018 C 253.749 73.816,252.790 73.765,252.608 73.948 M260.083 74.028 C 259.641 74.272,258.834 75.196,258.834 75.458 C 258.833 75.813,260.071 75.716,260.417 75.333 C 260.937 74.758,262.291 74.982,262.052 75.604 C 261.998 75.747,261.704 75.835,261.274 75.837 C 259.378 75.848,258.500 76.436,258.500 77.696 C 258.500 79.023,259.692 79.593,261.239 79.004 C 261.517 78.899,261.667 78.899,261.667 79.004 C 261.667 79.094,261.927 79.167,262.246 79.167 C 262.810 79.167,262.825 79.149,262.799 78.542 C 262.784 78.198,262.875 77.264,263.002 76.466 C 263.259 74.840,263.139 74.359,262.391 74.018 C 261.873 73.782,260.518 73.788,260.083 74.028 M285.378 73.951 C 284.152 74.187,283.274 76.739,283.903 78.242 C 284.613 79.943,287.787 79.309,288.329 77.359 C 289.027 74.845,287.841 73.475,285.378 73.951 M296.275 73.948 C 296.212 74.011,295.834 74.045,295.436 74.024 L 294.711 73.987 294.272 76.308 C 293.720 79.230,293.719 79.167,294.322 79.167 C 294.866 79.167,294.867 79.164,295.171 77.458 C 295.281 76.840,295.438 76.333,295.519 76.333 C 295.600 76.333,295.667 76.228,295.667 76.098 C 295.667 75.752,296.632 74.997,296.929 75.111 C 297.212 75.220,297.653 74.737,297.661 74.309 C 297.669 73.906,296.596 73.626,296.275 73.948 M301.333 73.951 C 300.010 74.435,299.200 76.947,299.918 78.337 C 300.681 79.811,303.565 79.260,304.077 77.542 C 304.248 76.970,302.989 76.988,302.612 77.563 C 302.196 78.198,301.499 78.283,301.044 77.754 C 300.443 77.055,300.550 77.000,302.500 77.000 L 304.333 77.000 304.333 76.178 C 304.333 74.370,302.965 73.355,301.333 73.951 M311.545 73.951 C 310.318 74.187,309.441 76.739,310.069 78.242 C 310.721 79.801,313.391 79.495,314.254 77.762 C 315.484 75.294,314.169 73.444,311.545 73.951 M322.167 73.951 C 320.552 74.541,320.799 76.137,322.652 77.076 C 323.673 77.593,323.761 77.727,323.257 77.996 C 322.713 78.287,322.024 78.086,321.832 77.579 C 321.600 76.970,320.500 76.968,320.500 77.575 C 320.500 78.721,321.134 79.167,322.765 79.167 C 325.305 79.167,325.485 76.870,323.032 75.764 C 322.195 75.387,322.204 75.104,323.054 75.032 C 323.572 74.988,323.694 75.044,323.859 75.407 C 324.056 75.839,324.260 75.915,324.736 75.732 C 325.319 75.508,324.877 74.272,324.119 74.008 C 323.593 73.825,322.592 73.795,322.167 73.951 M354.917 74.023 C 352.413 75.282,353.146 79.752,355.749 79.099 C 356.045 79.024,356.167 79.061,356.167 79.226 C 356.167 79.849,355.010 80.175,354.550 79.682 C 353.921 79.007,353.167 79.026,353.167 79.717 C 353.167 80.588,353.760 81.000,355.015 81.000 C 356.651 81.000,357.265 80.367,357.565 78.368 C 357.625 77.974,357.744 77.524,357.831 77.368 C 357.986 77.087,358.500 74.681,358.500 74.232 C 358.500 74.078,358.304 74.000,357.917 74.000 C 357.596 74.000,357.333 74.079,357.333 74.176 C 357.333 74.275,357.171 74.238,356.963 74.093 C 356.550 73.804,355.429 73.766,354.917 74.023 M360.941 73.948 C 360.878 74.011,360.497 74.045,360.094 74.024 C 359.238 73.980,359.326 73.806,358.831 76.500 C 358.637 77.554,358.438 78.585,358.388 78.792 C 358.307 79.126,358.360 79.167,358.880 79.167 C 359.445 79.167,359.466 79.144,359.578 78.392 C 359.642 77.966,359.757 77.497,359.832 77.351 C 359.908 77.204,360.094 76.733,360.244 76.305 C 360.572 75.372,360.839 75.122,361.533 75.100 C 362.140 75.081,362.588 74.264,362.145 73.983 C 361.872 73.810,361.102 73.787,360.941 73.948 M363.153 74.009 C 362.793 74.149,362.000 75.218,362.000 75.564 C 362.000 75.826,363.139 75.640,363.417 75.333 C 363.774 74.939,364.698 74.886,364.994 75.243 C 365.305 75.618,365.048 75.833,364.282 75.837 C 362.470 75.848,361.500 76.497,361.500 77.700 C 361.500 78.921,363.111 79.654,364.344 78.994 C 364.567 78.875,364.667 78.875,364.667 78.994 C 364.667 79.089,364.957 79.167,365.311 79.167 L 365.956 79.167 366.062 77.958 C 366.120 77.294,366.212 76.300,366.266 75.750 C 366.421 74.189,364.892 73.334,363.153 74.009 M368.165 74.208 C 367.045 74.971,366.523 76.573,366.902 78.083 C 367.367 79.938,371.000 79.295,371.000 77.358 C 371.000 76.883,369.742 76.999,369.587 77.489 C 369.221 78.642,367.894 78.106,368.064 76.873 C 368.291 75.215,369.783 74.218,370.119 75.501 C 370.229 75.923,371.333 75.993,371.333 75.578 C 371.333 74.079,369.512 73.292,368.165 74.208 M373.083 73.991 C 371.449 74.662,370.737 77.437,371.900 78.600 C 372.520 79.220,374.096 79.421,374.715 78.958 C 375.108 78.664,375.833 77.644,375.833 77.384 C 375.833 76.979,374.736 77.120,374.445 77.563 C 373.922 78.362,372.851 78.221,372.616 77.323 C 372.536 77.018,372.634 77.000,374.349 77.000 L 376.167 77.000 376.167 76.135 C 376.167 74.381,374.670 73.340,373.083 73.991 M235.832 74.198 C 235.831 74.318,235.989 75.438,236.183 76.686 C 236.587 79.280,236.466 79.833,235.499 79.833 C 234.746 79.833,234.533 80.889,235.250 81.068 C 236.278 81.326,237.194 80.437,238.411 78.000 C 238.754 77.313,239.127 76.637,239.239 76.500 C 239.549 76.121,240.276 74.798,240.407 74.375 C 240.511 74.036,240.467 74.000,239.951 74.000 C 239.305 74.000,238.905 74.468,238.059 76.214 C 237.567 77.230,237.371 77.192,237.345 76.075 C 237.339 75.795,237.264 75.495,237.179 75.408 C 237.093 75.321,237.000 74.987,236.970 74.667 C 236.915 74.061,235.836 73.617,235.832 74.198 M245.702 75.805 C 245.264 77.968,245.251 78.309,245.593 78.796 C 245.881 79.208,247.224 79.326,247.844 78.994 C 248.067 78.875,248.167 78.875,248.167 78.994 C 248.167 79.192,249.107 79.232,249.226 79.039 C 249.269 78.969,249.499 77.976,249.736 76.831 C 249.973 75.686,250.206 74.581,250.254 74.375 C 250.331 74.036,250.278 74.000,249.697 74.000 L 249.055 74.000 248.684 75.660 C 248.294 77.408,247.779 78.167,246.982 78.167 C 246.471 78.167,246.441 77.788,246.820 76.129 C 247.320 73.942,247.331 74.090,246.661 74.034 L 246.071 73.984 245.702 75.805 M264.419 74.208 C 264.342 74.435,263.500 78.879,263.500 79.058 C 263.500 79.118,263.750 79.167,264.055 79.167 L 264.611 79.167 264.920 77.458 C 265.090 76.519,265.283 75.712,265.348 75.667 C 265.414 75.621,265.521 75.227,265.586 74.792 L 265.705 74.000 265.097 74.000 C 264.760 74.000,264.458 74.093,264.419 74.208 M289.577 74.542 C 289.504 74.840,289.439 75.158,289.431 75.250 C 289.423 75.342,289.373 75.454,289.320 75.500 C 289.186 75.615,288.833 77.449,288.833 78.028 C 288.833 79.003,290.304 79.551,291.378 78.976 C 291.645 78.833,291.750 78.833,291.798 78.976 C 291.833 79.081,292.066 79.167,292.315 79.167 C 292.755 79.167,292.779 79.117,293.076 77.625 C 293.245 76.777,293.449 75.998,293.530 75.893 C 293.612 75.788,293.724 75.319,293.779 74.851 L 293.880 74.000 293.273 74.000 C 292.940 74.000,292.667 74.029,292.667 74.066 C 292.667 75.513,291.811 77.603,291.074 77.955 C 290.112 78.413,290.025 78.141,290.462 76.037 C 290.922 73.825,290.938 74.000,290.271 74.000 C 289.774 74.000,289.693 74.064,289.577 74.542 M243.631 75.538 C 243.906 76.114,243.652 77.179,243.122 77.672 C 241.622 79.070,240.571 76.887,241.971 75.284 C 242.383 74.813,243.356 74.962,243.631 75.538 M287.067 75.417 C 287.167 75.600,287.320 75.801,287.406 75.862 C 287.501 75.931,287.494 76.061,287.387 76.196 C 287.291 76.317,287.162 76.629,287.100 76.889 C 286.714 78.501,284.833 78.562,284.833 76.963 C 284.833 75.437,286.458 74.312,287.067 75.417 M302.994 75.322 C 303.261 75.821,303.238 75.834,302.042 75.828 L 300.917 75.823 301.384 75.411 C 301.956 74.908,302.749 74.864,302.994 75.322 M313.233 75.417 C 313.334 75.600,313.487 75.801,313.573 75.862 C 313.668 75.931,313.660 76.061,313.554 76.196 C 313.458 76.317,313.328 76.629,313.266 76.889 C 312.885 78.481,311.000 78.542,311.000 76.963 C 311.000 75.451,312.630 74.321,313.233 75.417 M356.571 75.262 C 357.199 75.889,356.625 77.712,355.729 77.937 C 355.034 78.111,354.757 77.827,354.700 76.880 C 354.618 75.496,355.791 74.482,356.571 75.262 M374.827 75.322 C 375.094 75.821,375.071 75.833,373.888 75.833 L 372.775 75.833 373.167 75.417 C 373.659 74.893,374.570 74.841,374.827 75.322 M261.688 77.208 C 261.496 77.739,260.425 78.305,260.053 78.071 C 259.429 77.678,259.689 77.173,260.608 76.996 C 261.753 76.775,261.838 76.791,261.688 77.208 M364.833 77.013 C 364.833 77.363,363.859 78.167,363.435 78.167 C 362.340 78.167,362.693 77.093,363.833 76.956 C 364.154 76.918,364.510 76.875,364.625 76.860 C 364.740 76.845,364.833 76.914,364.833 77.013 M273.604 78.354 C 273.446 79.145,273.459 79.167,274.066 79.167 C 274.663 79.167,274.833 78.960,274.833 78.236 C 274.833 77.547,273.745 77.652,273.604 78.354 M276.164 78.125 C 276.163 78.285,276.117 78.585,276.062 78.792 C 275.947 79.221,276.910 79.357,277.300 78.967 C 277.802 78.465,277.542 77.833,276.833 77.833 C 276.310 77.833,276.166 77.896,276.164 78.125 M278.664 78.125 C 278.663 78.285,278.616 78.590,278.559 78.802 C 278.461 79.168,278.494 79.185,279.186 79.136 C 279.899 79.085,279.918 79.068,279.968 78.458 L 280.020 77.833 279.343 77.833 C 278.811 77.833,278.666 77.895,278.664 78.125 M325.271 78.354 C 325.112 79.151,325.122 79.167,325.816 79.167 C 326.502 79.167,326.667 78.986,326.667 78.236 C 326.667 77.539,325.413 77.645,325.271 78.354 M327.998 78.125 C 327.996 78.285,327.949 78.591,327.892 78.803 C 327.795 79.164,327.831 79.186,328.436 79.136 C 329.410 79.057,329.557 77.833,328.593 77.833 C 328.140 77.833,327.999 77.902,327.998 78.125 M330.498 78.125 C 330.496 78.285,330.450 78.585,330.395 78.792 C 330.280 79.221,331.243 79.357,331.633 78.967 C 332.135 78.465,331.875 77.833,331.167 77.833 C 330.644 77.833,330.500 77.896,330.498 78.125 M376.664 78.125 C 376.663 78.285,376.617 78.585,376.562 78.792 C 376.447 79.221,377.410 79.357,377.800 78.967 C 378.302 78.465,378.042 77.833,377.333 77.833 C 376.810 77.833,376.666 77.896,376.664 78.125 M379.167 78.236 C 379.167 78.458,379.121 78.758,379.066 78.903 C 378.982 79.120,379.100 79.167,379.732 79.167 C 380.433 79.167,380.500 79.132,380.500 78.764 C 380.500 78.542,380.546 78.242,380.601 78.097 C 380.684 77.880,380.566 77.833,379.934 77.833 C 379.234 77.833,379.167 77.868,379.167 78.236 M381.875 77.944 C 381.279 78.184,381.648 79.167,382.333 79.167 C 382.856 79.167,383.000 79.104,383.002 78.875 C 383.004 78.715,383.050 78.415,383.105 78.208 C 383.206 77.832,382.519 77.684,381.875 77.944 " stroke="none" fill="#383737" fill-rule="evenodd"></path><path id="path1" d="M314.083 42.777 C 312.512 42.965,310.151 43.732,309.833 44.156 C 309.787 44.217,309.470 44.438,309.128 44.646 C 308.150 45.240,306.865 46.801,306.229 48.167 C 305.908 48.854,305.571 49.555,305.479 49.724 C 304.913 50.760,304.649 54.764,305.014 56.761 C 305.197 57.762,305.282 57.990,306.242 60.084 C 306.836 61.378,308.501 63.252,309.500 63.749 C 309.821 63.909,310.201 64.143,310.345 64.269 C 311.745 65.492,316.866 65.806,319.362 64.822 C 322.477 63.594,324.983 60.134,324.998 57.042 L 325.000 56.500 322.617 56.500 L 320.233 56.500 320.035 57.462 C 319.255 61.238,314.667 62.397,311.736 59.558 C 309.323 57.223,309.395 50.745,311.860 48.384 C 313.642 46.677,317.185 46.602,318.667 48.240 C 318.896 48.493,319.226 48.854,319.400 49.042 C 319.574 49.230,319.807 49.691,319.918 50.067 L 320.120 50.750 322.477 50.796 L 324.833 50.842 324.833 50.189 C 324.833 48.486,322.709 44.668,321.760 44.666 C 321.663 44.666,321.321 44.441,321.000 44.167 C 319.774 43.117,316.585 42.476,314.083 42.777 M363.667 46.833 L 363.667 49.167 362.417 49.167 L 361.167 49.167 361.167 50.667 L 361.167 52.167 362.417 52.167 L 363.667 52.167 363.667 57.153 C 363.667 62.710,363.738 63.132,364.837 64.114 C 365.777 64.954,368.446 65.413,370.557 65.096 L 371.333 64.980 371.333 63.156 L 371.333 61.333 370.093 61.333 C 368.270 61.333,368.333 61.511,368.333 56.380 L 368.333 52.167 369.833 52.167 L 371.333 52.167 371.333 50.667 L 371.333 49.167 369.833 49.167 L 368.333 49.167 368.333 46.833 L 368.333 44.500 366.000 44.500 L 363.667 44.500 363.667 46.833 M333.294 48.829 C 325.354 50.269,324.334 62.025,331.894 64.963 C 333.577 65.617,337.968 65.260,339.162 64.371 C 339.858 63.853,341.167 62.624,341.167 62.488 C 341.167 62.415,341.388 61.994,341.659 61.553 C 341.929 61.111,342.200 60.544,342.260 60.292 L 342.369 59.833 340.268 59.833 C 338.559 59.833,338.167 59.878,338.167 60.071 C 338.167 60.467,336.971 61.329,336.045 61.600 C 333.779 62.263,331.844 61.088,331.412 58.786 L 331.296 58.167 337.006 58.167 L 342.717 58.167 342.611 56.708 C 342.491 55.038,342.015 53.157,341.610 52.753 C 341.458 52.601,341.331 52.388,341.329 52.280 C 341.282 50.314,336.479 48.251,333.294 48.829 M352.250 48.889 C 351.174 49.169,350.682 49.440,349.847 50.215 L 349.167 50.847 349.167 50.007 L 349.167 49.167 347.000 49.167 L 344.833 49.167 344.833 57.083 L 344.833 65.000 347.073 65.000 L 349.312 65.000 349.364 59.792 L 349.417 54.583 349.881 53.869 C 351.012 52.128,353.746 51.941,354.622 53.544 C 354.881 54.018,354.927 54.737,355.000 59.500 L 355.083 64.917 357.333 64.917 L 359.583 64.917 359.632 60.167 C 359.707 52.743,359.381 50.974,357.704 49.715 C 356.521 48.827,353.976 48.442,352.250 48.889 M381.417 48.778 C 380.093 49.065,379.127 49.588,378.336 50.445 L 377.500 51.352 377.500 50.259 L 377.500 49.167 375.333 49.167 L 373.167 49.167 373.167 57.083 L 373.167 65.000 375.417 65.000 L 377.667 65.000 377.667 60.958 C 377.669 54.446,378.386 53.113,381.917 53.072 L 383.417 53.054 383.463 50.964 C 383.517 48.564,383.328 48.363,381.417 48.778 M390.147 48.918 C 382.669 50.408,381.887 62.402,389.104 64.923 C 393.421 66.431,398.617 64.139,399.412 60.375 L 399.526 59.833 397.527 59.833 L 395.527 59.833 395.174 60.405 C 394.181 62.012,390.789 62.203,389.475 60.726 C 389.212 60.431,388.667 58.852,388.667 58.386 C 388.667 58.209,389.744 58.167,394.275 58.167 L 399.884 58.167 399.777 56.625 C 399.376 50.837,395.616 47.828,390.147 48.918 M336.174 52.569 C 336.866 52.962,337.675 54.021,337.873 54.792 L 337.969 55.167 334.674 55.167 L 331.380 55.167 331.466 54.715 C 331.513 54.467,331.614 54.185,331.690 54.090 C 331.766 53.995,332.016 53.682,332.246 53.394 C 333.185 52.220,334.919 51.856,336.174 52.569 M393.183 52.441 C 394.227 52.945,394.808 53.646,395.063 54.708 L 395.173 55.167 391.917 55.167 L 388.660 55.167 388.766 54.708 C 389.192 52.849,391.537 51.646,393.183 52.441 " stroke="none" fill="#b47ca4" fill-rule="evenodd"></path><path id="path2" d="M34.500 12.018 C 34.500 12.100,34.210 12.167,33.855 12.167 C 32.360 12.167,27.810 13.185,26.417 13.832 C 26.050 14.002,25.262 14.341,24.667 14.585 C 23.377 15.113,21.783 15.875,21.667 16.020 C 21.621 16.077,21.058 16.444,20.417 16.835 C 18.513 17.997,15.455 20.786,14.600 22.141 C 14.373 22.500,14.014 22.981,13.802 23.211 C 13.590 23.440,13.117 24.255,12.750 25.022 C 12.383 25.789,11.996 26.509,11.890 26.622 C 11.507 27.028,10.167 31.512,10.167 32.385 C 10.167 32.616,10.087 32.832,9.991 32.864 C 9.668 32.972,9.572 37.693,9.880 38.311 C 10.025 38.601,10.192 39.268,10.251 39.794 C 10.555 42.484,11.894 44.684,13.880 45.755 C 14.358 46.013,14.787 46.277,14.833 46.342 C 15.637 47.485,23.290 47.540,25.500 46.419 C 25.729 46.302,26.554 45.960,27.333 45.659 C 29.843 44.687,33.230 42.095,33.994 40.562 C 34.356 39.835,35.798 37.471,36.167 37.000 C 36.998 35.937,37.372 31.997,36.785 30.476 C 36.257 29.110,34.955 28.503,32.552 28.501 C 30.895 28.500,30.736 28.668,31.623 29.479 C 33.841 31.506,34.454 36.682,32.783 39.264 C 32.581 39.575,32.374 39.830,32.321 39.831 C 32.269 39.832,31.555 40.490,30.735 41.292 C 25.874 46.047,18.686 46.672,15.496 42.616 C 15.130 42.150,14.003 39.788,13.572 38.583 C 13.113 37.299,13.423 31.159,13.985 30.420 C 14.056 30.327,14.245 29.762,14.405 29.167 C 14.854 27.487,15.753 25.054,16.005 24.833 C 16.057 24.787,16.311 24.337,16.569 23.833 C 16.826 23.329,17.141 22.798,17.269 22.654 C 17.396 22.509,17.500 22.320,17.500 22.234 C 17.500 22.051,20.115 19.334,21.083 18.511 C 21.817 17.888,23.337 17.023,24.500 16.567 C 24.912 16.405,25.287 16.224,25.333 16.164 C 25.681 15.709,30.056 15.102,32.243 15.205 C 35.050 15.337,36.311 16.250,36.754 18.472 C 37.042 19.913,37.250 19.698,37.649 17.547 C 37.850 16.467,38.082 15.433,38.165 15.250 C 38.514 14.479,38.840 12.292,38.641 12.053 C 38.419 11.785,34.500 11.753,34.500 12.018 M237.550 18.814 C 233.239 20.414,232.916 26.659,237.036 28.765 C 238.324 29.423,238.414 29.372,238.727 27.792 C 239.092 25.953,239.079 25.290,238.670 24.920 C 237.729 24.068,238.345 20.862,239.374 21.257 C 240.348 21.630,241.227 24.176,240.685 25.053 C 240.493 25.364,240.214 26.211,240.065 26.934 C 239.917 27.658,239.691 28.453,239.564 28.700 C 239.221 29.369,239.248 29.390,240.335 29.276 C 245.511 28.735,246.734 21.251,242.019 18.969 C 240.936 18.445,238.749 18.369,237.550 18.814 M73.917 18.868 C 72.991 19.399,72.900 20.577,73.679 21.938 C 73.961 22.430,74.249 22.833,74.319 22.833 C 74.539 22.833,74.848 23.690,74.746 24.014 C 74.566 24.580,73.599 24.665,67.317 24.666 C 61.000 24.667,60.273 24.598,60.079 23.986 C 59.909 23.451,59.440 23.580,59.576 24.125 C 59.858 25.254,59.859 25.717,59.582 26.443 C 59.281 27.232,59.319 28.351,59.670 29.007 C 59.875 29.390,60.500 29.447,60.500 29.083 C 60.500 28.946,60.425 28.833,60.333 28.833 C 60.242 28.833,60.167 28.725,60.167 28.593 C 60.167 28.222,60.843 27.833,61.487 27.833 L 62.067 27.833 61.375 28.499 C 59.639 30.167,58.938 34.922,60.203 36.458 C 60.297 36.573,60.324 36.667,60.262 36.667 C 60.122 36.667,60.967 37.814,61.395 38.205 C 61.976 38.737,63.833 38.716,63.833 38.177 C 63.833 37.476,65.567 37.473,65.811 38.173 C 66.207 39.309,67.667 37.509,67.667 35.886 C 67.667 34.076,67.386 33.767,65.583 33.586 C 63.643 33.392,63.502 33.345,63.159 32.783 C 62.186 31.187,63.243 29.251,65.511 28.475 C 65.826 28.367,66.133 28.203,66.195 28.110 C 66.377 27.834,69.495 27.878,70.157 28.167 C 72.881 29.353,73.492 29.979,73.497 31.588 C 73.502 32.929,73.050 33.316,71.167 33.583 C 69.321 33.846,68.786 34.330,68.786 35.738 C 68.786 38.109,70.499 39.468,71.891 38.201 C 72.792 37.381,73.766 37.386,74.308 38.212 C 74.479 38.473,74.673 38.599,74.791 38.526 C 75.060 38.360,76.167 36.211,76.167 35.855 C 76.167 35.696,76.256 35.478,76.364 35.369 C 76.483 35.250,76.590 34.424,76.634 33.285 C 76.720 31.042,76.358 29.980,75.052 28.642 L 74.297 27.868 74.829 27.751 C 76.749 27.329,77.668 24.205,76.327 22.659 C 75.990 22.271,75.732 21.005,75.900 20.566 C 76.003 20.297,76.380 20.302,77.042 20.580 C 77.387 20.725,77.457 20.042,77.153 19.475 C 76.781 18.779,74.739 18.396,73.917 18.868 M91.837 18.881 C 90.664 19.474,90.862 21.403,92.249 22.900 C 93.313 24.047,92.540 24.667,90.046 24.667 C 88.317 24.667,87.600 24.492,87.171 23.968 C 86.691 23.381,86.377 23.779,86.751 24.501 C 87.040 25.061,87.000 25.756,86.626 26.643 C 86.335 27.331,86.342 28.197,86.642 28.821 C 87.017 29.600,87.403 29.717,87.301 29.021 C 87.046 27.285,90.968 27.651,92.035 29.463 C 93.171 31.390,91.714 33.500,89.249 33.500 C 87.390 33.500,86.333 32.686,86.333 31.253 C 86.333 30.778,86.270 30.667,86.000 30.667 C 85.711 30.667,85.667 30.778,85.667 31.497 C 85.667 33.427,82.156 34.475,81.497 32.742 C 81.180 31.910,81.493 31.671,83.788 30.993 C 85.635 30.446,86.337 29.433,86.127 27.615 C 85.895 25.609,84.789 24.788,82.183 24.691 C 78.764 24.564,77.138 26.010,77.646 28.726 C 77.843 29.784,79.000 30.961,79.000 30.104 C 79.000 29.674,79.460 29.481,80.361 29.532 L 81.250 29.583 80.366 29.792 C 79.819 29.921,79.278 30.191,78.949 30.499 C 78.656 30.774,78.369 30.999,78.310 30.999 C 77.634 31.004,77.377 34.779,77.973 35.947 C 79.212 38.375,82.951 39.451,85.160 38.016 C 85.506 37.792,85.547 37.789,85.422 38.000 C 85.158 38.444,84.423 39.413,84.263 39.528 C 83.933 39.764,83.931 41.704,84.260 41.944 C 84.663 42.239,85.484 42.226,86.233 41.913 C 86.777 41.686,86.851 41.686,86.938 41.913 C 87.076 42.271,87.622 42.229,87.827 41.844 C 88.288 40.984,87.979 39.695,87.003 38.401 L 86.362 37.552 87.237 37.276 C 89.040 36.708,90.808 37.249,90.828 38.375 C 90.846 39.364,93.358 37.176,93.884 35.713 C 94.389 34.307,94.763 31.907,94.525 31.602 C 94.445 31.500,94.331 31.049,94.273 30.599 C 94.213 30.141,93.908 29.319,93.581 28.734 L 92.996 27.688 93.489 27.396 C 94.741 26.657,95.284 24.530,94.536 23.299 C 93.397 21.428,93.575 19.753,94.828 20.535 C 95.667 21.059,95.361 19.617,94.512 19.045 C 93.871 18.613,92.528 18.531,91.837 18.881 M124.667 18.959 C 123.674 19.454,123.564 20.687,124.409 21.843 C 126.486 24.687,126.503 24.680,118.026 24.626 L 111.468 24.583 111.103 24.125 C 110.432 23.284,109.933 23.666,110.502 24.586 C 110.888 25.212,110.843 26.014,110.396 26.461 C 110.038 26.819,110.093 28.531,110.478 28.974 C 110.913 29.476,111.226 29.438,111.122 28.897 C 111.007 28.292,111.501 27.833,112.269 27.833 L 112.871 27.833 112.040 28.625 C 111.413 29.222,111.140 29.643,110.929 30.333 C 110.775 30.837,110.578 31.380,110.491 31.539 C 110.281 31.924,110.288 33.952,110.500 34.083 C 110.592 34.140,110.667 34.421,110.667 34.707 C 110.667 37.169,112.707 39.356,114.157 38.449 C 115.830 37.404,116.541 37.357,116.772 38.279 C 117.052 39.393,118.501 37.228,118.499 35.697 C 118.498 34.117,118.064 33.747,115.950 33.524 C 112.645 33.177,112.635 30.137,115.936 28.651 C 116.383 28.450,116.930 28.202,117.151 28.101 C 117.977 27.721,120.322 27.874,121.380 28.376 C 121.909 28.628,122.415 28.833,122.504 28.833 C 122.919 28.833,123.968 30.040,124.165 30.743 C 124.642 32.449,124.054 33.222,122.004 33.583 C 119.935 33.946,119.500 34.355,119.500 35.933 C 119.500 38.264,120.952 39.154,122.966 38.055 C 124.221 37.370,125.018 37.461,125.138 38.303 C 125.218 38.864,125.519 38.674,126.083 37.703 C 126.678 36.682,126.654 36.689,127.113 37.398 C 127.978 38.734,129.424 38.952,131.023 37.986 C 131.864 37.478,132.247 37.335,132.533 37.422 C 133.076 37.588,133.500 37.999,133.500 38.359 C 133.500 38.821,133.765 38.731,134.191 38.125 C 134.401 37.827,134.667 37.486,134.782 37.367 C 135.673 36.449,136.137 31.323,135.592 28.429 C 134.989 25.232,133.723 24.148,131.377 24.821 C 130.624 25.037,129.742 24.756,129.301 24.159 C 129.101 23.888,128.843 23.667,128.728 23.667 C 128.355 23.667,128.294 24.013,128.605 24.358 C 128.984 24.776,128.984 25.829,128.605 26.407 C 128.217 26.999,128.241 28.509,128.645 28.974 C 129.068 29.463,129.333 29.425,129.336 28.875 C 129.341 28.041,129.544 27.915,130.870 27.931 C 133.502 27.961,134.964 30.017,133.875 32.155 C 132.983 33.905,127.500 33.949,127.500 32.206 C 127.500 31.127,126.971 29.887,126.093 28.904 L 125.214 27.922 126.049 27.503 C 127.217 26.916,127.553 26.401,127.638 25.066 C 127.705 24.002,127.080 21.810,126.615 21.481 C 126.077 21.101,126.934 20.108,127.497 20.460 C 128.203 20.901,128.367 20.555,127.909 19.590 C 127.465 18.655,125.889 18.348,124.667 18.959 M152.668 22.293 C 151.384 23.577,151.903 25.612,153.595 25.930 C 154.913 26.177,156.055 25.516,156.268 24.382 C 156.682 22.174,154.217 20.744,152.668 22.293 M155.023 22.661 C 155.240 22.841,155.332 22.991,155.228 22.994 C 155.124 22.998,154.989 23.169,154.928 23.375 L 154.816 23.750 154.664 23.375 C 154.536 23.061,154.381 22.999,153.714 22.994 L 152.917 22.989 153.310 22.661 C 153.527 22.481,153.912 22.333,154.167 22.333 C 154.421 22.333,154.807 22.481,155.023 22.661 M142.351 23.003 C 139.481 23.608,138.157 25.631,139.254 27.733 C 139.393 27.999,139.486 28.233,139.461 28.252 C 139.437 28.272,139.106 28.482,138.726 28.718 C 135.079 30.989,136.889 38.009,141.271 38.591 C 142.107 38.702,143.814 38.452,143.994 38.192 C 144.186 37.915,146.804 37.119,147.786 37.040 C 148.875 36.951,150.000 37.642,150.000 38.400 C 150.000 39.558,152.932 36.745,153.413 35.126 C 153.918 33.425,153.616 29.625,152.943 29.214 C 152.597 29.002,152.167 28.286,152.167 27.921 C 152.166 27.449,151.251 25.564,150.937 25.388 C 150.794 25.308,150.343 24.924,149.935 24.535 C 148.504 23.171,144.953 22.454,142.351 23.003 M153.167 24.186 C 153.167 24.650,153.237 24.833,153.417 24.833 C 153.597 24.833,153.667 24.648,153.667 24.167 C 153.667 23.800,153.742 23.500,153.833 23.500 C 153.925 23.500,154.000 23.797,154.000 24.160 C 154.000 24.813,154.006 24.819,154.592 24.773 C 155.563 24.696,155.462 25.157,154.455 25.398 C 153.607 25.600,152.500 24.754,152.500 23.903 C 152.500 23.447,152.551 23.378,152.833 23.452 C 153.094 23.520,153.167 23.679,153.167 24.186 M108.284 24.125 L 107.826 24.583 102.705 24.667 L 97.583 24.750 96.888 25.250 C 95.196 26.467,94.961 29.871,96.505 30.805 L 96.871 31.026 96.444 31.471 C 95.149 32.823,95.215 36.660,96.548 37.549 C 96.751 37.684,97.092 37.949,97.305 38.137 C 98.108 38.844,99.297 38.797,100.912 37.993 C 102.604 37.151,103.473 37.203,103.809 38.169 C 104.398 39.858,106.065 36.772,106.077 33.973 C 106.084 32.169,105.987 31.926,105.505 32.539 C 104.594 33.697,100.132 34.132,99.157 33.157 C 98.455 32.455,99.080 31.833,100.486 31.833 C 101.688 31.833,102.000 31.940,102.000 32.351 C 102.000 32.736,102.217 32.758,102.512 32.402 C 102.773 32.087,102.776 30.953,102.515 30.866 C 102.263 30.782,102.288 30.493,102.575 30.176 C 102.970 29.739,102.635 29.387,102.148 29.728 C 101.896 29.904,101.417 30.000,100.788 30.000 C 98.796 30.000,98.084 28.940,99.417 27.961 C 99.681 27.767,107.475 27.808,107.844 28.006 C 108.070 28.127,108.167 28.356,108.167 28.768 C 108.167 29.237,108.226 29.346,108.454 29.302 C 109.160 29.166,109.335 27.529,108.820 25.880 C 108.631 25.276,108.637 25.099,108.858 24.630 C 109.313 23.666,109.010 23.399,108.284 24.125 M145.281 25.362 C 146.257 26.279,145.165 27.787,143.777 27.438 C 143.179 27.288,142.500 26.682,142.500 26.298 C 142.500 25.231,144.445 24.577,145.281 25.362 M149.189 26.198 C 149.365 26.445,149.617 26.906,149.749 27.222 L 149.989 27.797 148.773 27.859 C 147.900 27.903,147.474 28.002,147.266 28.210 C 146.775 28.702,146.612 28.530,147.062 27.995 C 147.551 27.414,147.746 26.596,147.619 25.654 L 147.531 24.996 148.200 25.372 C 148.568 25.579,149.012 25.950,149.189 26.198 M83.758 27.409 C 84.472 28.124,84.229 28.792,83.083 29.263 C 82.426 29.534,82.421 29.533,82.708 29.214 C 83.146 28.728,83.080 28.667,82.117 28.667 C 81.199 28.667,80.833 28.470,80.833 27.979 C 80.833 27.043,82.974 26.626,83.758 27.409 M146.048 29.113 C 144.924 30.829,146.271 32.949,148.738 33.347 C 149.509 33.471,149.473 33.479,148.333 33.435 C 146.484 33.364,145.667 32.794,145.667 31.575 C 145.667 30.876,145.061 31.040,144.922 31.778 C 144.453 34.282,139.970 34.000,139.973 31.466 C 139.976 29.597,140.503 29.188,142.801 29.275 C 144.458 29.337,145.240 29.206,146.296 28.689 C 146.321 28.677,146.209 28.868,146.048 29.113 M150.201 29.542 C 150.660 29.902,150.719 30.447,150.342 30.825 C 149.722 31.444,149.000 31.168,149.000 30.312 C 149.000 29.526,149.651 29.109,150.201 29.542 M235.667 47.833 L 235.667 65.000 239.583 65.000 L 243.500 65.000 243.500 47.833 L 243.500 30.667 241.167 30.667 L 238.833 30.667 238.833 31.253 C 238.833 31.590,239.052 32.244,239.348 32.794 C 239.632 33.320,239.747 33.600,239.604 33.417 C 239.461 33.233,239.263 32.988,239.162 32.871 C 238.865 32.526,238.500 31.543,238.500 31.089 C 238.500 30.670,238.488 30.667,237.083 30.667 L 235.667 30.667 235.667 47.833 M246.000 30.766 C 246.000 30.984,247.051 34.261,247.171 34.417 C 247.242 34.508,247.500 35.258,247.744 36.083 C 248.672 39.220,249.055 40.422,249.177 40.583 C 249.247 40.675,249.685 41.987,250.153 43.500 C 250.945 46.067,251.656 48.279,252.855 51.917 C 253.127 52.742,253.758 54.692,254.257 56.250 C 254.756 57.808,255.423 59.871,255.739 60.833 C 256.055 61.796,256.476 63.128,256.674 63.794 L 257.034 65.005 261.465 64.961 L 265.896 64.917 266.574 62.750 C 266.947 61.558,267.299 60.508,267.358 60.417 C 267.416 60.325,267.855 58.975,268.333 57.417 C 268.811 55.858,269.261 54.508,269.333 54.417 C 269.406 54.325,269.856 52.975,270.333 51.417 C 270.811 49.858,271.261 48.508,271.333 48.417 C 271.406 48.325,271.856 46.975,272.333 45.417 C 272.811 43.858,273.261 42.508,273.333 42.417 C 273.406 42.325,273.856 40.975,274.333 39.417 C 274.811 37.858,275.261 36.508,275.333 36.417 C 275.406 36.325,275.541 35.987,275.634 35.667 C 275.726 35.346,276.071 34.221,276.401 33.167 C 277.273 30.373,277.671 30.667,273.010 30.667 L 269.020 30.667 268.610 32.042 C 268.384 32.798,268.028 34.017,267.818 34.750 C 267.608 35.483,267.385 36.121,267.322 36.167 C 267.259 36.212,266.821 37.563,266.349 39.167 C 265.876 40.771,265.351 42.421,265.182 42.833 C 265.012 43.246,264.557 44.655,264.171 45.964 C 263.785 47.274,263.370 48.549,263.250 48.797 C 263.130 49.046,262.706 50.366,262.307 51.731 C 261.909 53.095,261.559 54.051,261.530 53.856 C 261.501 53.660,261.415 53.500,261.340 53.500 C 261.264 53.500,261.154 53.294,261.095 53.042 C 260.835 51.937,259.419 47.242,259.323 47.167 C 259.265 47.121,258.825 45.733,258.345 44.084 C 257.865 42.434,257.412 41.009,257.339 40.917 C 257.266 40.825,256.817 39.400,256.340 37.750 C 255.864 36.100,255.405 34.725,255.320 34.694 C 255.236 34.664,255.167 34.552,255.167 34.445 C 255.167 34.339,254.930 33.445,254.640 32.459 L 254.113 30.667 250.056 30.667 C 247.825 30.667,246.000 30.711,246.000 30.766 M279.833 47.833 L 279.833 65.000 283.750 65.000 L 287.667 65.000 287.667 58.000 L 287.667 51.000 294.750 51.000 L 301.833 51.000 301.833 47.917 L 301.833 44.833 294.750 44.833 L 287.667 44.833 287.667 41.083 L 287.667 37.333 295.833 37.333 L 304.000 37.333 304.000 34.000 L 304.000 30.667 291.917 30.667 L 279.833 30.667 279.833 47.833 M239.675 36.634 C 239.441 37.551,239.333 38.505,239.333 39.663 C 239.333 40.747,239.274 41.316,239.167 41.250 C 238.956 41.120,238.945 37.790,239.154 37.575 C 239.390 37.331,239.830 35.464,239.863 34.559 L 239.893 33.750 239.955 34.523 C 239.990 34.961,239.869 35.875,239.675 36.634 M29.208 46.777 C 28.820 46.934,28.980 47.843,29.513 48.517 C 30.145 49.314,30.099 49.636,29.061 51.692 C 28.306 53.188,28.121 54.292,28.506 55.011 C 28.658 55.295,28.621 55.333,28.194 55.333 C 27.927 55.333,27.356 55.490,26.924 55.681 C 26.492 55.872,26.092 55.981,26.035 55.923 C 25.877 55.766,26.008 54.431,26.192 54.318 C 26.513 54.119,25.949 52.442,25.411 51.995 C 25.249 51.861,25.213 51.571,25.284 50.971 C 25.401 49.987,25.262 49.840,24.208 49.836 L 23.500 49.833 23.500 50.597 C 23.500 51.396,23.138 51.596,23.030 50.858 C 22.980 50.521,22.911 50.500,22.174 50.598 C 21.374 50.704,21.371 50.703,21.181 50.127 C 20.351 47.613,16.412 47.977,15.031 50.695 C 13.130 54.436,14.858 57.842,18.798 58.120 C 19.767 58.188,20.333 58.308,20.525 58.486 C 20.682 58.631,21.097 58.900,21.447 59.083 C 21.797 59.266,22.650 59.731,23.342 60.116 C 28.918 63.218,35.667 61.359,35.667 56.722 C 35.667 55.084,34.084 53.098,32.501 52.750 C 31.867 52.611,31.827 52.451,31.815 50.022 C 31.810 48.869,31.732 47.789,31.642 47.621 C 31.275 46.935,29.953 46.476,29.208 46.777 M24.333 53.365 C 24.333 53.439,24.171 53.662,23.974 53.860 L 23.614 54.219 23.721 53.818 C 23.780 53.597,23.832 53.229,23.836 53.000 C 23.844 52.586,24.333 52.946,24.333 53.365 M29.736 55.934 C 29.881 55.990,30.000 56.140,30.000 56.268 C 30.000 56.602,29.780 56.554,29.539 56.167 C 29.313 55.806,29.335 55.781,29.736 55.934 " stroke="none" fill="#ec3c64" fill-rule="evenodd"></path><path id="path3" d="M36.219 2.708 C 35.853 3.098,35.054 3.897,34.444 4.484 C 33.833 5.071,33.333 5.614,33.333 5.692 C 33.333 5.770,33.221 5.833,33.083 5.833 C 32.946 5.833,32.833 5.906,32.833 5.994 C 32.833 6.082,31.746 7.264,30.417 8.619 C 27.723 11.367,27.879 11.140,28.340 11.635 C 28.527 11.836,28.631 12.000,28.571 12.000 C 28.512 12.000,28.634 12.138,28.843 12.307 C 29.221 12.614,29.225 12.612,29.949 11.797 C 32.586 8.827,36.000 5.647,36.000 6.159 C 36.000 6.247,36.169 6.496,36.375 6.713 C 36.889 7.255,37.111 7.550,38.157 9.085 C 38.656 9.818,39.144 10.472,39.240 10.539 C 39.349 10.615,39.353 10.664,39.250 10.667 C 39.154 10.670,39.162 10.724,39.268 10.794 C 39.492 10.942,40.082 12.033,40.034 12.208 C 40.015 12.277,40.070 12.333,40.155 12.333 C 40.305 12.333,40.645 12.944,42.198 16.000 C 42.829 17.242,43.402 18.583,43.302 18.583 C 43.283 18.583,43.469 18.958,43.715 19.417 C 43.962 19.875,44.511 21.188,44.936 22.333 C 45.361 23.479,45.805 24.642,45.922 24.917 C 46.244 25.670,47.419 29.574,47.599 30.487 C 47.625 30.617,47.795 31.292,47.978 31.987 C 48.966 35.736,48.871 41.768,47.762 45.667 C 46.711 49.363,45.807 51.356,44.122 53.688 C 42.811 55.502,42.338 56.029,40.997 57.167 C 40.403 57.671,39.879 58.122,39.833 58.168 C 39.628 58.378,38.325 59.167,38.184 59.167 C 38.098 59.167,38.003 59.225,37.972 59.297 C 37.891 59.488,36.685 60.167,36.428 60.167 C 36.307 60.167,36.116 60.276,36.005 60.410 C 35.556 60.951,31.386 62.187,29.889 62.222 C 29.415 62.233,29.063 62.300,29.107 62.371 C 29.209 62.537,24.930 62.541,24.764 62.375 C 24.695 62.306,24.439 62.246,24.194 62.240 C 23.950 62.235,23.412 62.164,23.000 62.084 C 22.587 62.003,22.191 61.953,22.118 61.971 C 22.046 61.989,21.835 61.923,21.649 61.824 C 21.464 61.725,21.185 61.618,21.031 61.587 C 20.335 61.446,17.833 60.453,17.833 60.318 C 17.833 60.235,17.723 60.167,17.589 60.167 C 17.113 60.167,14.821 58.786,13.500 57.704 C 11.452 56.025,9.628 53.870,8.814 52.167 C 8.138 50.750,7.946 50.195,7.679 48.882 C 7.076 45.908,7.685 43.480,9.597 41.242 C 10.336 40.377,10.552 38.924,9.992 38.578 C 9.841 38.485,8.500 39.806,8.500 40.049 C 8.500 40.138,8.339 40.351,8.141 40.522 C 7.944 40.693,7.843 40.833,7.917 40.833 C 7.991 40.833,7.934 40.965,7.791 41.125 C 7.316 41.655,6.661 43.313,6.374 44.709 C 6.218 45.465,6.046 46.121,5.991 46.167 C 5.847 46.286,5.892 48.281,6.042 48.431 C 6.247 48.636,6.183 48.863,5.958 48.728 C 5.799 48.632,5.794 48.659,5.937 48.843 C 6.040 48.975,6.177 49.458,6.240 49.917 C 7.726 60.601,22.747 67.606,34.917 63.288 C 35.836 62.962,38.916 61.462,38.972 61.314 C 39.003 61.233,39.097 61.167,39.182 61.167 C 40.030 61.167,44.296 57.138,45.624 55.083 C 45.920 54.625,46.281 54.100,46.424 53.917 C 46.733 53.523,48.157 50.579,48.238 50.167 C 48.247 50.121,48.340 49.858,48.445 49.583 C 48.792 48.672,48.883 48.418,48.923 48.250 C 48.944 48.158,49.047 47.767,49.152 47.381 C 50.358 42.941,50.500 35.456,49.490 29.583 C 49.151 27.608,49.122 27.466,48.843 26.333 C 48.741 25.921,48.625 25.446,48.586 25.278 C 48.546 25.111,48.459 24.811,48.392 24.612 C 48.325 24.413,48.264 24.175,48.257 24.083 C 48.148 22.646,43.698 11.582,43.141 11.361 C 43.063 11.331,43.000 11.171,43.000 11.007 C 43.000 10.842,42.887 10.614,42.750 10.500 C 42.612 10.386,42.500 10.189,42.500 10.063 C 42.500 9.937,42.417 9.833,42.316 9.833 C 42.214 9.833,42.172 9.726,42.223 9.594 C 42.273 9.463,42.255 9.331,42.181 9.302 C 42.070 9.259,40.667 7.055,40.667 6.924 C 40.667 6.623,37.299 2.000,37.080 2.000 C 36.972 2.000,36.585 2.319,36.219 2.708 M19.444 33.778 C 19.361 33.861,17.846 34.054,17.435 34.033 C 17.171 34.020,17.002 34.058,17.061 34.117 C 17.120 34.176,16.662 34.386,16.042 34.583 C 13.797 35.300,13.098 35.835,13.239 36.731 C 13.291 37.062,13.372 37.586,13.420 37.895 L 13.507 38.456 14.572 38.070 C 17.146 37.135,23.068 37.158,25.500 38.112 C 25.637 38.166,25.961 38.238,26.219 38.272 C 26.477 38.305,26.823 38.405,26.989 38.494 C 27.154 38.582,27.335 38.609,27.391 38.554 C 27.446 38.498,27.606 38.547,27.746 38.663 C 27.886 38.779,28.000 38.831,28.000 38.778 C 28.000 38.726,28.356 38.793,28.792 38.928 C 29.227 39.064,30.071 39.284,30.667 39.417 C 31.262 39.551,31.910 39.706,32.106 39.761 C 32.415 39.849,32.543 39.701,33.065 38.659 C 33.858 37.072,33.855 36.738,33.042 36.590 C 32.698 36.527,31.742 36.258,30.917 35.993 C 28.918 35.350,27.364 34.919,25.750 34.560 C 25.017 34.397,24.375 34.204,24.323 34.131 C 24.272 34.058,24.047 34.007,23.823 34.018 C 23.600 34.029,23.004 33.988,22.500 33.926 C 21.640 33.821,19.505 33.717,19.444 33.778 M44.767 37.012 C 44.536 38.458,43.816 38.981,42.366 38.755 C 40.307 38.433,39.526 38.290,39.066 38.149 C 38.536 37.986,37.942 37.838,37.500 37.758 C 37.362 37.733,37.137 37.671,37.000 37.620 C 35.945 37.230,35.905 37.252,35.011 38.731 C 34.547 39.500,34.167 40.170,34.167 40.219 C 34.167 40.330,35.242 40.692,35.439 40.647 C 35.518 40.629,35.696 40.661,35.833 40.720 C 35.971 40.778,37.358 41.129,38.917 41.499 C 40.475 41.870,41.938 42.222,42.167 42.281 C 42.396 42.341,42.633 42.396,42.694 42.403 C 42.756 42.411,42.851 42.462,42.907 42.518 C 43.090 42.701,43.833 42.466,43.833 42.224 C 43.833 42.093,43.995 41.671,44.193 41.285 C 45.034 39.647,46.172 36.667,45.957 36.667 C 45.934 36.667,45.680 36.599,45.392 36.517 C 44.881 36.370,44.868 36.380,44.767 37.012 M2.042 58.944 C 1.719 59.074,1.793 59.337,2.256 59.701 L 2.679 60.034 2.284 60.392 C 1.589 61.023,0.291 62.082,0.143 62.139 C 0.064 62.169,0.000 62.378,0.000 62.602 C 0.000 63.371,0.453 63.237,1.698 62.100 C 3.038 60.877,3.080 60.860,3.588 61.338 C 3.939 61.668,4.500 61.647,4.500 61.304 C 4.500 61.055,2.623 58.832,2.425 58.846 C 2.329 58.854,2.156 58.897,2.042 58.944 M48.641 60.436 C 48.398 60.564,47.954 60.948,47.656 61.288 L 47.113 61.906 48.678 63.370 C 50.428 65.008,50.438 65.012,51.032 64.375 C 52.239 63.081,51.980 61.500,50.561 61.500 C 50.316 61.500,50.167 61.402,50.167 61.242 C 50.167 60.991,49.385 60.149,49.184 60.184 C 49.129 60.194,48.884 60.307,48.641 60.436 M49.336 61.420 C 49.721 61.883,49.076 62.404,48.574 62.035 L 48.187 61.750 48.552 61.462 C 49.002 61.107,49.073 61.103,49.336 61.420 M3.655 62.704 C 2.073 64.450,1.804 64.847,2.023 65.112 C 2.331 65.483,2.623 65.365,3.114 64.670 C 3.657 63.903,3.818 63.862,4.279 64.375 C 4.875 65.037,4.874 65.144,4.264 65.888 C 3.812 66.440,3.720 66.654,3.871 66.804 C 4.089 67.023,4.667 67.071,4.667 66.871 C 4.667 66.800,5.259 66.107,5.984 65.330 C 7.047 64.189,7.271 63.861,7.145 63.625 C 6.909 63.186,6.597 63.270,6.040 63.921 L 5.538 64.509 4.918 63.907 L 4.299 63.305 4.816 62.800 C 5.406 62.222,5.465 61.916,5.030 61.683 C 4.777 61.547,4.549 61.717,3.655 62.704 M50.678 62.506 C 51.074 62.718,51.091 63.123,50.722 63.531 C 50.452 63.829,50.432 63.827,50.055 63.474 C 49.592 63.038,49.562 62.744,49.958 62.513 C 50.324 62.300,50.294 62.301,50.678 62.506 M46.125 62.847 C 45.772 63.052,45.757 63.363,46.067 64.058 C 46.196 64.347,46.412 64.927,46.548 65.347 L 46.794 66.111 45.461 65.310 C 44.394 64.668,44.066 64.542,43.814 64.677 C 43.488 64.851,43.387 65.410,43.652 65.574 C 43.735 65.626,44.226 66.303,44.742 67.078 C 45.815 68.691,45.938 68.800,46.284 68.454 C 46.509 68.229,46.462 68.093,45.845 67.184 C 45.465 66.625,45.226 66.167,45.313 66.167 C 45.401 66.167,45.497 66.223,45.528 66.292 C 45.645 66.555,47.394 67.513,47.608 67.430 C 47.905 67.316,47.892 67.119,47.504 65.842 C 47.099 64.511,47.106 64.506,48.003 65.420 C 48.708 66.138,49.204 66.345,49.412 66.007 C 49.507 65.854,49.120 65.371,47.544 63.676 C 47.156 63.258,46.838 62.860,46.836 62.792 C 46.832 62.617,46.472 62.645,46.125 62.847 M6.922 65.750 C 6.480 66.438,6.070 67.000,6.011 67.000 C 5.953 67.000,5.774 67.222,5.614 67.493 L 5.323 67.986 5.828 68.247 C 6.106 68.391,6.333 68.568,6.333 68.640 C 6.333 68.713,6.628 68.937,6.988 69.140 L 7.642 69.507 7.755 69.150 C 7.818 68.953,7.799 68.745,7.713 68.688 C 6.770 68.058,6.613 67.829,6.835 67.414 C 7.083 66.950,7.366 66.890,7.704 67.228 C 7.830 67.353,8.098 67.509,8.300 67.573 C 8.789 67.728,9.034 67.188,8.593 66.927 C 7.730 66.416,7.613 66.248,7.852 65.865 C 8.139 65.405,8.216 65.409,8.956 65.911 C 9.536 66.305,10.000 66.263,10.000 65.817 C 10.000 65.612,8.303 64.500,7.991 64.500 C 7.845 64.500,7.366 65.060,6.922 65.750 M41.167 66.351 C 39.981 67.071,39.525 68.427,40.189 69.257 C 41.665 71.099,42.808 71.266,43.889 69.798 C 45.144 68.095,42.924 65.284,41.167 66.351 M42.846 67.487 C 43.712 68.353,43.455 69.833,42.440 69.833 C 41.880 69.833,41.401 69.457,41.021 68.719 C 40.340 67.396,41.782 66.423,42.846 67.487 M11.748 67.686 C 9.681 68.691,10.308 71.637,12.690 72.113 C 13.510 72.277,13.291 71.538,12.433 71.244 C 11.200 70.822,11.027 68.846,12.197 68.540 C 12.364 68.497,12.500 68.385,12.500 68.293 C 12.500 68.016,13.533 68.306,13.954 68.702 C 14.312 69.038,14.360 69.045,14.614 68.791 C 15.372 68.033,12.951 67.100,11.748 67.686 M38.577 67.844 C 38.516 67.941,38.521 68.635,38.586 69.386 C 38.719 70.920,38.752 70.926,37.597 69.208 C 36.560 67.665,36.096 68.652,36.597 71.333 L 36.675 71.750 36.334 71.333 C 36.147 71.104,35.789 70.561,35.539 70.127 C 35.023 69.231,34.821 69.101,34.410 69.401 C 34.128 69.607,35.056 71.217,36.485 73.000 C 37.239 73.940,37.618 72.705,37.227 70.583 L 37.134 70.083 37.559 70.667 C 37.793 70.987,38.156 71.494,38.367 71.792 C 38.736 72.314,39.621 72.530,39.561 72.083 C 39.548 71.992,39.485 70.960,39.421 69.792 C 39.304 67.676,39.047 67.083,38.577 67.844 M15.402 69.085 C 13.887 69.860,13.852 72.638,15.350 73.237 C 16.575 73.727,17.398 73.397,18.081 72.141 C 19.179 70.124,17.381 68.074,15.402 69.085 M17.241 70.037 C 18.068 71.218,16.676 73.249,15.535 72.525 C 14.979 72.173,15.016 70.627,15.594 69.988 C 16.005 69.534,16.907 69.561,17.241 70.037 M19.450 70.270 C 18.913 70.983,19.074 71.749,19.874 72.286 C 21.081 73.097,20.613 74.078,19.334 73.417 C 18.886 73.185,18.764 73.175,18.647 73.359 C 18.086 74.247,20.476 74.757,21.155 73.894 C 21.699 73.203,21.598 72.715,20.738 71.879 C 20.288 71.441,20.012 71.041,20.066 70.902 C 20.169 70.633,20.928 70.582,21.083 70.833 C 21.258 71.117,21.623 71.017,21.716 70.661 C 21.929 69.848,20.017 69.518,19.450 70.270 M31.000 69.952 C 28.219 70.976,29.681 75.220,32.515 74.350 C 33.742 73.973,33.585 73.565,32.241 73.638 C 30.107 73.755,29.739 70.988,31.852 70.712 C 32.619 70.612,32.860 70.430,32.717 70.057 C 32.631 69.832,31.511 69.764,31.000 69.952 M22.832 70.364 C 22.831 70.393,22.719 71.354,22.583 72.500 C 22.447 73.646,22.336 74.645,22.335 74.720 C 22.334 74.795,22.502 74.833,22.707 74.803 C 23.125 74.744,23.271 74.300,23.329 72.917 L 23.364 72.083 23.689 73.083 C 23.867 73.633,24.046 74.228,24.086 74.404 C 24.317 75.425,24.882 75.061,25.446 73.528 L 25.917 72.250 25.960 73.250 C 26.024 74.763,26.116 75.031,26.548 74.969 C 26.870 74.923,26.914 74.822,26.894 74.167 C 26.882 73.754,26.863 72.756,26.853 71.948 L 26.833 70.479 26.306 70.531 C 25.816 70.580,25.744 70.674,25.278 71.867 C 24.822 73.034,24.500 73.389,24.500 72.724 C 24.500 72.583,24.394 72.231,24.265 71.942 C 24.136 71.653,23.961 71.192,23.877 70.917 C 23.752 70.509,22.841 70.027,22.832 70.364 M27.745 70.875 C 27.824 71.224,27.981 72.993,28.052 74.333 C 28.073 74.721,28.167 74.919,28.333 74.927 C 28.995 74.955,29.046 74.496,28.731 71.375 C 28.646 70.537,28.622 70.500,28.151 70.500 C 27.728 70.500,27.672 70.552,27.745 70.875 " stroke="none" fill="#5b5c5c" fill-rule="evenodd"></path><path id="path4" d="M223.077 24.875 C 223.033 24.990,223.017 34.083,223.040 45.083 L 223.083 65.083 223.708 65.135 L 224.333 65.187 224.333 44.927 L 224.333 24.667 223.745 24.667 C 223.421 24.667,223.121 24.760,223.077 24.875 " stroke="none" fill="#ccc4c4" fill-rule="evenodd"></path></g></svg>