<svg width="15" height="15" viewBox="0 0 15 15" fill="none" xmlns="http://www.w3.org/2000/svg">
<path d="M4.21875 11.7188H6.09375V14.0625H4.21875V11.7188Z" fill="white"/>
<path d="M11.25 7.96875C10.6284 7.96875 10.0323 8.21568 9.59272 8.65522C9.15318 9.09476 8.90625 9.6909 8.90625 10.3125C8.90625 12.3984 10.8844 13.9078 10.9687 13.9687C11.0499 14.0296 11.1486 14.0625 11.25 14.0625C11.3514 14.0625 11.4501 14.0296 11.5313 13.9687C11.6156 13.9078 13.5938 12.3984 13.5938 10.3125C13.5938 9.6909 13.3468 9.09476 12.9073 8.65522C12.4677 8.21568 11.8716 7.96875 11.25 7.96875ZM11.25 11.25C11.0014 11.25 10.7629 11.1512 10.5871 10.9754C10.4113 10.7996 10.3125 10.5611 10.3125 10.3125C10.3125 10.0639 10.4113 9.8254 10.5871 9.64959C10.7629 9.47377 11.0014 9.375 11.25 9.375C11.4986 9.375 11.7371 9.47377 11.9129 9.64959C12.0887 9.8254 12.1875 10.0639 12.1875 10.3125C12.1875 10.5611 12.0887 10.7996 11.9129 10.9754C11.7371 11.1512 11.4986 11.25 11.25 11.25Z" fill="white"/>
<path d="M8.90625 8.02031V1.875C8.90625 1.62636 8.80748 1.3879 8.63166 1.21209C8.45585 1.03627 8.21739 0.9375 7.96875 0.9375H2.34375C2.09511 0.9375 1.85665 1.03627 1.68084 1.21209C1.50502 1.3879 1.40625 1.62636 1.40625 1.875V13.5938C1.40625 13.7181 1.45564 13.8373 1.54354 13.9252C1.63145 14.0131 1.75068 14.0625 1.875 14.0625H3.28125V11.25C3.28125 11.1257 3.33064 11.0065 3.41854 10.9185C3.50645 10.8306 3.62568 10.7812 3.75 10.7812H6.5625C6.68682 10.7812 6.80605 10.8306 6.89396 10.9185C6.98186 11.0065 7.03125 11.1257 7.03125 11.25V14.0625H8.4375C8.56182 14.0625 8.68105 14.0131 8.76896 13.9252C8.85686 13.8373 8.90625 13.7181 8.90625 13.5938V13.125C8.3167 12.3038 7.98984 11.3232 7.96875 10.3125C7.96985 9.45531 8.30634 8.63259 8.90625 8.02031ZM4.21875 9.375H3.75C3.62568 9.375 3.50645 9.32561 3.41854 9.23771C3.33064 9.1498 3.28125 9.03057 3.28125 8.90625C3.28125 8.78193 3.33064 8.6627 3.41854 8.57479C3.50645 8.48689 3.62568 8.4375 3.75 8.4375H4.21875C4.34307 8.4375 4.4623 8.48689 4.55021 8.57479C4.63811 8.6627 4.6875 8.78193 4.6875 8.90625C4.6875 9.03057 4.63811 9.1498 4.55021 9.23771C4.4623 9.32561 4.34307 9.375 4.21875 9.375ZM4.21875 7.5H3.75C3.62568 7.5 3.50645 7.45061 3.41854 7.36271C3.33064 7.2748 3.28125 7.15557 3.28125 7.03125C3.28125 6.90693 3.33064 6.7877 3.41854 6.69979C3.50645 6.61189 3.62568 6.5625 3.75 6.5625H4.21875C4.34307 6.5625 4.4623 6.61189 4.55021 6.69979C4.63811 6.7877 4.6875 6.90693 4.6875 7.03125C4.6875 7.15557 4.63811 7.2748 4.55021 7.36271C4.4623 7.45061 4.34307 7.5 4.21875 7.5ZM4.21875 5.625H3.75C3.62568 5.625 3.50645 5.57561 3.41854 5.48771C3.33064 5.3998 3.28125 5.28057 3.28125 5.15625C3.28125 5.03193 3.33064 4.9127 3.41854 4.82479C3.50645 4.73689 3.62568 4.6875 3.75 4.6875H4.21875C4.34307 4.6875 4.4623 4.73689 4.55021 4.82479C4.63811 4.9127 4.6875 5.03193 4.6875 5.15625C4.6875 5.28057 4.63811 5.3998 4.55021 5.48771C4.4623 5.57561 4.34307 5.625 4.21875 5.625ZM4.21875 3.75H3.75C3.62568 3.75 3.50645 3.70061 3.41854 3.61271C3.33064 3.5248 3.28125 3.40557 3.28125 3.28125C3.28125 3.15693 3.33064 3.0377 3.41854 2.94979C3.50645 2.86189 3.62568 2.8125 3.75 2.8125H4.21875C4.34307 2.8125 4.4623 2.86189 4.55021 2.94979C4.63811 3.0377 4.6875 3.15693 4.6875 3.28125C4.6875 3.40557 4.63811 3.5248 4.55021 3.61271C4.4623 3.70061 4.34307 3.75 4.21875 3.75ZM6.5625 9.375H6.09375C5.96943 9.375 5.8502 9.32561 5.76229 9.23771C5.67439 9.1498 5.625 9.03057 5.625 8.90625C5.625 8.78193 5.67439 8.6627 5.76229 8.57479C5.8502 8.48689 5.96943 8.4375 6.09375 8.4375H6.5625C6.68682 8.4375 6.80605 8.48689 6.89396 8.57479C6.98186 8.6627 7.03125 8.78193 7.03125 8.90625C7.03125 9.03057 6.98186 9.1498 6.89396 9.23771C6.80605 9.32561 6.68682 9.375 6.5625 9.375ZM6.5625 7.5H6.09375C5.96943 7.5 5.8502 7.45061 5.76229 7.36271C5.67439 7.2748 5.625 7.15557 5.625 7.03125C5.625 6.90693 5.67439 6.7877 5.76229 6.69979C5.8502 6.61189 5.96943 6.5625 6.09375 6.5625H6.5625C6.68682 6.5625 6.80605 6.61189 6.89396 6.69979C6.98186 6.7877 7.03125 6.90693 7.03125 7.03125C7.03125 7.15557 6.98186 7.2748 6.89396 7.36271C6.80605 7.45061 6.68682 7.5 6.5625 7.5ZM6.5625 5.625H6.09375C5.96943 5.625 5.8502 5.57561 5.76229 5.48771C5.67439 5.3998 5.625 5.28057 5.625 5.15625C5.625 5.03193 5.67439 4.9127 5.76229 4.82479C5.8502 4.73689 5.96943 4.6875 6.09375 4.6875H6.5625C6.68682 4.6875 6.80605 4.73689 6.89396 4.82479C6.98186 4.9127 7.03125 5.03193 7.03125 5.15625C7.03125 5.28057 6.98186 5.3998 6.89396 5.48771C6.80605 5.57561 6.68682 5.625 6.5625 5.625ZM6.5625 3.75H6.09375C5.96943 3.75 5.8502 3.70061 5.76229 3.61271C5.67439 3.5248 5.625 3.40557 5.625 3.28125C5.625 3.15693 5.67439 3.0377 5.76229 2.94979C5.8502 2.86189 5.96943 2.8125 6.09375 2.8125H6.5625C6.68682 2.8125 6.80605 2.86189 6.89396 2.94979C6.98186 3.0377 7.03125 3.15693 7.03125 3.28125C7.03125 3.40557 6.98186 3.5248 6.89396 3.61271C6.80605 3.70061 6.68682 3.75 6.5625 3.75Z" fill="white"/>
</svg>
