<svg width="18" height="18" viewBox="0 0 18 18" fill="none" xmlns="http://www.w3.org/2000/svg">
<g clip-path="url(#clip0_20_7)">
<path fill-rule="evenodd" clip-rule="evenodd" d="M5.94728 17.8632C5.88401 17.8632 5.83128 17.8316 5.7891 17.7894L3.74341 15.5328L1.15993 13.9089C1.09666 13.8668 1.06503 13.8035 1.06503 13.7402L0.949033 10.6928L0.0105448 7.78239C-0.0105448 7.71912 0 7.64531 0.0421793 7.59259L1.91916 5.17782L3.06854 2.35181C3.10018 2.28854 3.1529 2.24637 3.21617 2.22528L6.20035 1.58204L8.89983 0.158491C8.96309 0.126857 9.03691 0.126857 9.10018 0.158491L11.7996 1.58204L14.7733 2.22528C14.8471 2.24637 14.8998 2.28854 14.9315 2.35181L16.0808 5.17782L17.9473 7.59259C17.9895 7.64531 18.0105 7.71912 17.9895 7.78239L17.051 10.6822L16.935 13.7297C16.935 13.8035 16.8928 13.8668 16.8401 13.9089L14.2566 15.5328L12.2109 17.7894C12.1582 17.8421 12.0949 17.8632 12.0211 17.8527L8.99473 17.4414L5.94728 17.8632Z" fill="#F7CC3F"/>
<path fill-rule="evenodd" clip-rule="evenodd" d="M8.99473 15.4482C5.63093 15.4482 2.88928 12.7171 2.88928 9.34275C2.88928 5.97896 5.63093 3.2373 8.99473 3.2373C12.3691 3.2373 15.1002 5.97896 15.1002 9.34275C15.1002 12.7171 12.3691 15.4482 8.99473 15.4482Z" fill="#FFAC07"/>
<path fill-rule="evenodd" clip-rule="evenodd" d="M7.95079 11.8633C7.89807 11.8633 7.84534 11.8422 7.80316 11.8L5.47276 9.48014C4.7768 8.77363 5.84183 7.74024 6.52724 8.42566L7.95079 9.85975L11.4728 6.34833C12.1582 5.65237 13.2021 6.70685 12.5167 7.39226L8.09842 11.8C8.06678 11.8422 8.01406 11.8633 7.95079 11.8633Z" fill="white"/>
</g>
<defs>
<clipPath id="clip0_20_7">
<rect width="18" height="18" fill="white"/>
</clipPath>
</defs>
</svg>
