<svg width="16" height="16" viewBox="0 0 16 16" fill="none" xmlns="http://www.w3.org/2000/svg">
<g clip-path="url(#clip0_265_2)">
<path d="M0.29297 0.292959C0.480497 0.105488 0.734805 0.000172654 0.99997 0.000172654C1.26513 0.000172654 1.51944 0.105488 1.70697 0.292959L7.99997 6.58596L14.293 0.292959C14.3852 0.197449 14.4956 0.121267 14.6176 0.0688577C14.7396 0.0164487 14.8708 -0.0111375 15.0036 -0.0122913C15.1363 -0.0134452 15.268 0.0118565 15.3909 0.0621374C15.5138 0.112418 15.6255 0.186671 15.7194 0.280564C15.8133 0.374457 15.8875 0.486109 15.9378 0.609005C15.9881 0.731901 16.0134 0.863581 16.0122 0.99636C16.0111 1.12914 15.9835 1.26036 15.9311 1.38236C15.8787 1.50437 15.8025 1.61471 15.707 1.70696L9.41397 7.99996L15.707 14.293C15.8891 14.4816 15.9899 14.7342 15.9876 14.9964C15.9854 15.2586 15.8802 15.5094 15.6948 15.6948C15.5094 15.8802 15.2586 15.9854 14.9964 15.9876C14.7342 15.9899 14.4816 15.8891 14.293 15.707L7.99997 9.41396L1.70697 15.707C1.51837 15.8891 1.26577 15.9899 1.00357 15.9876C0.741372 15.9854 0.490559 15.8802 0.305151 15.6948C0.119743 15.5094 0.0145739 15.2586 0.0122955 14.9964C0.0100171 14.7342 0.110812 14.4816 0.29297 14.293L6.58597 7.99996L0.29297 1.70696C0.105499 1.51943 0.000183105 1.26512 0.000183105 0.999959C0.000183105 0.734795 0.105499 0.480487 0.29297 0.292959Z" fill="white"/>
</g>
<defs>
<clipPath id="clip0_265_2">
<rect width="16" height="16" fill="white"/>
</clipPath>
</defs>
</svg>
