<svg width="15" height="15" viewBox="0 0 15 15" fill="none" xmlns="http://www.w3.org/2000/svg">
<g clip-path="url(#clip0_1_167)">
<path d="M7.49998 3.125C8.3631 3.125 9.06248 3.82437 9.06248 4.6875C9.06248 5.55062 8.3631 6.25 7.49998 6.25C6.63685 6.25 5.93748 5.55062 5.93748 4.6875C5.93748 3.82437 6.63685 3.125 7.49998 3.125ZM9.99998 8.75V10.625C9.99998 11.1769 9.7556 11.6687 9.37498 12.0125V14.375C9.37498 14.7206 9.09498 15 8.74998 15C8.40498 15 8.12498 14.7206 8.12498 14.375V12.5H6.87498V14.375C6.87498 14.7206 6.59498 15 6.24998 15C5.90498 15 5.62498 14.7206 5.62498 14.375V12.0125C5.24435 11.6694 4.99998 11.1769 4.99998 10.625V8.75C4.99998 7.71625 5.84123 6.875 6.87498 6.875H8.12498C9.15873 6.875 9.99998 7.71625 9.99998 8.75ZM11.875 3.125C12.7381 3.125 13.4375 2.42563 13.4375 1.5625C13.4375 0.699375 12.7381 0 11.875 0C11.0119 0 10.3125 0.699375 10.3125 1.5625C10.3125 2.42563 11.0119 3.125 11.875 3.125ZM14.9856 10.3925L14.4381 6.01313C14.2775 4.72313 13.1756 3.75 11.875 3.75C11.2725 3.75 10.7181 3.965 10.275 4.3175C10.2912 4.44 10.3125 4.56063 10.3125 4.6875C10.3125 5.23187 10.15 5.73688 9.88123 6.1675C10.7062 6.73063 11.25 7.6775 11.25 8.75V10.625C11.25 11.2981 11.0269 11.9519 10.625 12.4881V12.5H12.5V14.375C12.5 14.72 12.7794 15 13.125 15C13.4706 15 13.75 14.72 13.75 14.375V12.3825C14.0462 12.2769 14.3181 12.1069 14.5306 11.8663C14.8862 11.4631 15.0519 10.9256 14.9856 10.3925ZM4.68748 1.5625C4.68748 0.699375 3.98748 0 3.12498 0C2.26248 0 1.56248 0.699375 1.56248 1.5625C1.56248 2.42563 2.26185 3.125 3.12498 3.125C3.9881 3.125 4.68748 2.42563 4.68748 1.5625ZM0.469355 11.8656C0.681855 12.1063 0.95373 12.2769 1.24998 12.3819V14.3744C1.24998 14.7194 1.52935 14.9994 1.87498 14.9994C2.2206 14.9994 2.49998 14.7194 2.49998 14.3744V12.4994H4.37498V12.4875C3.9731 11.9513 3.74998 11.2975 3.74998 10.6244V8.74937C3.74998 7.67687 4.29373 6.73 5.11873 6.16687C4.84998 5.73562 4.68748 5.23125 4.68748 4.68687C4.68748 4.56 4.70873 4.43937 4.72498 4.31687C4.28185 3.965 3.72748 3.74938 3.12498 3.74938C1.82435 3.74938 0.72248 4.7225 0.561855 6.0125L0.0143546 10.3925C-0.0518954 10.9263 0.113105 11.4625 0.469355 11.8656Z" fill="white"/>
</g>
<defs>
<clipPath id="clip0_1_167">
<rect width="15" height="15" fill="white"/>
</clipPath>
</defs>
</svg>
