<svg xmlns="http://www.w3.org/2000/svg" width="801" height="156" viewBox="0 0 801 156" fill="none"><path d="M429.4 14.1H427.7V120.7H429.4V14.1Z" fill="#C7C4C3"></path><path d="M545.8 48.7H596.5V62H561.7V78.7H591.9V91H561.7V120.8H545.8V48.7Z" fill="#EF4266"></path><path d="M515.6 120.8H497.7L474.3 48.7H490.7L506.7 99.4H506.9L523.2 48.7H539.5L515.6 120.8Z" fill="#EF4266"></path><path d="M795.7 151.4L796.2 149.2H798.4L797.9 151.4H795.7ZM789.6 151.4L790.1 149.2H792.3L791.8 151.4H789.6ZM783.6 151.4L784.1 149.2H786.3L785.8 151.4H783.6ZM773.7 144.7H780C780 144.5 780 144.4 780 144.3C780 143.3 779.8 142.6 779.3 142.1C778.8 141.6 778.2 141.3 777.4 141.3C776.6 141.3 775.8 141.6 775.1 142.1C774.4 142.7 773.9 143.5 773.6 144.6M779.3 147.6L781.2 147.8C780.9 148.7 780.3 149.6 779.3 150.4C778.3 151.2 777.2 151.6 775.8 151.6C774.4 151.6 774.2 151.4 773.5 151C772.8 150.6 772.3 150.1 771.9 149.3C771.5 148.6 771.4 147.7 771.4 146.8C771.4 145.9 771.7 144.4 772.2 143.2C772.8 142 773.5 141.2 774.4 140.6C775.3 140 776.3 139.8 777.3 139.8C778.3 139.8 779.7 140.2 780.5 141C781.3 141.8 781.7 143 781.7 144.4C781.7 145.8 781.7 145.5 781.6 146.1H773.3C773.3 146.3 773.3 146.5 773.3 146.7C773.3 147.8 773.5 148.6 774 149.1C774.5 149.7 775.1 149.9 775.8 149.9C776.5 149.9 777.1 149.7 777.7 149.3C778.3 148.9 778.8 148.3 779.2 147.4M767.9 147.3L769.8 147.5C769.3 148.9 768.6 149.9 767.7 150.6C766.8 151.3 765.8 151.6 764.7 151.6C763.6 151.6 762.5 151.2 761.7 150.4C760.9 149.6 760.6 148.5 760.6 147.1C760.6 145.7 760.8 144.7 761.3 143.5C761.8 142.3 762.5 141.4 763.4 140.8C764.3 140.2 765.3 139.9 766.5 139.9C767.7 139.9 768.7 140.2 769.4 140.9C770.1 141.6 770.5 142.5 770.5 143.6H768.6C768.6 143 768.4 142.5 768 142.1C767.6 141.7 767.1 141.5 766.4 141.5C765.7 141.5 765 141.7 764.4 142.2C763.8 142.7 763.4 143.4 763.1 144.4C762.8 145.4 762.6 146.3 762.6 147.3C762.6 148.3 762.8 149 763.2 149.5C763.6 150 764.1 150.2 764.8 150.2C765.5 150.2 766 150 766.6 149.5C767.2 149 767.6 148.3 767.9 147.3ZM756.4 145.7C756.1 145.8 755.8 145.9 755.5 145.9C755.2 145.9 754.7 146 754 146.1C752.9 146.1 752.1 146.3 751.6 146.5C751.1 146.6 750.8 146.9 750.6 147.2C750.4 147.5 750.3 147.9 750.3 148.3C750.3 148.7 750.5 149.3 750.9 149.6C751.3 149.9 751.8 150.1 752.5 150.1C753.2 150.1 753.7 149.9 754.3 149.6C754.9 149.3 755.4 148.8 755.7 148.2C756 147.6 756.3 146.7 756.5 145.6M755.7 150C755 150.6 754.4 151 753.8 151.2C753.2 151.5 752.5 151.6 751.8 151.6C750.8 151.6 749.9 151.3 749.3 150.7C748.7 150.1 748.4 149.3 748.4 148.4C748.4 147.5 748.5 147.2 748.8 146.7C749.1 146.2 749.5 145.8 749.9 145.5C750.4 145.2 750.9 145 751.6 144.9C752 144.9 752.8 144.7 754.1 144.7C755.3 144.7 756.2 144.5 756.7 144.3C756.8 143.8 756.9 143.3 756.9 143C756.9 142.7 756.7 142.2 756.4 142C756 141.7 755.3 141.5 754.4 141.5C753.5 141.5 752.9 141.7 752.4 142C751.9 142.4 751.5 142.9 751.3 143.5L749.4 143.3C749.8 142.2 750.4 141.3 751.3 140.7C752.2 140.1 753.2 139.8 754.5 139.8C755.8 139.8 757 140.1 757.8 140.8C758.4 141.3 758.7 141.9 758.7 142.7C758.7 143.5 758.7 144 758.4 144.8L757.8 147.6C757.6 148.5 757.5 149.2 757.5 149.8C757.5 150.4 757.5 150.7 757.7 151.3H755.8C755.7 150.9 755.6 150.5 755.6 149.9M740.9 151.4L743.2 140.1H744.9L744.4 142.4C745 141.5 745.6 140.9 746.1 140.5C746.7 140.1 747.2 139.9 747.8 139.9C748.4 139.9 748.7 140 749.2 140.3L748.4 142.1C748.1 141.9 747.7 141.7 747.3 141.7C746.6 141.7 745.9 142.1 745.2 142.8C744.5 143.5 743.9 144.9 743.5 146.8L742.6 151.3H740.8L740.9 151.4ZM731.1 146.4C731.1 147.2 731.1 147.7 731.3 148.1C731.5 148.6 731.8 149.1 732.2 149.3C732.6 149.6 733 149.7 733.5 149.7C734 149.7 734.8 149.5 735.4 149C736 148.6 736.5 147.9 736.9 147C737.3 146.1 737.5 145.2 737.5 144.3C737.5 143.4 737.2 142.6 736.7 142.1C736.2 141.6 735.6 141.3 734.8 141.3C734 141.3 733.9 141.4 733.4 141.7C733 141.9 732.6 142.3 732.2 142.8C731.8 143.3 731.5 143.9 731.3 144.6C731.1 145.3 731 145.9 731 146.2M728.7 152.4L730.7 152.6C730.7 153 730.7 153.4 730.9 153.6C731 153.8 731.2 154 731.5 154.1C731.8 154.3 732.3 154.3 732.8 154.3C734 154.3 734.8 154 735.3 153.4C735.6 153 735.9 152.1 736.2 150.8L736.4 149.9C735.4 150.9 734.3 151.4 733.2 151.4C732.1 151.4 731.1 151 730.4 150.1C729.6 149.3 729.3 148.1 729.3 146.5C729.3 144.9 729.6 144.1 730.2 143C730.8 141.9 731.5 141.1 732.4 140.6C733.2 140.1 734.1 139.8 735 139.8C736.5 139.8 737.6 140.5 738.4 141.9L738.8 140.1H740.6L738.3 151C738.1 152.2 737.7 153.1 737.3 153.8C736.9 154.5 736.3 155 735.6 155.3C734.9 155.7 734.1 155.9 733.1 155.9C732.1 155.9 731.4 155.8 730.8 155.5C730.1 155.3 729.7 154.9 729.3 154.5C729 154 728.8 153.5 728.8 153C728.8 152.5 728.8 152.6 728.8 152.4M709.1 146.4L711.1 146.2V146.7C711.1 147.3 711.2 147.8 711.5 148.3C711.8 148.8 712.2 149.2 712.9 149.5C713.5 149.8 714.3 149.9 715.2 149.9C716.4 149.9 717.4 149.6 718 149.1C718.6 148.6 719 147.9 719 147.2C719 146.5 718.8 146.3 718.5 145.9C718.1 145.5 717.2 145 715.6 144.3C714.4 143.8 713.6 143.4 713.1 143.1C712.4 142.6 711.9 142.1 711.6 141.6C711.3 141.1 711.1 140.4 711.1 139.8C711.1 139.2 711.3 138.3 711.8 137.6C712.2 137 712.9 136.5 713.7 136.1C714.5 135.8 715.5 135.6 716.6 135.6C717.7 135.6 718.9 135.8 719.8 136.2C720.7 136.6 721.3 137.2 721.7 137.9C722.1 138.6 722.3 139.3 722.3 139.9V140.2L720.3 140.4C720.3 140 720.3 139.6 720.2 139.4C720.1 139 719.8 138.6 719.6 138.3C719.3 138 718.9 137.8 718.4 137.6C717.9 137.4 717.3 137.3 716.7 137.3C715.6 137.3 714.7 137.6 714.1 138.1C713.6 138.5 713.4 139 713.4 139.6C713.4 140.2 713.4 140.3 713.7 140.6C713.9 140.9 714.3 141.2 714.8 141.5C715.2 141.7 716 142.1 717.4 142.7C718.5 143.2 719.3 143.6 719.7 143.9C720.3 144.3 720.7 144.7 721 145.3C721.3 145.8 721.5 146.4 721.5 147.1C721.5 147.8 721.2 148.7 720.7 149.4C720.2 150.1 719.5 150.7 718.6 151C717.7 151.4 716.7 151.6 715.5 151.6C713.7 151.6 712.3 151.2 711.2 150.5C710.1 149.7 709.5 148.4 709.5 146.4M702.8 151.4L706.1 135.9H708.2L704.9 151.4H702.8ZM686.8 151.4L690.1 135.9H692.2L690.8 142.4H698.9L700.3 135.9H702.4L699.1 151.4H697L698.5 144.1H690.4L688.9 151.4H686.8ZM675.1 151.4L675.6 149.2H677.8L677.3 151.4H675.1ZM669.1 151.4L669.6 149.2H671.8L671.3 151.4H669.1ZM663 151.4L663.5 149.2H665.7L665.2 151.4H663ZM651.8 147.5H653.7C653.7 147.9 653.7 148.4 654 148.8C654.2 149.2 654.5 149.5 654.9 149.7C655.4 150 655.9 150.1 656.5 150.1C657.1 150.1 658 149.9 658.4 149.6C658.8 149.3 659 148.9 659 148.4C659 147.9 658.9 147.8 658.6 147.5C658.3 147.2 657.7 146.8 656.7 146.4C655.7 146 655 145.7 654.8 145.5C654.3 145.2 654 144.9 653.7 144.5C653.5 144.1 653.3 143.7 653.3 143.1C653.3 142.2 653.6 141.5 654.4 140.8C655.1 140.2 656.1 139.8 657.4 139.8C658.7 139.8 659.9 140.1 660.6 140.8C661.3 141.5 661.7 142.3 661.7 143.4H659.8C659.8 142.9 659.5 142.3 659.1 141.9C658.7 141.5 658 141.3 657.2 141.3C656.4 141.3 656 141.5 655.7 141.8C655.3 142.1 655.2 142.4 655.2 142.8C655.2 143.2 655.4 143.5 655.7 143.7C655.9 143.9 656.5 144.2 657.3 144.5C658.8 145.1 659.7 145.6 660.1 146C660.7 146.6 661 147.3 661 148.1C661 148.9 660.8 149.2 660.5 149.7C660.2 150.2 659.6 150.7 658.9 151C658.2 151.3 657.4 151.5 656.4 151.5C655.4 151.5 654 151.2 653.1 150.5C652.2 149.9 651.8 148.8 651.8 147.4M650.1 149.8L649.8 151.4C649.3 151.5 648.9 151.6 648.5 151.6C647.7 151.6 647.1 151.4 646.7 151C646.4 150.7 646.2 150.3 646.2 149.8C646.2 149.3 646.2 149 646.5 148.1L647.9 141.5H646.4L646.7 140H648.2L648.8 137.2L651 135.9L650.1 140H652L651.7 141.5H649.8L648.5 147.7C648.3 148.5 648.3 149 648.3 149.1C648.3 149.3 648.3 149.5 648.5 149.6C648.6 149.7 648.8 149.8 649.1 149.8C649.5 149.8 649.9 149.8 650.2 149.7M638.4 151.4L640.7 140.1H642.4L641.9 142.4C642.5 141.5 643.1 140.9 643.6 140.5C644.2 140.1 644.7 139.9 645.3 139.9C645.9 139.9 646.1 140 646.7 140.3L645.9 142.1C645.6 141.9 645.2 141.7 644.8 141.7C644.1 141.7 643.4 142.1 642.7 142.8C642 143.5 641.4 144.9 641 146.8L640.1 151.3H638.3L638.4 151.4ZM628.6 146.9C628.6 148 628.9 148.8 629.4 149.3C629.9 149.8 630.6 150.1 631.3 150.1C632 150.1 632.1 150.1 632.5 149.8C632.9 149.6 633.3 149.4 633.6 149C634 148.7 634.3 148.3 634.5 147.8C634.7 147.4 634.9 146.9 635.1 146.4C635.3 145.7 635.4 145 635.4 144.4C635.4 143.4 635.1 142.6 634.6 142C634.1 141.4 633.4 141.2 632.7 141.2C632 141.2 631.5 141.3 631.1 141.6C630.6 141.9 630.1 142.3 629.7 142.8C629.3 143.4 629 144 628.8 144.7C628.6 145.4 628.5 146.1 628.5 146.7M626.7 147.1C626.7 144.9 627.3 143.1 628.6 141.7C629.7 140.5 631.1 139.9 632.8 139.9C634.5 139.9 635.2 140.3 636.1 141.2C636.9 142 637.3 143.2 637.3 144.6C637.3 146 637 147.1 636.5 148.2C636 149.3 635.2 150.2 634.3 150.8C633.3 151.4 632.3 151.7 631.3 151.7C630.3 151.7 629.6 151.5 628.9 151.1C628.2 150.7 627.6 150.2 627.3 149.5C626.9 148.8 626.7 148 626.7 147.1ZM620.5 151.4L622.6 141.6H620.9L621.2 140.1H622.9L623.2 138.5C623.4 137.7 623.5 137.1 623.7 136.8C623.9 136.5 624.2 136.2 624.6 135.9C625 135.7 625.6 135.6 626.3 135.6C627 135.6 627.5 135.6 628.4 135.9L628 137.6C627.4 137.4 626.8 137.4 626.4 137.4C626 137.4 625.7 137.4 625.5 137.7C625.3 137.9 625.1 138.3 625 139L624.7 140.2H626.9L626.6 141.7H624.4L622.3 151.5H620.4L620.5 151.4ZM614.5 151.4L616.6 141.6H614.9L615.2 140.1H616.9L617.2 138.5C617.4 137.7 617.5 137.1 617.7 136.8C617.9 136.5 618.2 136.2 618.6 135.9C619 135.7 619.6 135.6 620.3 135.6C621 135.6 621.5 135.6 622.4 135.9L622.1 137.6C621.4 137.4 620.9 137.4 620.5 137.4C620.1 137.4 619.8 137.4 619.6 137.7C619.4 137.9 619.2 138.3 619.1 139L618.8 140.2H621L620.7 141.7H618.5L616.4 151.5H614.5V151.4ZM604.9 144.7H611.2C611.2 144.5 611.2 144.4 611.2 144.3C611.2 143.3 611 142.6 610.5 142.1C610 141.6 609.4 141.3 608.6 141.3C607.8 141.3 607 141.6 606.4 142.1C605.7 142.7 605.2 143.5 604.9 144.6M610.5 147.6L612.4 147.8C612.1 148.7 611.5 149.6 610.5 150.4C609.5 151.2 608.4 151.6 607 151.6C605.6 151.6 605.4 151.4 604.7 151C604 150.6 603.5 150.1 603.1 149.3C602.7 148.6 602.6 147.7 602.6 146.8C602.6 145.9 602.9 144.4 603.5 143.2C604.1 142 604.8 141.2 605.7 140.6C606.6 140 607.6 139.8 608.6 139.8C609.6 139.8 611 140.2 611.8 141C612.6 141.8 613 143 613 144.4C613 145.8 613 145.5 612.9 146.1H604.6C604.6 146.3 604.6 146.5 604.6 146.7C604.6 147.8 604.8 148.6 605.3 149.1C605.8 149.7 606.4 149.9 607.1 149.9C607.8 149.9 608.4 149.7 609 149.3C609.6 148.9 610.1 148.3 610.5 147.4M589 151.4L591.3 140.1H593L592.5 142.4C593.1 141.5 593.7 140.9 594.2 140.5C594.8 140.1 595.3 139.9 595.9 139.9C596.5 139.9 596.7 140 597.3 140.3L596.5 142.1C596.2 141.9 595.8 141.7 595.4 141.7C594.7 141.7 594 142.1 593.3 142.8C592.6 143.5 592 144.9 591.6 146.8L590.7 151.3H588.9L589 151.4ZM584.6 149.4C583.3 150.9 581.9 151.7 580.4 151.7C578.9 151.7 578.8 151.5 578.3 151C577.8 150.5 577.5 149.9 577.5 149.2C577.5 148.5 577.6 147.9 577.9 146.8L579.4 140.3H581.3L579.7 147.6C579.6 148.2 579.5 148.7 579.5 149C579.5 149.3 579.6 149.7 579.9 149.9C580.2 150.1 580.5 150.2 581.1 150.2C581.7 150.2 582.2 150.1 582.7 149.8C583.2 149.5 583.7 149.2 584 148.7C584.4 148.3 584.7 147.7 584.9 147.1C585.1 146.7 585.2 146 585.4 145.1L586.5 140.2H588.4L585.9 151.5H584.1L584.5 149.5L584.6 149.4ZM567.1 146.9C567.1 148 567.4 148.8 567.9 149.3C568.4 149.8 569.1 150.1 569.8 150.1C570.5 150.1 570.6 150.1 571 149.8C571.4 149.6 571.8 149.4 572.1 149C572.5 148.7 572.7 148.3 573 147.8C573.2 147.4 573.4 146.9 573.6 146.4C573.8 145.7 573.9 145 573.9 144.4C573.9 143.4 573.6 142.6 573.1 142C572.6 141.4 571.9 141.2 571.2 141.2C570.5 141.2 570.1 141.3 569.6 141.6C569.1 141.9 568.6 142.3 568.3 142.8C567.9 143.4 567.6 144 567.4 144.7C567.2 145.4 567.1 146.1 567.1 146.7M565.2 147.1C565.2 144.9 565.8 143.1 567.1 141.7C568.2 140.5 569.6 139.9 571.3 139.9C573 139.9 573.7 140.3 574.6 141.2C575.4 142 575.8 143.2 575.8 144.6C575.8 146 575.5 147.1 575 148.2C574.5 149.3 573.7 150.2 572.8 150.8C571.8 151.4 570.8 151.7 569.8 151.7C568.8 151.7 568.1 151.5 567.4 151.1C566.7 150.7 566.1 150.2 565.8 149.5C565.4 148.8 565.2 148 565.2 147.1ZM553.3 151.4L553.8 149.2H556L555.5 151.4H553.3ZM547.3 151.4L547.8 149.2H550L549.5 151.4H547.3ZM541.3 151.4L541.8 149.2H544L543.5 151.4H541.3ZM528.7 151.4L532 135.9H533.9L532.7 141.9C533.4 141.2 534.1 140.7 534.7 140.4C535.3 140.1 535.9 140 536.6 140C537.5 140 538.2 140.2 538.7 140.7C539.2 141.2 539.5 141.8 539.5 142.6C539.5 143.4 539.4 143.7 539.1 144.8L537.6 151.4H535.7L537.2 144.6C537.4 143.6 537.5 143 537.5 142.7C537.5 142.3 537.4 142 537.1 141.8C536.9 141.6 536.5 141.5 536 141.5C535.3 141.5 534.7 141.7 534.1 142C533.5 142.4 533 142.9 532.7 143.5C532.4 144.1 532 145.1 531.7 146.6L530.7 151.4H528.8H528.7ZM527.1 149.8L526.8 151.4C526.3 151.5 525.9 151.6 525.5 151.6C524.7 151.6 524.1 151.4 523.7 151C523.4 150.7 523.2 150.3 523.2 149.8C523.2 149.3 523.2 149 523.5 148.1L524.9 141.5H523.4L523.7 140H525.2L525.8 137.2L528 135.9L527.1 140H529L528.7 141.5H526.8L525.5 147.7C525.3 148.5 525.3 149 525.3 149.1C525.3 149.3 525.3 149.5 525.5 149.6C525.6 149.7 525.8 149.8 526.1 149.8C526.5 149.8 526.9 149.8 527.2 149.7M517.8 151.4L520.2 140.1H522.1L519.7 151.4H517.8ZM520.6 138L521.1 135.8H523L522.5 138H520.6ZM514 145.7C513.7 145.8 513.4 145.9 513.1 145.9C512.8 145.9 512.3 146 511.6 146.1C510.5 146.1 509.7 146.3 509.2 146.5C508.7 146.6 508.4 146.9 508.2 147.2C508 147.5 507.8 147.9 507.8 148.3C507.8 148.7 508 149.3 508.4 149.6C508.8 149.9 509.3 150.1 510 150.1C510.7 150.1 511.3 149.9 511.8 149.6C512.4 149.3 512.8 148.8 513.2 148.2C513.5 147.6 513.8 146.7 514 145.6M513.3 150C512.6 150.6 512 151 511.4 151.2C510.8 151.5 510.1 151.6 509.4 151.6C508.4 151.6 507.5 151.3 506.9 150.7C506.3 150.1 505.9 149.3 505.9 148.4C505.9 147.5 506 147.2 506.3 146.7C506.6 146.2 507 145.8 507.4 145.5C507.9 145.2 508.5 145 509.1 144.9C509.5 144.9 510.4 144.7 511.6 144.7C512.8 144.7 513.7 144.5 514.2 144.3C514.3 143.8 514.4 143.3 514.4 143C514.4 142.7 514.2 142.2 513.9 142C513.5 141.7 512.8 141.5 511.9 141.5C511 141.5 510.4 141.7 509.9 142C509.4 142.4 509 142.9 508.8 143.5L506.9 143.3C507.3 142.2 507.9 141.3 508.8 140.7C509.7 140.1 510.7 139.8 512 139.8C513.3 139.8 514.5 140.1 515.3 140.8C515.9 141.3 516.2 141.9 516.2 142.7C516.2 143.5 516.2 144 515.9 144.8L515.3 147.6C515.1 148.5 515 149.2 515 149.8C515 150.4 515 150.7 515.2 151.3H513.3C513.2 150.9 513.1 150.5 513.1 149.9M499.9 151.4L502 141.6H500.3L500.6 140.1H502.3L502.6 138.5C502.8 137.7 502.9 137.1 503.1 136.8C503.3 136.5 503.6 136.2 504 135.9C504.4 135.7 505 135.6 505.7 135.6C506.4 135.6 506.9 135.6 507.8 135.9L507.4 137.6C506.8 137.4 506.2 137.4 505.8 137.4C505.4 137.4 505.1 137.4 504.9 137.7C504.7 137.9 504.5 138.3 504.4 139L504.2 140.2H506.4L506.1 141.7H503.9L501.8 151.5H499.9V151.4ZM486.5 151.4L488.8 140.1H490.5L490 142.4C490.6 141.5 491.2 140.9 491.7 140.5C492.3 140.1 492.8 139.9 493.4 139.9C494 139.9 494.3 140 494.8 140.3L494 142.1C493.7 141.9 493.3 141.7 492.9 141.7C492.2 141.7 491.5 142.1 490.8 142.8C490.1 143.5 489.5 144.9 489.1 146.8L488.2 151.3H486.4L486.5 151.4ZM482.1 149.4C480.8 150.9 479.4 151.7 478 151.7C476.6 151.7 476.4 151.5 475.9 151C475.4 150.5 475.1 149.9 475.1 149.2C475.1 148.5 475.2 147.9 475.5 146.8L477 140.3H478.9L477.3 147.6C477.2 148.2 477.1 148.7 477.1 149C477.1 149.3 477.2 149.7 477.5 149.9C477.8 150.1 478.2 150.2 478.7 150.2C479.2 150.2 479.8 150.1 480.3 149.8C480.8 149.5 481.3 149.2 481.6 148.7C482 148.3 482.3 147.7 482.5 147.1C482.7 146.7 482.8 146 483 145.1L484.1 140.2H486L483.5 151.5H481.7L482.1 149.5V149.4ZM464.6 146.9C464.6 148 464.9 148.8 465.4 149.3C465.9 149.8 466.6 150.1 467.3 150.1C468 150.1 468.1 150.1 468.5 149.8C468.9 149.6 469.3 149.4 469.6 149C470 148.7 470.2 148.3 470.5 147.8C470.7 147.4 470.9 146.9 471.1 146.4C471.3 145.7 471.4 145 471.4 144.4C471.4 143.4 471.1 142.6 470.6 142C470.1 141.4 469.4 141.2 468.7 141.2C468 141.2 467.5 141.3 467.1 141.6C466.6 141.9 466.1 142.3 465.8 142.8C465.4 143.4 465.1 144 464.9 144.7C464.7 145.4 464.6 146.1 464.6 146.7M462.7 147.1C462.7 144.9 463.3 143.1 464.6 141.7C465.7 140.5 467.1 139.9 468.8 139.9C470.5 139.9 471.2 140.3 472.1 141.2C472.9 142 473.3 143.2 473.3 144.6C473.3 146 473 147.1 472.5 148.2C472 149.3 471.2 150.2 470.3 150.8C469.3 151.4 468.3 151.7 467.3 151.7C466.3 151.7 465.6 151.5 464.9 151.1C464.2 150.7 463.6 150.2 463.3 149.5C462.9 148.8 462.7 148 462.7 147.1ZM450.8 155.7V153.9C451.3 154 451.7 154.1 452.1 154.1C452.5 154.1 452.8 154.1 453 153.8C453.3 153.6 453.7 153.1 454 152.5L454.6 151.4L452.7 140.1H454.6L455.4 145.8C455.6 146.9 455.7 148 455.8 149.2L460.8 140.2H462.8L455.6 152.9C454.9 154.1 454.3 155 453.8 155.4C453.3 155.8 452.6 156 451.9 156C451.2 156 451 156 450.6 155.8" fill="#353635"></path><path d="M641 90.6C639.8 80.1 631.3 74.2 621.4 74.2C611.5 74.2 599 84.7 599 98.2C599 111.7 607.3 121.8 621.4 121.8C635.5 121.8 640.4 114.6 641.4 103.2H631.7C630.9 109.3 627.5 113.4 621.4 113.4C612.4 113.4 609 105.8 609 98.2C609 90.6 612.4 82.6 621.4 82.6C630.4 82.6 630.6 86 631.3 90.6H641Z" fill="#B479A4"></path><path d="M678.5 106.5C679.2 96.4 673.7 87 662.5 87C651.3 87 645.7 94.5 645.7 104.4C645.7 114.3 652.1 121.7 662.5 121.7C672.9 121.7 675.4 118.5 677.9 110.6H669.9C669.3 112.6 666.4 114.9 662.8 114.9C659.2 114.9 655 112.3 654.7 106.5H678.5ZM654.7 100.8C654.9 98.2 656.4 93.8 662.2 93.8C668 93.8 668.6 96.2 669.4 100.8H654.7Z" fill="#B479A4"></path><path d="M683.9 120.7H692.9V103.4C692.9 96.7 695 94 699.9 94C704.8 94 705.7 96.7001 705.7 102.1V120.7H714.7V100.4C714.7 92.2 712.3 86.8 702.7 86.8C693.1 86.8 694.9 88.5 692.6 92.3H692.4V87.7H683.8V120.6L683.9 120.7Z" fill="#B479A4"></path><path d="M733.1 77.9H724.1V87.8H718.6V93.8H724.1V113.2C724.1 119.8 728.9 121 734.5 121C740.1 121 738.3 121 739.8 120.7V113.6C739 113.8 738 113.9 737 113.9C733.9 113.9 733.2 113.1 733.2 110.1V93.8H739.8V87.8H733.2V77.9H733.1Z" fill="#B479A4"></path><path d="M744.1 120.7H753.1V105.9C753.1 100 755.3 95.3 762 95.3C768.7 95.3 764.4 95.4 765.2 95.6V87.2C764.6 87 763.9 86.9 763.2 86.9C758.7 86.9 754.4 89.8 752.7 93.9H752.6V87.8H744V120.7H744.1Z" fill="#B479A4"></path><path d="M800.1 106.5C800.8 96.4 795.3 87 784.1 87C772.9 87 767.3 94.5 767.3 104.4C767.3 114.3 773.7 121.7 784.1 121.7C794.5 121.7 797 118.5 799.5 110.6H791.5C790.9 112.6 788 114.9 784.4 114.9C780.8 114.9 776.6 112.3 776.3 106.5H800.1ZM776.3 100.8C776.5 98.2 778 93.8 783.8 93.8C789.6 93.8 790.2 96.2 791 100.8H776.3Z" fill="#B479A4"></path><path d="M460.2 22.7C454 22.7 449 27.7 449 33.9C449 40.1 452.7 43.6 457.6 44.8C457.8 43.1 458.2 42 458.2 42C458.2 42 458.5 40.4 458.8 38.6C459.1 36.8 457.8 36.1 457.8 36.1C456.9 34.6 455.9 32.7 457.8 29.1C459.7 25.6 461.9 29.8 461.9 29.8C461.9 29.8 463 31.5 463.3 31.9C463.6 32.3 464.3 35.1 463.3 36.2C462.4 37.3 462.2 38.3 462.2 38.3C462.2 38.3 461.4 41.8 461.4 42C461.4 42.2 461.3 43.1 460.5 44.4C460.3 44.7 460.2 44.9 460.1 45.1C460.1 45.1 460.1 45.1 460.2 45.1C466.4 45.1 471.4 40.1 471.4 33.9C471.4 27.7 466.4 22.7 460.2 22.7Z" fill="#EF4266"></path><path fill-rule="evenodd" clip-rule="evenodd" d="M459 48.7C459 51.4 460.6 52.7 461.4 55.1C462.3 58.1 460.2 62 459.8 65.7C459.5 68.8 460.5 79.1 460.5 79.1C460.2 78.2 458.4 70.2 458.6 65.8C458.7 60.9 461.3 57.4 460.2 55.3C459.1 53.1 458.1 52.3 457.7 50.3C457.6 49.8 457.5 49.2 457.5 48.7H452.3V120.8H468.1V48.7H459Z" fill="#EF4266"></path><path d="M142.8 116.2C139.9 120 136.2 121.3 132.6 121.3C121.1 121.3 114.3 112.7 114.3 101.9C114.3 91.1 121.1 82.2 132.6 82.2C144.1 82.2 147.5 86.8 148.3 95.4H140.5C139.5 91.2 136.5 89.1 132.6 89.1C125.2 89.1 122.5 95.4 122.5 101.9C122.5 108.4 125.3 114.4 132.6 114.4C139.9 114.4 141 111.6 141.5 106.4H133.3V100.3H149V120.4H143.8L143 116.2H142.8Z" fill="#353635"></path><path d="M154.4 101.8C154.8 94.9 161 92.8 167.1 92.8C173.2 92.8 178.9 94 178.9 100.5V114.5C178.9 117 179.2 119.4 179.8 120.5H172.3C172 119.7 171.8 118.8 171.8 117.9C169.4 120.4 166.1 121.2 162.7 121.2C157.5 121.2 153.5 118.6 153.5 113.1C153.6 100.8 171.8 107.4 171.5 101.4C171.5 98.3 169.3 97.7 166.7 97.7C164.1 97.7 162.1 98.8 161.8 101.8H154.4ZM171.5 107.3C170.2 108.4 167.6 108.4 165.3 108.9C163 109.3 160.9 110.2 160.9 112.9C160.9 115.6 163 116.3 165.4 116.3C171.2 116.3 171.4 111.8 171.4 110.1V107.3H171.5Z" fill="#353635"></path><path d="M184.6 93.5H191.6V98.5H191.7C193.1 95.1 196.6 92.8 200.3 92.8C204 92.8 201.4 92.9 201.9 93.1V100C201.2 99.8 200.1 99.7 199.2 99.7C193.7 99.7 191.9 103.6 191.9 108.4V120.6H184.5V93.6L184.6 93.5Z" fill="#353635"></path><path d="M204.9 83.2H212.3V96.8H212.4C214.2 94 217.6 92.8 220.9 92.8C226.3 92.8 232.1 97.1 232.1 107C232.1 116.9 226.3 121.2 220.9 121.2C215.5 121.2 213.6 120 212 117H211.9V120.4H204.9V83.1V83.2ZM218.4 98.3C214 98.3 212.1 102.4 212.1 107C212.1 111.6 214 115.6 218.4 115.6C222.8 115.6 224.7 111.5 224.7 107C224.7 102.5 222.8 98.3 218.4 98.3Z" fill="#353635"></path><path d="M236.8 83.2H244.2V97.2H244.4C246.3 94.1 249.5 92.7 252.3 92.7C260.2 92.7 262.2 97.1 262.2 103.8V120.4H254.8V105.2C254.8 100.8 253.5 98.6 250 98.6C246.5 98.6 244.3 100.8 244.3 106.3V120.4H236.9V83.1L236.8 83.2Z" fill="#353635"></path><path d="M267.5 101.8C267.9 94.9 274.1 92.8 280.2 92.8C286.3 92.8 292.1 94 292.1 100.5V114.5C292.1 117 292.4 119.4 293 120.5H285.5C285.2 119.7 285 118.8 285 117.9C282.7 120.4 279.3 121.2 275.9 121.2C270.7 121.2 266.7 118.6 266.7 113.1C266.8 100.8 285 107.4 284.7 101.4C284.7 98.3 282.5 97.7 279.9 97.7C277.3 97.7 275.3 98.8 275 101.8H267.6H267.5ZM284.6 107.3C283.3 108.4 280.7 108.4 278.4 108.9C276.1 109.3 274 110.2 274 112.9C274 115.6 276.1 116.3 278.5 116.3C284.3 116.3 284.5 111.8 284.5 110.1V107.3H284.6Z" fill="#353635"></path><path d="M325.5 116.2C322.6 120 318.9 121.3 315.3 121.3C303.8 121.3 297 112.7 297 101.9C297 91.1 303.8 82.2 315.3 82.2C326.8 82.2 330.2 86.8 331 95.4H323.2C322.2 91.2 319.2 89.1 315.3 89.1C307.9 89.1 305.2 95.4 305.2 101.9C305.2 108.4 308 114.4 315.3 114.4C322.6 114.4 323.7 111.6 324.2 106.4H316V100.3H331.7V120.4H326.5L325.7 116.2H325.5Z" fill="#353635"></path><path d="M362.7 120.5H355.7V116.7H355.5C353.6 119.8 350.4 121.2 347.3 121.2C339.4 121.2 337.4 116.8 337.4 110.1V93.5H344.8V108.7C344.8 113.1 346.1 115.3 349.6 115.3C353.1 115.3 355.3 113.1 355.3 107.6V93.5H362.7V120.5Z" fill="#353635"></path><path d="M387.6 117H387.5C385.8 119.9 382.8 121.2 379.3 121.2C371.2 121.2 367.2 114.3 367.2 106.7C367.2 99.1 371.2 92.7 379.2 92.7C387.2 92.7 385.5 94.1 387.2 96.7H387.3V83.1H394.7V120.4H387.7V117H387.6ZM381.1 98.3C376.2 98.3 374.6 102.5 374.6 106.9C374.6 111.3 376.5 115.6 381.1 115.6C385.7 115.6 387.5 111.3 387.5 106.9C387.5 102.5 385.9 98.3 381.1 98.3Z" fill="#353635"></path><path d="M407.8 89.3H400.4V83.2H407.8V89.3ZM400.4 93.5H407.8V120.5H400.4V93.5Z" fill="#353635"></path><path fill-rule="evenodd" clip-rule="evenodd" d="M55.8 20.1C55.1 19.3 54.5 18.5 53.8 17.7C59.6 11.8 65.3 5.9 71.1 0C94.6 31.1 100.9 68.1 92.7 91.2C79.4 128.5 27.8 128.6 13.5 96.8C8.7 83.6 14.3 72.5 23.9 66.2C30.4 62 36.6 60.2 44.2 61.5C52.3 62.9 62.4 66.7 72.3 68.9C74.9 69.5 82.1 71.4 84.1 70.5C86 69.6 86 67.4 86.1 66C86.7 66.3 87.5 66.6 88.1 66.8L83.5 77.7C71.1 74.6 58.6 71.4 46.2 68.3C38.7 66.9 32 67.1 26.5 69.4C8 77 11.9 96.4 25.8 107.1C49.4 125.3 82.7 114.9 91.1 86.3C96.6 67.5 92 53 84.9 35.2C80.6 24.6 75.3 15.1 68.5 7.1C64.3 11.4 60 15.7 55.8 20" fill="#4D4D4E"></path><path d="M90.8999 21.5V18.4H91.4999L92.1999 20.6C92.1999 20.8 92.2999 21 92.2999 21.1C92.2999 21 92.2999 20.8 92.4999 20.6L93.1999 18.5H93.6999V21.6H93.2999V19L92.3999 21.6H91.9999L91.0999 19V21.6H90.6999L90.8999 21.5ZM88.9999 21.5V18.8H87.9999V18.4H90.3999V18.8H89.3999V21.5H88.9999ZM93.7999 17.1C93.0999 16.4 91.9999 15.9 90.8999 15.9C89.7999 15.9 88.7999 16.4 87.9999 17.1C87.2999 17.8 86.7999 18.9 86.7999 20C86.7999 21.1 87.2999 22.1 87.9999 22.9C88.6999 23.6 89.7999 24.1 90.8999 24.1C91.9999 24.1 92.9999 23.6 93.7999 22.9C94.4999 22.2 94.9999 21.1 94.9999 20C94.9999 18.9 94.4999 17.9 93.7999 17.1ZM90.8999 15.4C92.0999 15.4 93.2999 15.9 94.0999 16.7C94.8999 17.5 95.3999 18.7 95.3999 19.9C95.3999 21.1 94.8999 22.3 94.0999 23.1C93.2999 23.9 92.1999 24.4 90.8999 24.4C89.5999 24.4 88.4999 23.9 87.6999 23.1C86.8999 22.3 86.3999 21.2 86.3999 19.9C86.3999 18.6 86.8999 17.5 87.6999 16.7C88.4999 15.9 89.5999 15.4 90.8999 15.4Z" fill="#353635"></path><path fill-rule="evenodd" clip-rule="evenodd" d="M40.5999 93.7C39.9999 90.8 37.9999 89.5 35.5999 89.4C30.0999 89.1 27.1999 95.6 27.7999 100.3C28.3999 104.8 31.8999 108.1 38.5999 107.4C42.9999 110.2 46.5999 112.3 50.5999 113.4C56.3999 114.9 64.7999 114.2 67.5999 107.9C69.4999 103.5 66.2999 98.8 60.9999 97.3C60.7999 95.2 60.6999 93.1 60.4999 91C61.9999 88.1 59.0999 86.4 57.2999 85.9C56.1999 85.9 55.3999 87.1 55.9999 87.9C56.7999 88.8 57.5999 89.3 58.0999 90.6C57.8999 92.8 56.0999 95.3 55.0999 97.4C53.8999 99.5 54.0999 101.3 56.1999 102.6C57.7999 103.3 58.4999 104.1 57.9999 105C56.4999 105.3 56.2999 103.2 54.3999 102.5C52.5999 102.6 50.7999 104.6 49.1999 103.7C49.6999 101.8 49.9999 99.9 49.7999 98.2C49.7999 96.8 48.0999 96.5 47.4999 95.3C47.9999 94.6 48.5999 94.1 48.3999 92.8C47.4999 91.7 45.4999 92 45.3999 92.8C45.4999 93.6 45.4999 94.6 45.8999 95.4C46.2999 96.6 46.3999 97.7 47.1999 98.7C46.7999 99.4 46.2999 100 45.8999 100.7C45.5999 101.3 44.4999 100.4 44.9999 99.5C46.4999 97.2 44.9999 95.1 43.8999 94.8C43.8999 94.4 43.7999 93.7 43.4999 93.4C42.6999 93.8 41.5999 94 40.5999 93.9" fill="#EF4266"></path><path fill-rule="evenodd" clip-rule="evenodd" d="M74.0001 19.7C73.0001 24.3 72.1001 28.8 71.1001 33.4C70.8001 30.8 70.1001 28.9 69.0001 27.6C65.4001 23 52.1001 25.5 47.4001 27.3C42.8001 29.1 38.8001 32 35.3001 36C25.2001 47.2 18.7001 76.8 36.0001 82.8C46.3001 86.4 63.5001 77.5 65.0001 65.5C65.7001 60.3 64.0001 54.9 59.9001 51.4C68.1001 50.3 73.0001 53.1 69.8001 65.4C67.8001 70.1 65.3001 74 62.2001 77.1C51.5001 87.8 25.3001 92.7 20.3001 74.5C16.4001 60.5 22.6001 43.7 33.1001 33.9C37.9001 29.4 43.8001 25.9 50.8001 23.3C58.4001 20.5 66.1001 19 74.1001 19.7" fill="#EF4266"></path><path d="M5.5 111.6L3.9 109.7L4.6 109.2L8.4 113.7L7.8 114.3L6.2 112.4L0.699997 117L0 116.3L5.5 111.6Z" fill="#A8A8AB"></path><path d="M9.9999 115.3L7.7999 117.8L10.6999 120.4L12.8999 117.9L13.6999 118.6L8.2999 124.6L7.4999 123.8L9.9999 121.1L7.1999 118.4L4.5999 121.2L3.8999 120.5L9.2999 114.6L9.9999 115.3Z" fill="#A8A8AB"></path><path d="M16.3 125.8L13.8 124L12.1 126.4L14.9 128.4L14.4 129.1L10.7 126.5L15.4 119.9L18.9 122.4L18.4 123.1L15.7 121.2L14.3 123.3L16.8 125.1L16.3 125.8Z" fill="#A8A8AB"></path><path d="M24.8999 134.3C24.4999 134.3 23.6999 134.1 22.7999 133.7C20.6999 132.7 19.7999 130.7 20.9999 128.3C22.0999 126 24.3999 125.2 26.5999 126.3C27.4999 126.7 27.9999 127.2 28.1999 127.4L27.5999 128.1C27.2999 127.8 26.8999 127.4 26.2999 127.1C24.5999 126.3 22.8999 126.8 21.9999 128.7C21.1999 130.5 21.5999 132.1 23.3999 133C23.9999 133.3 24.5999 133.4 25.0999 133.4L24.8999 134.2V134.3Z" fill="#A8A8AB"></path><path d="M34.8001 133.7C34.0001 136.3 31.9001 137.2 29.9001 136.6C27.9001 136 27.0001 133.9 27.7001 131.6C28.5001 129.2 30.5001 128.1 32.6001 128.7C34.7001 129.4 35.5001 131.4 34.8001 133.7ZM28.8001 131.9C28.3001 133.5 28.7001 135.3 30.2001 135.8C31.8001 136.3 33.1001 135.1 33.7001 133.4C34.2001 131.9 33.9001 130 32.3001 129.5C30.7001 129 29.4001 130.2 28.8001 131.9Z" fill="#A8A8AB"></path><path d="M36.1999 136.9C36.5999 137.3 37.1999 137.6 37.8999 137.8C38.8999 138 39.6999 137.6 39.7999 136.8C39.8999 136.1 39.5999 135.6 38.5999 135C37.3999 134.3 36.6999 133.5 36.8999 132.4C37.0999 131.2 38.2999 130.4 39.8999 130.7C40.6999 130.8 41.2999 131.1 41.5999 131.4L41.1999 132.2C40.9999 132 40.4999 131.7 39.7999 131.5C38.6999 131.3 38.1999 131.9 38.0999 132.4C37.9999 133.1 38.3999 133.6 39.3999 134.2C40.5999 135 41.1999 135.7 40.9999 136.9C40.7999 138.1 39.6999 139 37.7999 138.7C36.9999 138.6 36.1999 138.2 35.8999 137.8L36.2999 137L36.1999 136.9Z" fill="#A8A8AB"></path><path d="M50.2 136.2C50.2 135.1 50.2 133.7 50.2 132.7C49.9 133.6 49.5 134.6 49 135.7L47.4 139.5H46.6L45.5 135.6C45.2 134.4 44.9 133.4 44.7 132.4C44.7 133.4 44.5 134.7 44.4 135.9L44 139.3H43L43.9 131.2H45.2L46.4 135.2C46.7 136.2 46.9 137.1 47.1 137.9C47.3 137.1 47.7 136.2 48.1 135.2L49.7 131.4H51L51.1 139.5H50.1V135.9L50.2 136.2Z" fill="#A8A8AB"></path><path d="M54.6014 131.483L53.6038 131.551L54.1479 139.533L55.1456 139.465L54.6014 131.483Z" fill="#A8A8AB"></path><path d="M63.6 138.1C63.3 138.3 62.5 138.7 61.6 138.8C59.4 139.2 57.4 138 57 135.4C56.6 132.9 58 131 60.5 130.6C61.5 130.4 62.2 130.6 62.4 130.6V131.5C61.9 131.4 61.3 131.3 60.6 131.5C58.7 131.8 57.7 133.2 58 135.3C58.3 137.2 59.6 138.3 61.6 138C62.2 137.9 62.8 137.7 63.2 137.4L63.5 138.2L63.6 138.1Z" fill="#A8A8AB"></path><path d="M70.5 136.5L65.8 129.7L66.8 129.3L69.1001 132.8C69.7001 133.7 70.2001 134.5 70.6001 135.2C70.4001 134.4 70.3 133.4 70.2 132.3L69.8 128.1L70.8 127.7L73.2 131.2C73.7 132 74.3 132.8 74.7 133.6C74.5 132.7 74.4 131.8 74.3 130.8L73.9 126.6L74.9 126.2L75.6001 134.5L74.6001 134.9L72.2 131.3C71.6 130.4 71.2 129.7 70.8 129C70.9 129.8 71.1001 130.6 71.1001 131.7L71.5 136L70.5 136.4V136.5Z" fill="#A8A8AB"></path><path d="M83.9 125.6C85.3 128 84.6 130.1 82.8 131.1C81 132.2 78.8 131.5 77.6 129.4C76.3 127.2 76.9 124.9 78.7 123.9C80.6 122.8 82.7 123.6 83.9 125.6ZM78.6 128.8C79.5 130.3 81 131.2 82.5 130.3C83.9 129.5 84 127.7 83.1 126.1C82.3 124.7 80.7 123.7 79.2 124.5C77.7 125.4 77.8 127.2 78.6 128.7" fill="#A8A8AB"></path><path d="M91.4 120.5C90.6 119.7 89.7 118.7 89.1 117.9C89.5 118.8 89.8 119.8 90.2 120.9L91.5 124.8L90.9 125.3L87.5 123.1C86.5 122.5 85.6 121.9 84.8 121.3C85.4 122.1 86.2 123.2 86.9 124.2L88.9 127L88.1 127.6L83.5 121L84.5 120.2L88 122.4C88.9 123 89.7 123.5 90.3 124C89.9 123.2 89.6 122.3 89.3 121.3L88 117.4L89 116.6L94.4 122.5L93.6 123.1L91.2 120.5H91.4Z" fill="#A8A8AB"></path><path d="M90.8 115C91 114.6 91.5 114 92 113.5C92.7 112.7 93.3 112.4 93.9 112.3C94.4 112.3 94.9 112.3 95.4 112.8C96 113.3 96.1 114.2 95.8 115C96.5 114.6 97.5 114.4 98.4 115.2C98.9 115.7 99.1001 116.2 99.1001 116.8C99.1001 117.6 98.6 118.4 97.8 119.4C97.3 119.9 96.9001 120.3 96.6001 120.5L90.8 115.1V115ZM93.9 116.4L94.5 115.7C95.2 114.9 95.3 114 94.7 113.5C94 112.9 93.2 113.1 92.5 113.9C92.2 114.3 92 114.5 91.9 114.6L93.8 116.4H93.9ZM96.8 119.1C97 119 97.2 118.8 97.4 118.5C98.1 117.7 98.5 116.7 97.7 115.9C96.9 115.2 95.9001 115.5 95.1001 116.4L94.5 117L96.8 119.1Z" fill="#A8A8AB"></path><path d="M405.9 12.8C404.8 11.7 403.3 11 401.6 11C399.9 11 398.4 11.7 397.3 12.8C396.2 13.9 395.5 15.4 395.5 17.1C395.5 18.8 396.2 20.3 397.3 21.4C398.4 22.5 399.9 23.2 401.6 23.2C403.3 23.2 404.8 22.5 405.9 21.4C407 20.3 407.7 18.8 407.7 17.1C407.7 15.4 407 13.9 405.9 12.8ZM405.5 21C404.5 22 403.1 22.6 401.6 22.6C400.1 22.6 398.7 22 397.7 21C396.7 20 396.1 18.6 396.1 17.1C396.1 15.6 396.7 14.2 397.7 13.2C398.7 12.2 400.1 11.6 401.6 11.6C403.1 11.6 404.5 12.2 405.5 13.2C406.5 14.2 407.1 15.6 407.1 17.1C407.1 18.6 406.5 20 405.5 21Z" fill="#EF4266"></path><path d="M403.8 17.9C403.8 18.2 403.6 18.4 403.6 18.6C403.6 18.5 403.6 18.3 403.4 18L402.4 15.1H401.6V19.2H402.1V15.7L403.3 19.2H403.8L405 15.7V19.2H405.5V15.1H404.8L403.8 18V17.9Z" fill="#EF4266"></path><path d="M397.8 15.5H399.1V19.2H399.7V15.5H401V15H397.8V15.5Z" fill="#EF4266"></path><path d="M165.4 5.49999C166.3 5.49999 167.2 5.99999 167.9 6.89999C167.4 3.59999 165.5 1.89999 162.3 1.59999C160.8 1.49999 159.4 1.79999 158.2 2.49999C157 3.19999 156.3 4.19999 156 5.59999C155.7 7.49999 156.4 9.39999 158.2 11.5C160.1 13.8 161.1 15.4 161.1 16.4C161.1 18.6 159.6 19.6 156.7 19.6H120C118.4 19.6 117.4 19.5 116.9 19.3C116.4 19.1 115.8 18.3 114.9 17.1L114.6 17.5C115.6 19.1 116.1 20.6 116 22.1C116 23 115.6 24 115 25.1C114.4 26.3 114.2 27.3 114.2 28.3C114.2 30.3 114.8 32 116 33.3L116.3 33C115.9 32.3 115.7 31.6 115.7 31.1C115.7 29.6 116.9 28.8 119.2 28.8H124.8C121.7 29.9 119.2 31.8 117.6 34.5C115.9 37.2 115.1 40.2 115.1 43.6C115.1 47 115.6 51.5 116.6 54.5C118.1 58.9 120.6 61.2 123.9 61.2C127.2 61.2 126 60.7 127.4 59.6C128.8 58.6 130 58 130.9 58C132.9 58 134.1 59 134.3 61.1C136.2 59 137.3 57.8 137.4 57.6C138.3 56.4 138.7 54.9 138.7 53.2C138.7 49.9 137.4 48 134.7 47.4C132.2 47.2 129.8 47 127.4 46.7C124.8 46 123.4 43.8 123.4 40.2C123.4 36.6 125.4 33.5 129.3 31.3C132.5 29.6 136.2 28.7 140.3 28.7C144.4 28.7 148.1 29.6 151.5 31.4C155.5 33.6 157.5 36.5 157.5 40.3C157.5 44.1 156.2 45.6 153.6 46.5C151.2 46.9 148.8 47.4 146.4 47.8C143.8 48.5 142.5 50.2 142.5 53.1C142.5 56 142.9 56.7 143.8 58.3C144.8 60.2 146.3 61.2 148 61.2C149.7 61.2 150.3 60.7 151.9 59.6C153.5 58.6 154.8 58 155.8 58C158.2 58 159.5 59 159.7 61.1C163.6 57.2 165.5 51.1 165.5 42.6C165.5 34.1 164.2 35.7 161.7 32.7C160.3 31.1 158.6 29.8 156.7 28.6C159.5 28.6 161.9 27.8 163.7 26.1C165.5 24.4 166.4 22.1 166.3 19C166.3 17.7 165.6 15.9 164.5 13.5C163.4 11.1 162.8 9.39999 162.8 8.29999C162.8 6.29999 163.6 5.29999 165.3 5.29999L165.4 5.49999Z" fill="#EF4266"></path><path d="M194.7 58.6C193.5 60.2 192.3 61.8 191.1 63.5C189.7 65.4 189 67.3 189 69.1C189 70.9 189.9 72.3 191.6 72.7C192 72.7 192.8 72.5 194 71.9C195.2 71.3 196 71 196.4 70.9C196.8 70.9 197.2 71 197.6 71.4C198 71.8 198.2 72.2 198.2 72.6C199.6 71.8 200.3 70.6 200.3 68.9C200.3 67.2 199.6 65.3 198.2 63.4C197 61.8 195.8 60.2 194.6 58.6H194.7Z" fill="#EF4266"></path><path d="M219.8 5.49999C220.7 5.49999 221.6 5.99999 222.3 6.89999C221.8 3.59999 219.9 1.89999 216.7 1.59999C215.2 1.49999 213.8 1.79999 212.6 2.49999C211.4 3.19999 210.7 4.19999 210.4 5.59999C210.1 7.49999 210.8 9.39999 212.6 11.5C214.5 13.8 215.5 15.4 215.5 16.4C215.5 18.6 214 19.6 211.1 19.6H202.8C200.1 19.6 198.1 18.7 196.9 17L196.6 17.4C197.6 18.8 198.1 20 198.1 21.1C198.1 22.2 197.8 23.2 197.2 24.7C196.6 26.3 196.3 27.5 196.3 28.3C196.3 30.3 196.9 32 198 33.3L198.3 33C197.9 32.2 197.7 31.6 197.7 31.1C197.7 29.4 199.6 28.6 203.5 28.6C207.4 28.6 209 29.4 211.3 30.9C213.7 32.6 214.9 34.9 214.9 37.8C214.9 40.7 213.9 42.8 212 44.4C210.1 46.1 207.7 46.9 204.8 46.9C201.9 46.9 198.6 46.3 197.2 45.1C195.6 43.8 194.9 41.4 195.2 37.9H194.2V40.5C194.2 44.8 191.6 46.9 186.1 46.9C180.6 46.9 180 45.4 180 42.4C180 39.4 181.3 39.8 183.8 39.1C187.7 37.9 190.1 37.1 190.8 36.6C193.4 35.1 194.6 32.8 194.6 29.6C194.6 26.4 193.3 23.5 190.7 21.7C188.5 20.2 185.6 19.4 181.9 19.4C178.2 19.4 175.6 20.1 173.3 21.6C170.7 23.4 169.4 25.9 169.4 29.1C169.4 32.3 170.3 34.2 172.2 36C172.6 34.2 173.8 33.2 175.6 33.2C177.4 33.2 176.9 33.2 178 33.4C179.1 33.6 179.9 33.6 180.5 33.6C182.7 33.6 184 32.9 184.5 31.4C183.5 31.8 182.4 32 181.4 32C179.2 32 178.2 31.1 178.2 29.3C178.2 27.5 178.8 27.1 180 26.4C181 25.7 182.2 25.4 183.6 25.4C187.6 25.4 189.6 26.9 189.6 29.9C189.6 32.9 187.9 33.6 184.4 34.2C179 35.1 175.8 35.9 174.7 36.4C171.2 38.2 169.5 41.7 169.5 46.9C169.5 52.1 171 54.8 173.9 57.3C176.7 59.6 180.3 60.8 184.7 60.8C189.1 60.8 189.9 60 193.8 58.3C197.7 56.6 200.7 55.8 202.8 55.8C206.5 55.8 208.8 57.5 209.7 60.8C216.4 57.4 219.8 51.3 219.8 42.3C219.8 33.3 218.8 34.2 216.8 31.2C216 29.9 214.9 28.9 213.8 28C215.5 27.6 217 26.9 218.2 25.8C220 24.1 220.9 21.8 220.8 18.7C220.8 17.4 220.1 15.6 219 13.2C217.9 10.8 217.3 9.09999 217.3 7.99999C217.3 5.99999 218.1 4.99999 219.8 4.99999V5.49999Z" fill="#EF4266"></path><path d="M262.6 22.1C262.5 20.6 262.9 19.1 264 17.5L263.7 17.1C262.8 18.4 262.2 19.1 261.7 19.4C261.2 19.6 260.2 19.7 258.6 19.7H234.1C231.3 19.7 228.8 20.7 226.8 22.8C224.7 24.9 223.7 27.3 223.7 30.1C223.7 34.5 225.5 37.5 229 39C225.5 41.1 223.7 44.3 223.7 48.7C223.7 53.1 224.7 55.3 226.6 57.7C228.5 60.1 231.1 61.3 234.4 61.3C237.7 61.3 237.5 60.7 239.5 59.5C241.6 58.3 243.2 57.7 244.5 57.7C247.6 57.7 249.3 58.9 249.6 61.3C253.4 58 255.2 53.6 255.2 48.1C255.2 42.6 255.2 44.9 254.9 42.7C253.4 46 248.7 47.7 241 47.7C233.3 47.7 232.8 46.4 232.8 43.9C232.8 42.4 233.6 41.4 235.5 41C236.1 40.8 237.9 40.7 240.9 40.6C241.5 40.6 242.1 40.8 242.8 41.1C243.4 41.4 243.8 41.9 243.8 42.3C243.8 42.7 243.8 42.8 243.5 43H243.7C244.3 42.5 244.6 41.6 244.6 40.6C244.6 40.1 244.5 39.6 244.2 38.9C243.9 38.3 243.8 37.8 243.7 37.3C243.7 36.5 243.9 35.7 244.6 34.9L244.4 34.7C243.6 35.9 242.2 36.5 240.1 36.5C234.8 36.5 232.1 35.1 232.1 32.3C232.1 29.5 232.5 30.5 233.4 29.8C234.3 29.1 235.2 28.7 236.3 28.7H258.9C261.5 28.7 262.8 29.5 262.8 31.2C262.8 32.9 262.6 32.3 262.2 33L262.5 33.3C263.6 32 264.2 30.3 264.3 28.3C264.3 27.3 264.1 26.2 263.5 25.1C262.9 23.9 262.6 22.9 262.5 22.1H262.6Z" fill="#EF4266"></path><path d="M336.1 19.7C335.5 19.7 334.6 19.9 333.5 20.3C332.4 20.7 331.6 20.9 331 20.9C328.3 20.9 326.1 19.7 324.4 17.2L324.1 17.6C325.1 19 325.6 20.2 325.6 21.4C325.6 22.6 325.3 23.4 324.7 24.9C324.1 26.4 323.8 27.6 323.8 28.5C323.8 30.4 324.4 32.1 325.6 33.5L325.9 33.2L325.4 31.4C325.4 29.8 327.1 29 330.4 29C338.1 29 342 32.1 342 38.3C342 44.5 340.9 43.6 338.7 45.2C336.7 46.7 334.2 47.4 331.1 47.4C325.2 47.4 321.5 46.1 320 43.5C320 43.3 320 43.2 320 43C320 39.4 318.7 36.1 316.2 33.1C314.8 31.5 313.1 30.2 311.2 29C314 29 316.4 28.2 318.2 26.5C320 24.8 320.9 22.5 320.8 19.4C320.8 18.1 320.1 16.3 319 13.9C317.9 11.5 317.3 9.79999 317.3 8.69999C317.3 6.69999 318.1 5.69999 319.8 5.69999C321.5 5.69999 321.6 6.2 322.3 7.1C321.8 3.8 319.9 2.1 316.7 1.8C315.2 1.7 313.8 1.99999 312.6 2.69999C311.4 3.39999 310.7 4.4 310.4 5.8C310.1 7.7 310.8 9.59999 312.6 11.7C314.5 14 315.5 15.6 315.5 16.6C315.5 18.8 314 19.8 311.1 19.8H274.4C272.8 19.8 271.8 19.7 271.3 19.5C270.8 19.3 270.2 18.5 269.3 17.3L269 17.7C270 19.3 270.5 20.8 270.4 22.3C270.4 23.2 270 24.2 269.4 25.3C268.8 26.5 268.6 27.5 268.6 28.5C268.6 30.5 269.2 32.2 270.4 33.5L270.7 33.2C270.3 32.5 270.1 31.8 270.1 31.3C270.1 29.8 271.3 29 273.6 29H279.2C276.1 30.1 273.7 32 272 34.7C270.3 37.4 269.5 40.4 269.5 43.8C269.5 47.2 270 51.7 271 54.7C272.5 59.1 275 61.4 278.3 61.4C281.6 61.4 280.4 60.9 281.8 59.8C283.2 58.8 284.4 58.2 285.3 58.2C287.3 58.2 288.5 59.2 288.7 61.3C290.6 59.2 291.7 58 291.8 57.8C292.7 56.6 293.1 55.1 293.1 53.4C293.1 50.1 291.8 48.2 289.1 47.6C286.6 47.4 284.2 47.2 281.8 46.9C279.2 46.2 277.8 44 277.8 40.4C277.8 36.8 279.8 33.7 283.7 31.5C286.9 29.8 290.6 28.9 294.7 28.9C298.8 28.9 302.5 29.8 305.9 31.6C309.9 33.8 311.9 36.7 311.9 40.5C311.9 44.3 310.6 45.8 308 46.7C305.6 47.1 303.2 47.6 300.8 48C298.2 48.7 296.9 50.4 296.9 53.3C296.9 56.2 297.3 56.9 298.2 58.5C299.2 60.4 300.7 61.4 302.4 61.4C304.1 61.4 304.7 60.9 306.3 59.8C307.9 58.8 309.2 58.2 310.2 58.2C312.6 58.2 313.9 59.2 314.1 61.3C315.8 59.6 317.2 57.3 318.1 54.7C318.1 54.9 318.2 55.1 318.3 55.3C320.1 59.3 322.9 61.3 326.8 61.3C330.7 61.3 329.2 60.7 330.9 59.5C332.6 58.3 333.9 57.7 335 57.7C337.8 57.7 339.3 58.9 339.5 61.3C343.6 57.4 345.6 50.5 345.6 40.9C345.6 31.3 345.1 31.8 344 28.2C342.4 22.6 339.8 19.8 336.1 19.8V19.7Z" fill="#EF4266"></path><path d="M387.6 18.8C383.5 15.8 378.4 14.4 372.5 14.4C366.6 14.4 365.1 15 362 16.3C357.9 18 355.8 20.5 355.8 23.9C355.8 27.3 356.7 29 358.5 30.4C352.4 33.2 349.4 37.9 349.4 44.4C349.4 50.9 350.8 52.8 353.6 56.1C356.6 59.6 360.3 61.4 364.7 61.4C369.1 61.4 370 60.6 373.8 58.9C377.7 57.2 380.7 56.4 382.9 56.4C386.5 56.4 388.8 58.1 389.7 61.4C396.5 58 399.9 52.2 399.9 43.8C399.9 35.4 398.5 34.4 395.7 32.2C394.7 26.5 392 22.1 387.6 19V18.8ZM390.7 34.1C391.3 34.8 391.7 35.6 391.7 36.5C391.7 37.4 391.4 38.2 390.7 38.9C390.1 39.6 389.3 39.9 388.3 39.9C387.3 39.9 386.6 39.6 385.9 38.9C385.3 38.2 384.9 37.4 384.9 36.5C384.9 35.6 385.2 34.8 385.9 34.1C386.5 33.4 387.3 33.1 388.3 33.1C389.3 33.1 390 33.4 390.7 34.1ZM367.6 20.9C368.8 20 370.1 19.6 371.6 19.6C373.1 19.6 374 20 375.1 20.9C376.1 21.8 376.6 22.8 376.6 24.1C376.6 25.4 376.1 26.5 375 27.4C373.9 28.3 372.7 28.8 371.4 28.8C370.1 28.8 368.6 28.4 367.5 27.6C366.4 26.8 365.8 25.7 365.8 24.3C365.8 22.9 366.4 21.7 367.6 20.9ZM384.8 47.1C378.3 47.1 375.1 44.7 375.1 39.9H374.2C374.2 42.1 373.4 43.9 371.9 45.2C370.4 46.5 368.5 47.1 366.2 47.1C360.7 47.1 357.9 44.7 357.9 39.9C357.9 35.1 359.3 34.3 362 32C364.1 32.9 366.2 33.3 368.2 33.3C371.6 33.3 374.6 32.6 377.1 31.2C380.1 29.6 381.5 27.1 381.5 23.9C381.5 20.7 381 21 380.1 19.7C385.1 20.1 388.5 23.7 390.3 30.5C389.4 29.9 388.3 29.6 386.9 29.6C384.2 29.6 381.9 30.2 380.1 31.4C377.9 32.8 376.8 34.8 376.8 37.3C376.8 39.8 377.8 41.5 379.7 43C381.6 44.5 383.7 45.3 386.1 45.3C388.5 45.3 391.9 44.2 393.9 41.9C392.5 45.5 389.5 47.3 385 47.3L384.8 47.1Z" fill="#EF4266"></path></svg>