<svg xmlns="http://www.w3.org/2000/svg" width="70" height="61" viewBox="0 0 70 61" fill="none"><g opacity="0.5"><mask id="mask0_42_429" style="mask-type:luminance" maskUnits="userSpaceOnUse" x="0" y="0" width="72" height="72"><path d="M72 72H0V0H72V72Z" fill="white"></path></mask><g mask="url(#mask0_42_429)"><path fill-rule="evenodd" clip-rule="evenodd" d="M38.1572 18.8882C39.4402 18.9085 40.7004 19.1032 41.8433 19.4645C44.6077 20.3387 47.0319 22.2711 48.7317 25.3466C53.1906 33.4167 46.7657 38.785 48.0144 39.9596C49.6517 41.4991 51.6758 33.5524 51.7745 32.7117C52.3561 27.7928 50.584 24.0952 47.4258 21.2516C45.0668 19.127 41.794 17.4703 38.5211 17.317C34.2623 17.1178 29.9523 19.1763 27.4003 22.4597C25.0519 25.4805 24.0649 29.3182 24.5011 33.5911C25.0307 38.7876 29.0834 42.6843 33.8384 44.3912C37.0266 45.535 39.5953 45.2407 41.7543 44.6318C42.9572 44.2925 44.1441 43.9603 44.8764 43.54C45.6651 43.087 45.636 41.8842 44.0692 42.2032C42.8981 42.442 41.4283 42.8905 40.948 42.9928C37.2734 43.77 34.7972 43.5664 31.4257 41.8692C30.8802 41.559 30.4863 41.2718 29.9858 40.9008C28.5115 39.7429 27.6744 38.5418 26.8451 36.8833C25.7824 34.5887 25.541 32.0376 25.9569 29.5746C27.0593 23.0598 31.4054 18.7798 38.1572 18.8873" fill="#5E2F7E"></path><path fill-rule="evenodd" clip-rule="evenodd" d="M38.8621 33.8025L60.3857 55.326C60.6016 55.5419 60.9558 55.5428 61.1717 55.326C61.3885 55.1101 61.3885 54.755 61.1717 54.5391C52.9209 46.2884 44.6711 38.0385 36.4194 29.7869C36.2652 29.6274 36.1242 29.7719 36.1824 29.8794L38.8613 33.8025H38.8621Z" fill="#5E2F7E"></path><path fill-rule="evenodd" clip-rule="evenodd" d="M37.9202 24.2192C34.9655 25.2626 38.5361 29.0253 39.5354 26.1447C39.9399 24.9779 39.2649 24.0835 37.9202 24.2192Z" fill="#5E2F7E"></path><path fill-rule="evenodd" clip-rule="evenodd" d="M62.4389 30.9013C63.2205 30.9137 63.9881 31.0326 64.6842 31.2521C66.3673 31.7852 67.8442 32.9616 68.8796 34.8351C71.5955 39.7504 67.683 43.0206 68.4434 43.7361C69.441 44.6746 70.6738 39.8341 70.7337 39.3213C71.0879 36.3252 70.0085 34.0728 68.0857 32.3404C66.6484 31.0459 64.6551 30.0378 62.661 29.9444C60.0676 29.8227 57.4416 31.0776 55.8871 33.077C54.4569 34.9161 53.8559 37.2549 54.1212 39.8571C54.4446 43.0224 56.9128 45.3955 59.8094 46.4353C61.7507 47.1314 63.3166 46.9525 64.6313 46.5816C65.3636 46.3754 66.0871 46.1727 66.533 45.9162C67.0132 45.6404 66.9956 44.9073 66.0413 45.102C65.3284 45.2465 64.4331 45.5206 64.1405 45.5823C61.9031 46.0564 60.3936 45.9321 58.3395 44.8976C58.0073 44.709 57.7676 44.5336 57.4627 44.308C56.5648 43.6022 56.0545 42.8708 55.5496 41.86C54.9028 40.4625 54.7548 38.9089 55.0085 37.4091C55.68 33.4401 58.3281 30.8335 62.4398 30.8987" fill="#5E2F7E"></path><path fill-rule="evenodd" clip-rule="evenodd" d="M62.8689 39.9869L75.9795 53.0975C76.1117 53.2288 76.3267 53.2297 76.458 53.0975C76.5902 52.9653 76.5902 52.7503 76.458 52.6181C71.4325 47.5917 66.407 42.5662 61.3814 37.5415C61.2872 37.4446 61.2017 37.5318 61.2378 37.597L62.8698 39.9869H62.8689Z" fill="#5E2F7E"></path><path fill-rule="evenodd" clip-rule="evenodd" d="M62.2953 34.1488C60.4949 34.7842 62.6707 37.0762 63.2787 35.3217C63.5254 34.6106 63.1139 34.066 62.2953 34.1488Z" fill="#5E2F7E"></path><path fill-rule="evenodd" clip-rule="evenodd" d="M62.208 10.366C62.9897 10.3783 63.7581 10.4973 64.4533 10.7176C66.1364 11.2498 67.6142 12.4271 68.6497 14.3005C71.3647 19.2168 67.4521 22.4861 68.2126 23.2016C69.2092 24.1401 70.442 19.2996 70.502 18.7868C70.8571 15.7907 69.7776 13.5374 67.8539 11.805C66.4167 10.5114 64.4234 9.50237 62.4301 9.40896C59.8358 9.28736 57.2107 10.5422 55.6562 12.5417C54.2269 14.3816 53.6242 16.7203 53.8903 19.3226C54.2128 22.4879 56.682 24.8609 59.5776 25.9008C61.5198 26.5969 63.0848 26.4189 64.3996 26.0471C65.1319 25.8409 65.8553 25.6382 66.3012 25.3817C66.7824 25.1059 66.7639 24.3736 65.8095 24.5675C65.0966 24.7129 64.2004 24.9861 63.9079 25.0478C61.6705 25.521 60.1619 25.3976 58.1078 24.3631C57.7755 24.1745 57.535 23.9991 57.231 23.7735C56.3321 23.0677 55.8228 22.3372 55.3178 21.3264C54.6702 19.9288 54.523 18.3753 54.7777 16.8746C55.4483 12.9047 58.0963 10.299 62.208 10.3642" fill="#5E2F7E"></path><path fill-rule="evenodd" clip-rule="evenodd" d="M62.6381 19.4512L75.7478 32.5618C75.88 32.6931 76.0959 32.694 76.2272 32.5618C76.3593 32.4297 76.3593 32.2138 76.2272 32.0825C71.2016 27.0569 66.1761 22.0314 61.1506 17.0059C61.0563 16.9089 60.9699 16.9962 61.0061 17.0614L62.6381 19.4512Z" fill="#5E2F7E"></path><path fill-rule="evenodd" clip-rule="evenodd" d="M62.0644 13.6139C60.264 14.2484 62.4389 16.5422 63.0478 14.7868C63.2936 14.0757 62.883 13.5311 62.0644 13.6139Z" fill="#5E2F7E"></path><path fill-rule="evenodd" clip-rule="evenodd" d="M44.2111 48.4367C44.9927 48.449 45.7603 48.568 46.4564 48.7883C48.1395 49.3214 49.6173 50.4978 50.6518 52.3713C53.3677 57.2875 49.4543 60.5568 50.2156 61.2724C51.2123 62.2109 52.4451 57.3704 52.505 56.8575C52.8593 53.8614 51.7807 51.609 49.857 49.8766C48.4197 48.583 46.4264 47.574 44.4332 47.4806C41.8389 47.359 39.2129 48.6138 37.6593 50.6133C36.2291 52.4532 35.6272 54.7911 35.8934 57.3933C36.2168 60.5595 38.685 62.9326 41.5816 63.9724C43.5238 64.6685 45.0888 64.4897 46.4035 64.1187C47.1358 63.9116 47.8593 63.7098 48.3052 63.4534C48.7854 63.1775 48.7669 62.4444 47.8135 62.6391C47.1006 62.7836 46.2053 63.0577 45.9118 63.1194C43.6744 63.5926 42.1649 63.4692 40.1117 62.4347C39.7795 62.2461 39.5398 62.0716 39.234 61.846C38.3361 61.1402 37.8267 60.4088 37.3209 59.398C36.6741 58.0004 36.5261 56.4469 36.7807 54.9471C37.4522 50.9772 40.0994 48.3715 44.212 48.4367" fill="#5E2F7E"></path><path fill-rule="evenodd" clip-rule="evenodd" d="M44.6402 57.5222L57.7508 70.6328C57.8821 70.765 58.098 70.765 58.2302 70.6328C58.3624 70.5006 58.3624 70.2856 58.2302 70.1543C53.2047 65.1279 48.1783 60.1024 43.1527 55.0768C43.0585 54.9799 42.973 55.068 43.01 55.1332L44.6411 57.5231L44.6402 57.5222Z" fill="#5E2F7E"></path><path fill-rule="evenodd" clip-rule="evenodd" d="M44.0666 51.685C42.2671 52.3203 44.442 54.6123 45.05 52.8579C45.2967 52.1467 44.8852 51.6021 44.0666 51.685Z" fill="#5E2F7E"></path><path fill-rule="evenodd" clip-rule="evenodd" d="M23.6754 47.9758C24.4571 47.9881 25.2246 48.1071 25.9207 48.3274C27.6039 48.8597 29.0808 50.037 30.1162 51.9095C32.8321 56.8258 28.9186 60.0951 29.6791 60.8106C30.6766 61.7491 31.9094 56.9086 31.9694 56.3958C32.3236 53.3996 31.2441 51.1473 29.3204 49.4148C27.8832 48.1212 25.8908 47.1122 23.8966 47.0197C21.3023 46.8972 18.6763 48.152 17.1228 50.1515C15.6926 51.9915 15.0916 54.3293 15.3568 56.9324C15.6802 60.0977 18.1485 62.4708 21.045 63.5106C22.9872 64.2077 24.5522 64.0279 25.867 63.6569C26.5993 63.4498 27.3228 63.248 27.7686 62.9925C28.2489 62.7158 28.2313 61.9835 27.2769 62.1782C26.564 62.3228 25.6687 62.5968 25.3753 62.6585C23.1379 63.1317 21.6284 63.0083 19.5752 61.9738C19.243 61.7852 19.0033 61.6099 18.6984 61.3843C17.8004 60.6784 17.2902 59.9479 16.7853 58.9372C16.1385 57.5396 15.9913 55.986 16.2442 54.4853C16.9157 50.5163 19.5637 47.9097 23.6754 47.9758Z" fill="#5E2F7E"></path><path fill-rule="evenodd" clip-rule="evenodd" d="M24.1055 57.0612L37.2161 70.1719C37.3474 70.304 37.5633 70.304 37.6946 70.1719C37.8268 70.0406 37.8268 69.8247 37.6946 69.6934C32.669 64.667 27.6435 59.6414 22.618 54.6168C22.5237 54.5198 22.4382 54.6071 22.4743 54.6723L24.1063 57.0621L24.1055 57.0612Z" fill="#5E2F7E"></path><path fill-rule="evenodd" clip-rule="evenodd" d="M23.5318 51.2242C21.7315 51.8586 23.9072 54.1516 24.5152 52.3971C24.7619 51.6859 24.3504 51.1413 23.5318 51.2242Z" fill="#5E2F7E"></path><path fill-rule="evenodd" clip-rule="evenodd" d="M73.8188 56.1272C74.3916 56.1361 74.9556 56.2233 75.4658 56.3846C76.7003 56.7749 77.7834 57.6376 78.5421 59.0114C80.5336 62.6165 77.6635 65.0133 78.2222 65.5394C78.9536 66.2268 79.8577 62.6773 79.9018 62.3019C80.1617 60.105 79.3695 58.4527 77.9596 57.1829C76.9057 56.2339 75.4437 55.4945 73.9818 55.4258C72.0802 55.3359 70.1539 56.2568 69.0136 57.7222C67.9658 59.0714 67.5243 60.7862 67.7191 62.6949C67.9561 65.016 69.7652 66.7564 71.8898 67.5186C73.3139 68.0297 74.4612 67.8984 75.4261 67.6261C75.9628 67.4754 76.4933 67.3265 76.8202 67.1388C77.1727 66.9361 77.1595 66.3986 76.4598 66.5414C75.9363 66.648 75.2798 66.8489 75.0657 66.8938C73.424 67.241 72.3181 67.1503 70.8121 66.3916C70.5689 66.2532 70.3918 66.1254 70.1688 65.9598C69.5097 65.4425 69.1361 64.9058 68.7651 64.1639C68.291 63.139 68.1826 61.9996 68.3685 60.8999C68.8602 57.9901 70.8015 56.0779 73.8179 56.1264" fill="#5E2F7E"></path><path fill-rule="evenodd" clip-rule="evenodd" d="M10.0907 53.6869C10.4873 53.6931 10.8767 53.753 11.231 53.8658C12.0858 54.1363 12.8357 54.7338 13.3618 55.6846C14.74 58.1802 12.7537 59.8404 13.1397 60.2035C13.6464 60.6793 14.272 58.2225 14.3029 57.9617C14.4827 56.4407 13.9345 55.2978 12.959 54.4183C12.2285 53.7609 11.2169 53.249 10.2044 53.2014C8.88787 53.1406 7.5546 53.7759 6.76591 54.792C6.0398 55.726 5.73402 56.913 5.86884 58.234C6.03275 59.8413 7.28583 61.0459 8.75657 61.5729C9.74264 61.9271 10.5366 61.8355 11.2046 61.6469C11.5764 61.5429 11.9439 61.4398 12.1704 61.3103C12.4136 61.1701 12.4056 60.7974 11.9201 60.897C11.5579 60.9701 11.1041 61.1093 10.9552 61.1411C9.81842 61.3816 9.05265 61.3182 8.01018 60.7939C7.84187 60.6978 7.72026 60.6088 7.56517 60.4943C7.10959 60.1365 6.85051 59.7655 6.59408 59.2526C6.26539 58.5424 6.19048 57.7537 6.31914 56.9923C6.66017 54.9779 8.00401 53.6543 10.0916 53.6878" fill="#5E2F7E"></path><path fill-rule="evenodd" clip-rule="evenodd" d="M10.3084 58.2994L16.9642 64.9551C17.0311 65.0221 17.1413 65.0221 17.2074 64.9551C17.2743 64.8882 17.2743 64.7789 17.2074 64.7119C14.6563 62.1608 12.1043 59.6097 9.5532 57.0578C9.50561 57.0093 9.46067 57.0533 9.47917 57.0868L10.3075 58.3003L10.3084 58.2994Z" fill="#5E2F7E"></path><path fill-rule="evenodd" clip-rule="evenodd" d="M10.0176 55.3358C9.10376 55.6583 10.2079 56.8224 10.5172 55.9315C10.6424 55.5702 10.4335 55.2944 10.0176 55.3358Z" fill="#5E2F7E"></path><path fill-rule="evenodd" clip-rule="evenodd" d="M11.7059 33.6132C12.1025 33.6194 12.492 33.6793 12.8462 33.7912C13.701 34.0617 14.4509 34.6592 14.9761 35.61C16.3543 38.1056 14.3681 39.7658 14.7549 40.1288C15.2607 40.6047 15.8864 38.147 15.9172 37.887C16.0979 36.3661 15.5489 35.2232 14.5734 34.3437C13.8438 33.6863 12.8312 33.1744 11.8196 33.1268C10.5022 33.066 9.16983 33.7013 8.38115 34.7173C7.65503 35.6514 7.34925 36.8384 7.48408 38.1593C7.64798 39.7667 8.90106 40.9713 10.3718 41.4991C11.3579 41.8534 12.1518 41.7617 12.8198 41.5731C13.1917 41.4692 13.5582 41.3652 13.7847 41.2365C14.0288 41.0964 14.02 40.7237 13.5353 40.8224C13.1732 40.8964 12.7185 41.0356 12.5704 41.0664C11.4337 41.307 10.6688 41.2436 9.62541 40.7193C9.4571 40.6232 9.33462 40.5342 9.18041 40.4196C8.72482 40.0619 8.46574 39.6909 8.20931 39.178C7.88062 38.4678 7.80572 37.6791 7.93438 36.9177C8.2754 34.9033 9.61925 33.5797 11.7068 33.6132" fill="#5E2F7E"></path><path fill-rule="evenodd" clip-rule="evenodd" d="M11.9236 38.2253L18.5794 44.8811C18.6455 44.9472 18.7556 44.9472 18.8217 44.8811C18.8887 44.8141 18.8887 44.7049 18.8217 44.6379C16.2706 42.0868 13.7195 39.5348 11.1675 36.9837C11.12 36.9352 11.0759 36.9793 11.0944 37.0128L11.9227 38.2262L11.9236 38.2253Z" fill="#5E2F7E"></path><path fill-rule="evenodd" clip-rule="evenodd" d="M11.6328 35.2616C10.719 35.5841 11.8232 36.7482 12.1325 35.8573C12.2576 35.496 12.0487 35.2202 11.6328 35.2616Z" fill="#5E2F7E"></path><path fill-rule="evenodd" clip-rule="evenodd" d="M56.3665 57.3035C56.6273 57.3071 56.8846 57.3476 57.1173 57.4207C57.6804 57.5996 58.1738 57.9918 58.5202 58.6183C59.4287 60.2618 58.1201 61.3545 58.3739 61.5941C58.7079 61.9079 59.1203 60.29 59.1396 60.1181C59.2577 59.1171 58.8973 58.3636 58.254 57.7847C57.7738 57.352 57.1067 57.0154 56.4396 56.9837C55.5725 56.9431 54.6948 57.3626 54.1749 58.0314C53.6973 58.6465 53.4964 59.4281 53.5854 60.2979C53.6929 61.3562 54.5186 62.1502 55.487 62.4974C56.1365 62.7309 56.659 62.671 57.0996 62.5467C57.3446 62.4771 57.587 62.4093 57.7359 62.3247C57.8963 62.2321 57.8901 61.9872 57.5711 62.0524C57.3332 62.1008 57.0335 62.1925 56.9357 62.2128C56.1876 62.3714 55.6835 62.33 54.9962 61.9836C54.8852 61.9202 54.805 61.862 54.7028 61.7862C54.4023 61.5501 54.2322 61.306 54.063 60.9676C53.8462 60.5006 53.7969 59.9815 53.8815 59.4801C54.1062 58.1521 54.9918 57.2815 56.3665 57.3035Z" fill="#5E2F7E"></path><path fill-rule="evenodd" clip-rule="evenodd" d="M56.5101 60.341L60.8933 64.7241C60.9373 64.769 61.0096 64.769 61.0536 64.7241C61.0977 64.68 61.0977 64.6087 61.0536 64.5646C59.3732 62.8841 57.6927 61.2037 56.0131 59.5232C55.9805 59.4906 55.9523 59.5206 55.9647 59.5426L56.5101 60.3419V60.341Z" fill="#5E2F7E"></path><path fill-rule="evenodd" clip-rule="evenodd" d="M56.318 58.389C55.7161 58.6014 56.4431 59.368 56.6467 58.7811C56.7295 58.5432 56.5921 58.3617 56.318 58.389Z" fill="#5E2F7E"></path><path fill-rule="evenodd" clip-rule="evenodd" d="M47.691 12.6863C47.9527 12.6907 48.2091 12.7304 48.4418 12.8035C49.0049 12.9815 49.4984 13.3745 49.8447 14.0019C50.7523 15.6454 49.4437 16.739 49.6984 16.9778C50.0315 17.2915 50.4439 15.6727 50.4642 15.5018C50.5822 14.4998 50.2218 13.7473 49.5785 13.1683C49.0983 12.7356 48.4321 12.3981 47.7659 12.3673C46.8979 12.3259 46.0202 12.7462 45.5012 13.4142C45.0227 14.0293 44.8218 14.8109 44.9099 15.6815C45.0174 16.7399 45.844 17.5338 46.8115 17.881C47.461 18.1137 47.9844 18.0546 48.4242 17.9304C48.6683 17.8608 48.9097 17.7929 49.0595 17.7074C49.2199 17.6149 49.2137 17.3708 48.8956 17.4351C48.6577 17.4836 48.3572 17.5752 48.2603 17.5955C47.5112 17.7541 47.0072 17.7127 46.3207 17.3664C46.2097 17.3038 46.1295 17.2448 46.0282 17.169C45.7277 16.9328 45.5567 16.6887 45.3884 16.3512C45.1725 15.8833 45.1223 15.3643 45.2077 14.862C45.4325 13.5349 46.3172 12.6643 47.6919 12.6854" fill="#5E2F7E"></path><path fill-rule="evenodd" clip-rule="evenodd" d="M47.8346 15.7238L52.2178 20.1069C52.2618 20.1519 52.3341 20.1519 52.3781 20.1069C52.4222 20.0629 52.4222 19.9906 52.3781 19.9465C50.6977 18.267 49.0172 16.5865 47.3367 14.906C47.305 14.8734 47.2759 14.9025 47.2892 14.9245L47.8346 15.7238Z" fill="#5E2F7E"></path><path fill-rule="evenodd" clip-rule="evenodd" d="M47.6425 13.7719C47.0406 13.9843 47.7676 14.751 47.9712 14.165C48.054 13.927 47.9157 13.7446 47.6425 13.7719Z" fill="#5E2F7E"></path><path fill-rule="evenodd" clip-rule="evenodd" d="M21.416 37.7203C21.6777 37.7247 21.9341 37.7644 22.1668 37.8384C22.7299 38.0164 23.2233 38.4094 23.5696 39.036C24.4773 40.6794 23.1696 41.773 23.4234 42.0118C23.7565 42.3255 24.1697 40.7067 24.1891 40.5358C24.3081 39.5347 23.9468 38.7813 23.3035 38.2023C22.8233 37.7697 22.1562 37.4322 21.49 37.4013C20.6229 37.3608 19.7452 37.7802 19.2253 38.4491C18.7477 39.0642 18.5468 39.8449 18.6349 40.7155C18.7424 41.7739 19.5681 42.5678 20.5365 42.915C21.186 43.1477 21.7094 43.0878 22.1491 42.9644C22.3941 42.8948 22.6356 42.8269 22.7854 42.7414C22.9457 42.6489 22.9396 42.4048 22.6206 42.47C22.3827 42.5185 22.083 42.6093 21.9852 42.6304C21.2362 42.7881 20.7322 42.7467 20.0457 42.4013C19.9347 42.3378 19.8545 42.2797 19.7522 42.2048C19.4518 41.9686 19.2808 41.7236 19.1125 41.3861C18.8957 40.9191 18.8464 40.3992 18.931 39.8978C19.1557 38.5707 20.0404 37.6992 21.416 37.7212" fill="#5E2F7E"></path><path fill-rule="evenodd" clip-rule="evenodd" d="M21.5596 40.7586L25.9427 45.1418C25.9877 45.1858 26.0591 45.1858 26.1031 45.1418C26.1481 45.0977 26.1481 45.0263 26.1031 44.9814C24.4235 43.3009 22.7431 41.6205 21.0626 39.9409C21.0309 39.9083 21.0027 39.9382 21.0141 39.9594L21.5596 40.7586Z" fill="#5E2F7E"></path><path fill-rule="evenodd" clip-rule="evenodd" d="M21.3684 38.8069C20.7665 39.0193 21.4935 39.786 21.6971 39.1991C21.7799 38.9612 21.6424 38.7787 21.3684 38.8069Z" fill="#5E2F7E"></path><path fill-rule="evenodd" clip-rule="evenodd" d="M67.4221 52.2964C68.61 52.2964 69.5731 51.3332 69.5731 50.1454C69.5731 48.9575 68.61 47.9943 67.4221 47.9943C66.2342 47.9943 65.2711 48.9575 65.2711 50.1454C65.2711 51.3332 66.2342 52.2964 67.4221 52.2964Z" fill="#FDC259"></path><path fill-rule="evenodd" clip-rule="evenodd" d="M34.2385 51.0669C35.4263 51.0669 36.3895 50.1037 36.3895 48.9167C36.3895 47.7298 35.4263 46.7657 34.2385 46.7657C33.0506 46.7657 32.0883 47.7289 32.0883 48.9167C32.0883 50.1046 33.0506 51.0669 34.2385 51.0669Z" fill="#FDC259"></path><path fill-rule="evenodd" clip-rule="evenodd" d="M55.131 30.1738C56.3189 30.1738 57.282 29.2107 57.282 28.0228C57.282 26.8349 56.3189 25.8718 55.131 25.8718C53.9431 25.8718 52.9809 26.8349 52.9809 28.0228C52.9809 29.2107 53.944 30.1738 55.131 30.1738Z" fill="#B47AA5"></path><path fill-rule="evenodd" clip-rule="evenodd" d="M19.9003 35.0898C21.0882 35.0898 22.0504 34.1267 22.0504 32.9388C22.0504 31.7509 21.0873 30.7887 19.9003 30.7887C18.7133 30.7887 17.7493 31.7518 17.7493 32.9388C17.7493 34.1258 18.7124 35.0898 19.9003 35.0898Z" fill="#FDC259"></path><path fill-rule="evenodd" clip-rule="evenodd" d="M13.5503 51.4771C14.1716 51.4771 14.6765 50.9721 14.6765 50.35C14.6765 49.7279 14.1716 49.2238 13.5503 49.2238C12.9291 49.2238 12.4233 49.7279 12.4233 50.35C12.4233 50.9721 12.9282 51.4771 13.5503 51.4771Z" fill="#FDC259"></path><path fill-rule="evenodd" clip-rule="evenodd" d="M68.0398 29.4438C68.6611 29.4438 69.166 28.9389 69.166 28.3168C69.166 27.6947 68.6611 27.1906 68.0398 27.1906C67.4186 27.1906 66.9128 27.6947 66.9128 28.3168C66.9128 28.9389 67.4168 29.4438 68.0398 29.4438Z" fill="#FDC259"></path><path fill-rule="evenodd" clip-rule="evenodd" d="M63.9405 61.6709C64.3308 61.6709 64.6472 61.3545 64.6472 60.9642C64.6472 60.5738 64.3308 60.2574 63.9405 60.2574C63.5501 60.2574 63.2337 60.5738 63.2337 60.9642C63.2337 61.3545 63.5501 61.6709 63.9405 61.6709Z" fill="#FDC259"></path><path fill-rule="evenodd" clip-rule="evenodd" d="M47.4055 46.2661C47.7958 46.2661 48.1122 45.9498 48.1122 45.5585C48.1122 45.1672 47.7958 44.8518 47.4055 44.8518C47.0151 44.8518 46.6978 45.1681 46.6978 45.5585C46.6978 45.9489 47.0142 46.2661 47.4055 46.2661Z" fill="#FDC259"></path><path fill-rule="evenodd" clip-rule="evenodd" d="M41.7957 16.5942C42.1861 16.5942 42.5024 16.2779 42.5024 15.8875C42.5024 15.4971 42.1861 15.1808 41.7957 15.1808C41.4053 15.1808 41.089 15.4971 41.089 15.8875C41.089 16.2779 41.4053 16.5942 41.7957 16.5942Z" fill="#FDC259"></path><path fill-rule="evenodd" clip-rule="evenodd" d="M21.9403 27.8755C22.3307 27.8755 22.6479 27.5591 22.6479 27.1688C22.6479 26.7784 22.3316 26.462 21.9403 26.462C21.5491 26.462 21.2336 26.7784 21.2336 27.1688C21.2336 27.5591 21.5499 27.8755 21.9403 27.8755Z" fill="#FDC259"></path><path fill-rule="evenodd" clip-rule="evenodd" d="M14.0438 45.9253C14.4342 45.9253 14.7505 45.6089 14.7505 45.2186C14.7505 44.8282 14.4342 44.511 14.0438 44.511C13.6534 44.511 13.3362 44.8273 13.3362 45.2186C13.3362 45.6098 13.6525 45.9253 14.0438 45.9253Z" fill="#FDC259"></path><path fill-rule="evenodd" clip-rule="evenodd" d="M11.787 30.8091C12.1774 30.8091 12.4938 30.4927 12.4938 30.1024C12.4938 29.712 12.1774 29.3956 11.787 29.3956C11.3967 29.3956 11.0803 29.712 11.0803 30.1024C11.0803 30.4927 11.3967 30.8091 11.787 30.8091Z" fill="#FDC259"></path><path fill-rule="evenodd" clip-rule="evenodd" d="M16.6029 30.231C18.5706 30.231 20.1656 28.636 20.1656 26.6682C20.1656 24.7005 18.5715 23.1064 16.6029 23.1064C14.6342 23.1064 13.041 24.7014 13.041 26.6682C13.041 28.6351 14.636 30.231 16.6029 30.231Z" fill="#B47AA5"></path><path fill-rule="evenodd" clip-rule="evenodd" d="M37.9748 15.4814C39.9416 15.4814 41.5366 13.8865 41.5366 11.9187C41.5366 9.95098 39.9416 8.35687 37.9748 8.35687C36.0079 8.35687 34.412 9.95098 34.412 11.9187C34.412 13.8865 36.007 15.4814 37.9748 15.4814Z" fill="#B47AA5"></path></g></g></svg>