<svg width="18" height="18" viewBox="0 0 18 18" fill="none" xmlns="http://www.w3.org/2000/svg">
<g clip-path="url(#clip0_68_1105)">
<path d="M18 9C18 13.0028 15.3705 16.3958 11.7495 17.5605C11.9062 17.2222 11.9978 16.8495 11.9985 16.4587V15.8663C14.6445 14.706 16.5 12.0682 16.5 9C16.5 4.8645 13.1355 1.5 9 1.5C4.8645 1.5 1.5 4.8645 1.5 9C1.5 10.7633 2.115 12.3825 3.1365 13.6642C2.97225 14.3588 2.96175 15.0862 3.1155 15.7875C1.21125 14.1397 0 11.712 0 9C0 4.03725 4.03725 0 9 0C13.9628 0 18 4.03725 18 9ZM5.25 7.125C5.25 7.746 5.754 8.25 6.375 8.25C6.996 8.25 7.5 7.746 7.5 7.125C7.5 6.504 6.996 6 6.375 6C5.754 6 5.25 6.504 5.25 7.125ZM12.75 7.875C12.75 7.254 12.246 6.75 11.625 6.75C11.004 6.75 10.5 7.254 10.5 7.875C10.5 8.496 11.004 9 11.625 9C12.246 9 12.75 8.496 12.75 7.875ZM8.991 4.9125C8.95575 4.8345 8.10825 3 6.375 3C5.067 3 4.416 3.8895 4.34625 3.99075L5.58075 4.842C5.58075 4.842 5.84925 4.5 6.375 4.5C7.125 4.5 7.62075 5.523 7.626 5.53275L8.991 4.9125ZM12.2288 12.1448L10.5023 12.6855L10.4985 16.4573C10.4985 16.941 10.188 17.3708 9.729 17.5238L8.74725 17.8507C8.42475 17.952 8.0985 18 7.7775 18C7.2465 18 6.7305 17.8687 6.27075 17.6287C5.3205 17.1322 4.61475 16.17 4.52775 14.9385C4.485 14.3317 4.644 13.7258 4.926 13.1865L6.17025 10.8075C6.3045 10.5518 6.5655 10.4047 6.8355 10.4047C6.9525 10.4047 7.07175 10.4325 7.18275 10.4903C7.5495 10.6823 7.692 11.1353 7.5 11.502L7.1385 12.1927L11.7855 10.7265C11.8597 10.7032 11.934 10.692 12.0082 10.692C12.3247 10.692 12.6172 10.8953 12.717 11.2133C12.84 11.6048 12.6217 12.0218 12.2302 12.1448H12.2288Z" fill="#EE3F65"/>
</g>
<defs>
<clipPath id="clip0_68_1105">
<rect width="18" height="18" fill="white"/>
</clipPath>
</defs>
</svg>
