<svg width="18" height="18" viewBox="0 0 18 18" fill="none" xmlns="http://www.w3.org/2000/svg">
<g clip-path="url(#clip0_70_1115)">
<path d="M9 0C4.03725 0 0 4.03725 0 9C0 13.9628 4.03725 18 9 18C13.9628 18 18 13.9628 18 9C18 4.03725 13.9628 0 9 0ZM9 1.5C11.784 1.5 14.2133 3.0285 15.5077 5.28675C15.399 5.26725 15.2895 5.25 15.177 5.25H10.5653L9.81525 6H8.18625L7.43625 5.25H2.82375C2.71125 5.25 2.60175 5.2665 2.493 5.28675C3.78675 3.0285 6.216 1.5 9.00075 1.5H9ZM15.5048 7.1505L15.252 8.41425C15.1845 8.754 14.8837 9 14.5372 9H12.0338C11.6962 9 11.403 8.77125 11.3212 8.44425L10.9552 6.98025L11.1855 6.75H15.1763C15.3142 6.75 15.3975 6.82725 15.435 6.87225C15.4725 6.91875 15.5318 7.01475 15.5048 7.1505ZM7.044 6.9795L6.678 8.4435C6.59625 8.77125 6.303 8.99925 5.9655 8.99925H3.462C3.11625 8.99925 2.8155 8.75325 2.74725 8.4135L2.4945 7.14975C2.4675 7.014 2.526 6.91725 2.56425 6.8715C2.60175 6.82575 2.685 6.74925 2.823 6.74925H6.81375L7.044 6.9795ZM8.99925 16.4993C4.98075 16.4993 1.70025 13.32 1.5165 9.34575C1.90125 10.0388 2.63625 10.4992 3.46125 10.4992H5.96475C6.99225 10.4992 7.884 9.80325 8.133 8.8065L8.46 7.49925H9.5385L9.8655 8.8065C10.1145 9.80325 11.0063 10.4992 12.0338 10.4992H14.5372C15.3622 10.4992 16.0972 10.0387 16.482 9.3465C16.299 13.32 13.0177 16.4993 8.99925 16.4993ZM12.1252 11.583L13.3732 12.4147C12.2302 14.1292 10.506 14.9985 8.24925 14.9985V13.4985C8.96025 13.4985 10.848 13.4985 12.1252 11.5822V11.583Z" fill="#EE3F65"/>
</g>
<defs>
<clipPath id="clip0_70_1115">
<rect width="18" height="18" fill="white"/>
</clipPath>
</defs>
</svg>
