<svg width="18" height="18" viewBox="0 0 18 18" fill="none" xmlns="http://www.w3.org/2000/svg">
<g clip-path="url(#clip0_70_1110)">
<path d="M18 9C18 13.9628 13.9628 18 9 18C4.03725 18 0 13.9628 0 9C0 8.45025 0.0495 7.89975 0.1485 7.36425C0.2235 6.95625 0.61575 6.68325 1.0215 6.762C1.42875 6.837 1.69875 7.22775 1.62375 7.635C1.542 8.08125 1.5 8.54025 1.5 8.99925C1.5 13.1348 4.8645 16.4993 9 16.4993C13.1355 16.4993 16.5 13.1348 16.5 8.99925C16.5 4.86375 13.1355 1.5 9 1.5C8.30475 1.5 7.617 1.59525 6.954 1.782C6.55575 1.89825 6.141 1.6635 6.0285 1.26525C5.916 0.866254 6.14775 0.451504 6.546 0.339754C7.34175 0.114754 8.1675 0.000753558 9 0.000753558C13.9628 0.000753558 18 4.038 18 9.00075V9ZM6.30225 12.8985C5.9715 13.1445 5.90325 13.611 6.14775 13.944C6.393 14.2763 6.86175 14.3453 7.19475 14.1038C7.203 14.0978 8.03325 13.5 9 13.5C9.96675 13.5 10.797 14.0978 10.8022 14.1015C10.9365 14.202 11.094 14.25 11.2492 14.25C11.4787 14.25 11.7045 14.145 11.8515 13.9478C12.099 13.6163 12.03 13.146 11.6978 12.8993C11.6482 12.8625 10.4738 12.0008 9 12.0008C7.52625 12.0008 6.35175 12.8618 6.30225 12.8985ZM7.5 8.25H4.5C4.086 8.25 3.75 8.58525 3.75 9C3.75 9.41475 4.086 9.75 4.5 9.75H7.5C7.914 9.75 8.25 9.41475 8.25 9C8.25 8.58525 7.914 8.25 7.5 8.25ZM13.5 9.75C13.914 9.75 14.25 9.41475 14.25 9C14.25 8.58525 13.914 8.25 13.5 8.25H10.5C10.086 8.25 9.75 8.58525 9.75 9C9.75 9.41475 10.086 9.75 10.5 9.75H13.5ZM2.625 5.25C3.66075 5.25 4.5 4.41075 4.5 3.375C4.5 2.32275 3.612 0.846004 3.0585 0.198754C2.83125 -0.0674965 2.42175 -0.0659965 2.19525 0.201754C1.64175 0.857254 0.75 2.3475 0.75 3.375C0.75 4.41075 1.58925 5.25 2.625 5.25Z" fill="#EE3F65"/>
</g>
<defs>
<clipPath id="clip0_70_1110">
<rect width="18" height="18" fill="white"/>
</clipPath>
</defs>
</svg>
