<svg width="19" height="19" viewBox="0 0 19 19" fill="none" xmlns="http://www.w3.org/2000/svg">
<path d="M12.6412 8.0855C12.9932 8.0855 13.2924 7.96233 13.5387 7.716C13.7852 7.4695 13.9085 7.17025 13.9085 6.81825C13.9085 6.46625 13.7853 6.167 13.539 5.9205C13.2925 5.67417 12.9933 5.551 12.6415 5.551C12.2895 5.551 11.9903 5.67417 11.7438 5.9205C11.4973 6.16683 11.374 6.466 11.374 6.818C11.374 7.17 11.4972 7.46925 11.7435 7.71575C11.99 7.96225 12.2892 8.0855 12.6412 8.0855ZM5.9545 8.0855C6.3065 8.0855 6.60575 7.96233 6.85225 7.716C7.09875 7.4695 7.222 7.17025 7.222 6.81825C7.222 6.46625 7.09883 6.167 6.8525 5.9205C6.606 5.67417 6.30675 5.551 5.95475 5.551C5.60275 5.551 5.30358 5.67417 5.05725 5.9205C4.81075 6.16683 4.6875 6.466 4.6875 6.818C4.6875 7.17 4.81067 7.46925 5.057 7.71575C5.3035 7.96225 5.60267 8.0855 5.9545 8.0855ZM6.5135 11.6297C5.67367 12.1977 5.05117 12.9509 4.646 13.8892H5.8885C6.25517 13.2861 6.739 12.8053 7.34 12.447C7.941 12.0887 8.59367 11.9095 9.298 11.9095C10.0023 11.9095 10.655 12.0887 11.256 12.447C11.857 12.8053 12.3408 13.2861 12.7075 13.8892H13.95C13.5448 12.9509 12.9217 12.1977 12.0807 11.6297C11.2396 11.0617 10.3113 10.7777 9.296 10.7777C8.28067 10.7777 7.35317 11.0617 6.5135 11.6297ZM5.674 17.864C4.54233 17.376 3.55808 16.7127 2.72125 15.8742C1.88458 15.0357 1.22183 14.0521 0.733 12.9233C0.244333 11.7946 0 10.5872 0 9.301C0 8.01483 0.244 6.80583 0.732 5.674C1.22 4.54233 1.88325 3.55808 2.72175 2.72125C3.56025 1.88458 4.54392 1.22183 5.67275 0.733C6.80142 0.244334 8.00883 0 9.295 0C10.5812 0 11.7902 0.243999 12.922 0.731999C14.0537 1.22 15.0379 1.88325 15.8747 2.72175C16.7114 3.56025 17.3742 4.54392 17.863 5.67275C18.3517 6.80142 18.596 8.00883 18.596 9.295C18.596 10.5812 18.352 11.7902 17.864 12.922C17.376 14.0537 16.7127 15.0379 15.8742 15.8747C15.0357 16.7114 14.0521 17.3742 12.9233 17.863C11.7946 18.3517 10.5872 18.596 9.301 18.596C8.01483 18.596 6.80583 18.352 5.674 17.864ZM14.896 14.8965C16.43 13.3627 17.197 11.4966 17.197 9.29825C17.197 7.10008 16.4302 5.234 14.8965 3.7C13.3627 2.166 11.4966 1.399 9.29825 1.399C7.10008 1.399 5.234 2.16583 3.7 3.6995C2.166 5.23333 1.399 7.09942 1.399 9.29775C1.399 11.4959 2.16583 13.362 3.6995 14.896C5.23333 16.43 7.09942 17.197 9.29775 17.197C11.4959 17.197 13.362 16.4302 14.896 14.8965Z" fill="#EE3F65"/>
</svg>
