<svg width="10" height="13" viewBox="0 0 10 13" fill="none" xmlns="http://www.w3.org/2000/svg">
<path d="M4.70001 0.100342C5.41627 0.100342 6.02631 0.361584 6.52325 0.881592C7.01978 1.40132 7.2673 2.03828 7.2674 2.78589V4.09448H8.21759C8.51819 4.09448 8.77672 4.20529 8.98615 4.42456C9.19542 4.64348 9.2996 4.91118 9.29962 5.22144V11.1726C9.29958 11.4828 9.19543 11.7506 8.98615 11.9695C8.77672 12.1888 8.51819 12.2996 8.21759 12.2996H1.18243C0.881832 12.2996 0.6233 12.1888 0.413879 11.9695C0.204593 11.7506 0.100449 11.4828 0.100403 11.1726V5.22144C0.100427 4.91118 0.204603 4.64348 0.413879 4.42456C0.6233 4.20529 0.881833 4.09448 1.18243 4.09448H2.13263V2.78589C2.13273 2.03828 2.38024 1.40132 2.87677 0.881592C3.37371 0.361584 3.98375 0.100342 4.70001 0.100342ZM1.18243 4.74976C1.04808 4.74976 0.94323 4.79374 0.861145 4.87964C0.778861 4.96584 0.73519 5.07706 0.735168 5.22144V11.1726C0.73521 11.317 0.778848 11.4282 0.861145 11.5144C0.94323 11.6003 1.04808 11.6443 1.18243 11.6443H8.21759C8.35195 11.6443 8.45679 11.6003 8.53888 11.5144C8.62118 11.4282 8.66481 11.317 8.66486 11.1726V5.22144C8.66483 5.07706 8.62116 4.96584 8.53888 4.87964C8.45679 4.79374 8.35195 4.74976 8.21759 4.74976H1.18243ZM4.70099 7.15894C4.98452 7.15894 5.22539 7.25964 5.41486 7.46069C5.60332 7.66071 5.697 7.90877 5.69708 8.198C5.69708 8.48774 5.60271 8.73607 5.4129 8.9353C5.22253 9.13491 4.98209 9.23502 4.69904 9.23511C4.41551 9.23511 4.17463 9.1344 3.98517 8.93335C3.79659 8.73324 3.70294 8.4845 3.70294 8.19507C3.70304 7.90556 3.79745 7.65786 3.98712 7.45874C4.17749 7.25913 4.41793 7.15903 4.70099 7.15894ZM4.70099 0.755615C4.16454 0.755627 3.71088 0.951627 3.3338 1.34644C2.95661 1.74127 2.7674 2.21894 2.7674 2.78589V4.09448H6.63263V2.78101C6.63263 2.21711 6.44384 1.74027 6.0672 1.34546C5.69087 0.951097 5.23735 0.755615 4.70099 0.755615Z" fill="#7F7F7F" stroke="#7F7F7F" stroke-width="0.2"/>
</svg>
