<svg width="206" height="42" viewBox="0 0 206 42" fill="none" xmlns="http://www.w3.org/2000/svg">
<path d="M205.986 30.1403C206.155 27.6649 204.826 25.3604 202.104 25.3604C199.675 25.3604 198.022 27.1965 198.022 29.6118C198.022 32.0271 199.583 33.8475 202.104 33.8475C203.914 33.8475 205.228 33.0541 205.847 31.1397H203.914C203.775 31.6369 203.062 32.1836 202.181 32.1836C200.944 32.1836 200.279 31.5599 200.217 30.1416H205.986V30.1403ZM200.217 28.7401C200.264 28.1164 200.619 27.0243 202.041 27.0243C203.109 27.0243 203.588 27.6167 203.789 28.7401H200.217Z" fill="white"/>
<path d="M144.263 16.0147H156.565V19.2728H148.11V23.3448H155.438V26.3549H148.11V33.6356H144.263V16.0147Z" fill="#EE3F65"/>
<path d="M136.926 33.6356H132.589L126.903 16.0147H130.873L134.769 28.4042H134.818L138.765 16.0147H142.734L136.926 33.6356Z" fill="#EE3F65"/>
<path d="M115.507 12.9047H115.039V33.7043H115.507V12.9047Z" fill="#A6A8AB"/>
<path d="M196.794 40.9874L196.895 40.5082H197.37L197.268 40.9874H196.794ZM195.473 40.9874L195.572 40.5082H196.048L195.947 40.9874H195.473ZM194.152 40.9874L194.251 40.5082H194.727L194.625 40.9874H194.152ZM191.977 39.5209H193.368C193.37 39.4788 193.371 39.4475 193.371 39.4282C193.371 39.2175 193.318 39.055 193.214 38.943C193.107 38.831 192.971 38.7744 192.805 38.7744C192.624 38.7744 192.459 38.837 192.311 38.961C192.161 39.0851 192.053 39.2717 191.977 39.5209ZM193.205 40.1434L193.614 40.1819C193.557 40.3866 193.42 40.5793 193.208 40.7647C192.996 40.9477 192.744 41.0404 192.451 41.0404C192.268 41.0404 192.099 40.9983 191.947 40.9128C191.794 40.8285 191.677 40.7057 191.597 40.5431C191.517 40.3806 191.479 40.1964 191.479 39.9905C191.479 39.7196 191.54 39.4571 191.665 39.2019C191.791 38.9466 191.952 38.7576 192.151 38.6348C192.35 38.5107 192.566 38.4505 192.795 38.4505C193.09 38.4505 193.326 38.5408 193.502 38.7263C193.677 38.9093 193.766 39.1597 193.766 39.4764C193.766 39.5968 193.755 39.722 193.734 39.8484H191.91C191.904 39.8978 191.901 39.9411 191.901 39.9796C191.901 40.2132 191.952 40.3902 192.06 40.513C192.166 40.6346 192.298 40.696 192.453 40.696C192.597 40.696 192.74 40.6491 192.879 40.554C193.019 40.4613 193.127 40.324 193.205 40.1446M190.712 40.0832L191.136 40.1253C191.029 40.436 190.881 40.6647 190.685 40.8152C190.491 40.9645 190.27 41.0404 190.023 41.0404C189.752 41.0404 189.536 40.9525 189.369 40.7779C189.202 40.6045 189.119 40.3613 189.119 40.0483C189.119 39.7774 189.171 39.5125 189.278 39.25C189.385 38.9887 189.538 38.7889 189.738 38.6528C189.938 38.5156 190.165 38.4481 190.421 38.4481C190.677 38.4481 190.895 38.524 191.051 38.6733C191.205 38.825 191.283 39.0237 191.283 39.2717L190.869 39.3006C190.868 39.1441 190.822 39.02 190.734 38.9309C190.644 38.8431 190.526 38.7985 190.381 38.7985C190.212 38.7985 190.066 38.8515 189.941 38.9598C189.817 39.0658 189.72 39.2295 189.65 39.4475C189.578 39.6666 189.544 39.8773 189.544 40.0796C189.544 40.2819 189.591 40.4492 189.684 40.5552C189.778 40.6611 189.891 40.7141 190.027 40.7141C190.164 40.7141 190.294 40.6611 190.421 40.5576C190.545 40.454 190.643 40.2951 190.715 40.082M188.19 39.7256C188.13 39.7485 188.067 39.7677 187.999 39.781C187.932 39.793 187.818 39.8063 187.66 39.8207C187.415 39.8412 187.244 39.8701 187.143 39.9038C187.042 39.9363 186.966 39.9905 186.915 40.0639C186.864 40.1374 186.839 40.2193 186.839 40.3071C186.839 40.4263 186.88 40.5227 186.961 40.5985C187.042 40.6744 187.157 40.7141 187.309 40.7141C187.447 40.7141 187.581 40.678 187.709 40.6021C187.84 40.5275 187.94 40.4251 188.015 40.2927C188.089 40.1603 188.148 39.9712 188.191 39.7256M188.033 40.678C187.886 40.8032 187.746 40.8947 187.612 40.9525C187.477 41.0103 187.335 41.0392 187.18 41.0392C186.951 41.0392 186.768 40.9718 186.628 40.8369C186.49 40.7033 186.42 40.5311 186.42 40.3204C186.42 40.1819 186.453 40.0591 186.514 39.952C186.577 39.846 186.66 39.7605 186.762 39.6955C186.866 39.6317 186.992 39.5835 187.144 39.557C187.239 39.5378 187.417 39.5233 187.684 39.5113C187.948 39.5005 188.138 39.4728 188.253 39.4282C188.285 39.3126 188.302 39.2163 188.302 39.1404C188.302 39.0429 188.268 38.9659 188.196 38.9093C188.098 38.8322 187.956 38.7925 187.767 38.7925C187.588 38.7925 187.444 38.8322 187.331 38.9105C187.219 38.9899 187.137 39.1019 187.086 39.2476L186.662 39.2103C186.748 38.9647 186.885 38.7744 187.073 38.6456C187.261 38.5144 187.499 38.4493 187.786 38.4493C188.089 38.4493 188.331 38.5228 188.509 38.6685C188.644 38.778 188.712 38.9201 188.712 39.0947C188.712 39.2259 188.693 39.38 188.655 39.5546L188.521 40.1723C188.477 40.3673 188.456 40.5275 188.456 40.6515C188.456 40.7298 188.472 40.8417 188.507 40.9886H188.082C188.06 40.908 188.043 40.8044 188.033 40.6804M184.79 40.9886L185.304 38.5023H185.678L185.572 39.0104C185.7 38.8202 185.825 38.6781 185.947 38.5866C186.069 38.4951 186.192 38.4481 186.319 38.4481C186.402 38.4481 186.505 38.4794 186.626 38.5384L186.455 38.9309C186.382 38.878 186.302 38.8503 186.216 38.8503C186.069 38.8503 185.917 38.9346 185.762 39.0995C185.607 39.2645 185.483 39.5619 185.395 39.9905L185.188 40.9874H184.788L184.79 40.9886ZM182.644 39.8906C182.644 40.0591 182.66 40.1867 182.693 40.2734C182.739 40.3938 182.806 40.4853 182.892 40.548C182.978 40.6118 183.074 40.6431 183.18 40.6431C183.318 40.6431 183.455 40.5949 183.592 40.4974C183.729 40.3999 183.84 40.2494 183.924 40.0447C184.009 39.84 184.051 39.6437 184.051 39.4583C184.051 39.2548 183.995 39.0923 183.882 38.9695C183.77 38.8491 183.631 38.7889 183.464 38.7889C183.363 38.7889 183.263 38.8166 183.166 38.872C183.07 38.9261 182.98 39.0116 182.897 39.1236C182.813 39.2368 182.751 39.3728 182.708 39.5293C182.666 39.6883 182.644 39.8063 182.644 39.8893M182.115 41.2126L182.544 41.2499C182.541 41.3474 182.553 41.4209 182.579 41.469C182.605 41.5184 182.648 41.5557 182.705 41.5822C182.781 41.6159 182.878 41.6328 182.999 41.6328C183.252 41.6328 183.435 41.5678 183.546 41.4341C183.619 41.3462 183.686 41.1512 183.748 40.8538L183.79 40.6527C183.573 40.8754 183.341 40.9874 183.094 40.9874C182.848 40.9874 182.638 40.8947 182.47 40.7105C182.301 40.5263 182.218 40.265 182.218 39.9267C182.218 39.6461 182.283 39.3909 182.415 39.1573C182.547 38.9225 182.703 38.7455 182.888 38.6275C183.069 38.5083 183.257 38.4481 183.449 38.4481C183.772 38.4481 184.021 38.5998 184.197 38.9045L184.283 38.5011H184.671L184.17 40.9007C184.115 41.1656 184.045 41.3703 183.958 41.5184C183.869 41.6653 183.746 41.7809 183.589 41.8603C183.433 41.9422 183.25 41.9831 183.045 41.9831C182.841 41.9831 182.676 41.9579 182.532 41.9061C182.389 41.8555 182.283 41.7785 182.212 41.6809C182.142 41.581 182.107 41.4678 182.107 41.339C182.107 41.3005 182.11 41.2583 182.115 41.2126ZM177.822 39.8809L178.269 39.8376L178.264 39.9568C178.264 40.0892 178.294 40.2108 178.354 40.3204C178.414 40.43 178.514 40.5154 178.654 40.5756C178.793 40.6358 178.958 40.6659 179.149 40.6659C179.42 40.6659 179.629 40.6057 179.772 40.4853C179.914 40.3649 179.987 40.2277 179.987 40.0724C179.987 39.964 179.949 39.8653 179.874 39.7774C179.796 39.6895 179.584 39.5715 179.239 39.4222C178.972 39.3054 178.79 39.2163 178.692 39.1525C178.539 39.0513 178.427 38.9418 178.354 38.8214C178.281 38.7022 178.245 38.5673 178.245 38.4132C178.245 38.2374 178.293 38.0773 178.39 37.9364C178.486 37.7931 178.625 37.6848 178.811 37.6125C178.995 37.5367 179.204 37.4994 179.436 37.4994C179.713 37.4994 179.948 37.5451 180.137 37.639C180.327 37.7329 180.465 37.8582 180.55 38.0123C180.636 38.1688 180.678 38.3181 180.678 38.4602V38.53L180.237 38.5649C180.237 38.4674 180.227 38.3915 180.211 38.3374C180.181 38.2434 180.133 38.1628 180.068 38.0978C180.003 38.0315 179.914 37.9786 179.802 37.9388C179.687 37.9003 179.562 37.8798 179.42 37.8798C179.173 37.8798 178.982 37.9364 178.845 38.0496C178.739 38.1351 178.688 38.2495 178.688 38.3915C178.688 38.4758 178.708 38.5517 178.752 38.6179C178.795 38.6841 178.874 38.7491 178.986 38.8129C179.067 38.8587 179.259 38.9466 179.558 39.0814C179.803 39.191 179.97 39.2765 180.064 39.3379C180.187 39.4222 180.281 39.5209 180.347 39.6389C180.415 39.7569 180.449 39.8905 180.449 40.0398C180.449 40.2253 180.391 40.3962 180.28 40.5516C180.168 40.7081 180.012 40.8297 179.815 40.9152C179.617 41.0007 179.391 41.044 179.134 41.044C178.747 41.044 178.434 40.9609 178.19 40.7912C177.946 40.6226 177.823 40.3192 177.822 39.8797M176.444 40.9862L177.157 37.556H177.609L176.897 40.9862H176.445H176.444ZM172.938 40.9862L173.652 37.556H174.104L173.806 38.9839H175.582L175.878 37.556H176.33L175.616 40.9862H175.164L175.499 39.3716H173.725L173.39 40.9862H172.938ZM170.368 40.9862L170.467 40.507H170.943L170.84 40.9862H170.368ZM169.046 40.9862L169.146 40.507H169.621L169.518 40.9862H169.046ZM167.724 40.9862L167.825 40.507H168.3L168.197 40.9862H167.723H167.724ZM165.27 40.1326L165.694 40.1085C165.694 40.2301 165.712 40.3336 165.751 40.4203C165.788 40.5058 165.855 40.5756 165.954 40.6298C166.053 40.6852 166.169 40.7129 166.301 40.7129C166.485 40.7129 166.623 40.6756 166.717 40.6009C166.809 40.5251 166.854 40.4372 166.854 40.336C166.854 40.2626 166.825 40.194 166.772 40.129C166.717 40.0627 166.576 39.9821 166.357 39.8869C166.136 39.7918 165.994 39.7256 165.932 39.6859C165.828 39.6233 165.751 39.5486 165.697 39.4607C165.643 39.374 165.618 39.2753 165.618 39.1621C165.618 38.9683 165.694 38.7997 165.849 38.6588C166.003 38.5192 166.219 38.4493 166.495 38.4493C166.805 38.4493 167.041 38.5204 167.201 38.6649C167.363 38.8093 167.446 38.9996 167.453 39.2344L167.043 39.2633C167.036 39.114 166.984 38.9936 166.886 38.9057C166.788 38.8178 166.65 38.7744 166.47 38.7744C166.324 38.7744 166.212 38.8081 166.132 38.8744C166.051 38.943 166.011 39.0152 166.011 39.0935C166.011 39.1717 166.046 39.2404 166.115 39.2994C166.162 39.3403 166.28 39.4029 166.473 39.486C166.793 39.6257 166.994 39.7352 167.076 39.8171C167.21 39.9447 167.276 40.1025 167.276 40.2879C167.276 40.4107 167.239 40.5323 167.163 40.6503C167.088 40.7683 166.975 40.8622 166.821 40.9344C166.668 41.0043 166.486 41.0404 166.279 41.0404C165.996 41.0404 165.752 40.9694 165.555 40.8261C165.355 40.6852 165.26 40.454 165.269 40.1338M164.887 40.6431L164.818 40.9898C164.716 41.0151 164.62 41.0296 164.525 41.0296C164.358 41.0296 164.225 40.9874 164.127 40.9055C164.054 40.8429 164.016 40.7574 164.016 40.6491C164.016 40.5949 164.036 40.4685 164.076 40.2722L164.376 38.8262H164.042L164.109 38.5011H164.443L164.569 37.8907L165.051 37.6005L164.86 38.5011H165.275L165.203 38.8262H164.794L164.508 40.2012C164.474 40.3746 164.456 40.4805 164.456 40.5154C164.456 40.5648 164.471 40.6033 164.499 40.6298C164.528 40.6563 164.575 40.6696 164.639 40.6696C164.731 40.6696 164.816 40.6599 164.887 40.6431ZM162.327 40.9862L162.839 38.4999H163.214L163.108 39.008C163.236 38.8178 163.361 38.6757 163.483 38.5842C163.603 38.4927 163.729 38.4457 163.856 38.4457C163.939 38.4457 164.041 38.477 164.164 38.536L163.993 38.9285C163.92 38.8756 163.84 38.8479 163.754 38.8479C163.607 38.8479 163.455 38.9322 163.3 39.0971C163.144 39.2621 163.022 39.5594 162.932 39.9881L162.726 40.985H162.327V40.9862ZM160.171 40.0001C160.171 40.2337 160.227 40.4107 160.338 40.5311C160.45 40.6515 160.593 40.7129 160.765 40.7129C160.856 40.7129 160.946 40.6936 161.033 40.6575C161.121 40.6214 161.204 40.566 161.28 40.4914C161.358 40.4167 161.423 40.3312 161.477 40.2349C161.53 40.1398 161.573 40.0362 161.607 39.9255C161.655 39.7714 161.679 39.6245 161.679 39.4812C161.679 39.2572 161.622 39.0839 161.51 38.9598C161.396 38.8358 161.254 38.7732 161.084 38.7732C160.952 38.7732 160.831 38.8057 160.723 38.8695C160.613 38.9309 160.515 39.0237 160.427 39.1453C160.34 39.2669 160.275 39.4077 160.234 39.5703C160.193 39.7316 160.172 39.8749 160.172 40.0013M159.754 40.0435C159.754 39.5594 159.895 39.1585 160.179 38.8406C160.412 38.5794 160.719 38.4493 161.099 38.4493C161.394 38.4493 161.634 38.5433 161.816 38.7299C161.997 38.9165 162.089 39.1681 162.089 39.486C162.089 39.7701 162.031 40.035 161.918 40.2807C161.804 40.5263 161.64 40.7141 161.429 40.8441C161.217 40.9754 160.995 41.0416 160.762 41.0416C160.57 41.0416 160.396 40.9995 160.24 40.9164C160.083 40.8345 159.963 40.7177 159.88 40.5672C159.797 40.4155 159.756 40.2409 159.756 40.0447M158.405 40.9886L158.861 38.8286H158.49L158.557 38.5035H158.93L159.002 38.1507C159.038 37.9749 159.077 37.8485 159.115 37.7703C159.155 37.6932 159.218 37.6294 159.307 37.5776C159.395 37.5283 159.517 37.503 159.67 37.503C159.778 37.503 159.932 37.5246 160.134 37.5692L160.057 37.94C159.916 37.9039 159.796 37.8859 159.701 37.8859C159.621 37.8859 159.556 37.9063 159.515 37.9473C159.472 37.987 159.433 38.0845 159.403 38.2386L159.347 38.5047H159.822L159.755 38.8298H159.278L158.824 40.9898H158.405V40.9886ZM157.084 40.9886L157.538 38.8286H157.168L157.235 38.5035H157.608L157.679 38.1507C157.715 37.9749 157.754 37.8485 157.793 37.7703C157.834 37.6932 157.896 37.6294 157.984 37.5776C158.074 37.5283 158.195 37.503 158.348 37.503C158.454 37.503 158.608 37.5246 158.812 37.5692L158.735 37.94C158.593 37.9039 158.473 37.8859 158.378 37.8859C158.296 37.8859 158.233 37.9063 158.19 37.9473C158.148 37.987 158.112 38.0845 158.08 38.2386L158.025 38.5047H158.5L158.434 38.8298H157.957L157.5 40.9898H157.083L157.084 40.9886ZM154.981 39.5221H156.373C156.373 39.48 156.375 39.4487 156.375 39.4294C156.375 39.2187 156.323 39.0562 156.217 38.9442C156.111 38.8322 155.975 38.7756 155.807 38.7756C155.627 38.7756 155.462 38.8382 155.315 38.9623C155.165 39.0863 155.055 39.2729 154.981 39.5221ZM156.209 40.1446L156.618 40.1831C156.558 40.3878 156.422 40.5805 156.21 40.7659C155.999 40.9489 155.746 41.0416 155.453 41.0416C155.27 41.0416 155.102 40.9995 154.949 40.914C154.796 40.8297 154.679 40.7069 154.6 40.5443C154.52 40.3818 154.48 40.1976 154.48 39.9917C154.48 39.7208 154.542 39.4583 154.668 39.2031C154.793 38.9478 154.955 38.7588 155.153 38.636C155.352 38.5119 155.567 38.4517 155.799 38.4517C156.094 38.4517 156.327 38.542 156.504 38.7275C156.682 38.9105 156.768 39.1609 156.768 39.4776C156.768 39.598 156.758 39.7232 156.736 39.8496H154.913C154.907 39.899 154.905 39.9423 154.905 39.9809C154.905 40.2144 154.957 40.3914 155.065 40.5142C155.17 40.6358 155.302 40.6972 155.456 40.6972C155.6 40.6972 155.743 40.6503 155.883 40.5552C156.021 40.4625 156.131 40.3252 156.209 40.1458M151.489 40.9898L152.003 38.5035H152.378L152.272 39.0116C152.4 38.8214 152.524 38.6793 152.647 38.5878C152.768 38.4963 152.892 38.4493 153.019 38.4493C153.102 38.4493 153.205 38.4806 153.328 38.5396L153.157 38.9322C153.084 38.8792 153.004 38.8515 152.918 38.8515C152.771 38.8515 152.618 38.9358 152.463 39.1007C152.308 39.2657 152.186 39.5631 152.096 39.9917L151.891 40.9886H151.49L151.489 40.9898ZM150.527 40.5395C150.231 40.8742 149.928 41.0416 149.617 41.0416C149.427 41.0416 149.274 40.9874 149.156 40.8779C149.039 40.7683 148.981 40.6346 148.981 40.4769C148.981 40.371 149.011 40.194 149.067 39.9387L149.39 38.5035H149.813L149.453 40.1121C149.423 40.2457 149.409 40.3505 149.409 40.4251C149.409 40.5106 149.437 40.5781 149.495 40.6238C149.552 40.672 149.637 40.696 149.749 40.696C149.869 40.696 149.985 40.6684 150.1 40.6106C150.213 40.5528 150.311 40.4757 150.395 40.377C150.476 40.2795 150.544 40.1639 150.597 40.0302C150.632 39.9459 150.671 39.7966 150.717 39.5823L150.951 38.5023H151.368L150.823 40.9886H150.434L150.527 40.5383V40.5395ZM146.69 40.0037C146.69 40.2373 146.746 40.4143 146.857 40.5347C146.969 40.6551 147.112 40.7165 147.284 40.7165C147.374 40.7165 147.464 40.6972 147.552 40.6611C147.64 40.625 147.723 40.5696 147.799 40.495C147.877 40.4203 147.942 40.3348 147.996 40.2385C148.048 40.1434 148.092 40.0399 148.123 39.9291C148.172 39.775 148.196 39.6281 148.196 39.4848C148.196 39.2608 148.139 39.0875 148.028 38.9634C147.914 38.8394 147.772 38.7768 147.601 38.7768C147.468 38.7768 147.349 38.8093 147.241 38.8731C147.131 38.9346 147.033 39.0273 146.946 39.1489C146.857 39.2705 146.793 39.4113 146.751 39.5739C146.71 39.7352 146.69 39.8785 146.69 40.0049M146.27 40.0471C146.27 39.5631 146.413 39.1621 146.696 38.8443C146.93 38.583 147.235 38.4529 147.615 38.4529C147.912 38.4529 148.151 38.5469 148.334 38.7335C148.516 38.9201 148.606 39.1718 148.606 39.4896C148.606 39.7738 148.548 40.0386 148.434 40.2843C148.321 40.5299 148.157 40.7177 147.947 40.8478C147.735 40.979 147.513 41.0452 147.278 41.0452C147.086 41.0452 146.912 41.0031 146.755 40.92C146.597 40.8381 146.477 40.7213 146.394 40.5708C146.312 40.4191 146.27 40.2445 146.27 40.0483M143.671 40.9922L143.77 40.513H144.248L144.146 40.9922H143.672H143.671ZM142.35 40.9922L142.449 40.513H142.926L142.824 40.9922H142.35ZM141.028 40.9922L141.127 40.513H141.603L141.501 40.9922H141.028ZM138.269 40.9922L138.982 37.562H139.4L139.126 38.8792C139.279 38.7275 139.423 38.6179 139.555 38.5505C139.688 38.4855 139.824 38.4517 139.965 38.4517C140.166 38.4517 140.323 38.5059 140.434 38.6143C140.545 38.7214 140.6 38.8647 140.6 39.0429C140.6 39.1308 140.575 39.2897 140.521 39.5233L140.199 40.9898H139.781L140.111 39.4884C140.158 39.2705 140.181 39.1332 140.181 39.0766C140.181 38.996 140.155 38.9285 140.099 38.878C140.044 38.8274 139.965 38.8009 139.862 38.8009C139.714 38.8009 139.571 38.8406 139.437 38.9213C139.302 39.002 139.196 39.1115 139.119 39.25C139.042 39.3885 138.972 39.6136 138.909 39.9243L138.687 40.9898H138.27L138.269 40.9922ZM137.925 40.6491L137.855 40.9958C137.754 41.0211 137.658 41.0356 137.563 41.0356C137.396 41.0356 137.263 40.9934 137.164 40.9116C137.09 40.849 137.053 40.7635 137.053 40.6551C137.053 40.6009 137.073 40.4745 137.112 40.2782L137.413 38.8322H137.079L137.146 38.5071H137.478L137.606 37.8967L138.088 37.6065L137.898 38.5071H138.313L138.24 38.8322H137.831L137.546 40.2072C137.511 40.3806 137.494 40.4865 137.494 40.5215C137.494 40.5708 137.508 40.6094 137.537 40.6358C137.564 40.6623 137.612 40.6756 137.677 40.6756C137.77 40.6756 137.854 40.6659 137.927 40.6491M135.882 40.9922L136.4 38.5059H136.816L136.301 40.9922H135.882ZM136.496 38.0412L136.596 37.562H137.013L136.913 38.0412H136.494H136.496ZM135.064 39.7304C135.005 39.7533 134.94 39.7726 134.873 39.7858C134.805 39.7978 134.693 39.8111 134.534 39.8255C134.29 39.846 134.118 39.8749 134.017 39.9086C133.916 39.9411 133.84 39.9953 133.79 40.0688C133.739 40.1422 133.714 40.2241 133.714 40.312C133.714 40.4312 133.755 40.5275 133.835 40.6033C133.917 40.6792 134.033 40.7189 134.182 40.7189C134.321 40.7189 134.456 40.6828 134.585 40.6069C134.713 40.5323 134.816 40.43 134.891 40.2975C134.965 40.1651 135.024 39.976 135.066 39.7304M134.909 40.6828C134.762 40.808 134.622 40.8995 134.488 40.9573C134.353 41.0151 134.21 41.044 134.054 41.044C133.827 41.044 133.644 40.9766 133.504 40.8417C133.366 40.7081 133.295 40.5359 133.295 40.3252C133.295 40.1867 133.327 40.0639 133.39 39.9568C133.452 39.8508 133.535 39.7653 133.637 39.7003C133.742 39.6365 133.869 39.5883 134.02 39.5619C134.114 39.5426 134.295 39.5281 134.559 39.5161C134.824 39.5053 135.014 39.4776 135.129 39.433C135.161 39.3174 135.177 39.2211 135.177 39.1453C135.177 39.0477 135.142 38.9707 135.07 38.9141C134.972 38.837 134.829 38.7973 134.641 38.7973C134.464 38.7973 134.32 38.837 134.206 38.9153C134.094 38.9948 134.011 39.1067 133.961 39.2524L133.538 39.2151C133.624 38.9695 133.76 38.7792 133.948 38.6504C134.136 38.5192 134.372 38.4541 134.659 38.4541C134.964 38.4541 135.204 38.5276 135.383 38.6733C135.518 38.7828 135.587 38.9249 135.587 39.0995C135.587 39.2307 135.567 39.3849 135.53 39.5594L135.394 40.1771C135.35 40.3722 135.33 40.5323 135.33 40.6563C135.33 40.7346 135.347 40.8465 135.381 40.9934H134.956C134.933 40.9128 134.915 40.8092 134.908 40.6852M131.969 40.9934L132.424 38.8334H132.054L132.12 38.5083H132.493L132.565 38.1556C132.6 37.9798 132.64 37.8533 132.678 37.7751C132.718 37.698 132.782 37.6342 132.869 37.5824C132.959 37.5331 133.08 37.5078 133.233 37.5078C133.341 37.5078 133.494 37.5295 133.698 37.574L133.621 37.9448C133.48 37.9087 133.358 37.8907 133.264 37.8907C133.183 37.8907 133.121 37.9111 133.078 37.9521C133.036 37.9918 132.999 38.0893 132.966 38.2434L132.911 38.5095H133.386L133.317 38.8346H132.84L132.384 40.9946H131.967L131.969 40.9934ZM129.021 40.9934L129.534 38.5071H129.909L129.803 39.0152C129.931 38.825 130.055 38.6829 130.177 38.5914C130.299 38.4999 130.423 38.4529 130.549 38.4529C130.633 38.4529 130.735 38.4842 130.859 38.5432L130.688 38.9358C130.615 38.8828 130.535 38.8551 130.447 38.8551C130.3 38.8551 130.147 38.9394 129.993 39.1043C129.839 39.2693 129.714 39.5667 129.625 39.9953L129.419 40.9922H129.02L129.021 40.9934ZM128.056 40.5431C127.761 40.8779 127.457 41.0452 127.148 41.0452C126.959 41.0452 126.802 40.991 126.687 40.8815C126.57 40.7719 126.51 40.6383 126.51 40.4805C126.51 40.3746 126.54 40.1976 126.596 39.9423L126.922 38.5071H127.345L126.985 40.1157C126.955 40.2493 126.94 40.3541 126.94 40.4288C126.94 40.5142 126.968 40.5817 127.026 40.6274C127.083 40.6756 127.168 40.6997 127.279 40.6997C127.399 40.6997 127.516 40.672 127.629 40.6142C127.744 40.5564 127.842 40.4793 127.923 40.3806C128.006 40.2831 128.074 40.1675 128.127 40.0338C128.16 39.9495 128.201 39.8003 128.245 39.5859L128.481 38.5059H128.899L128.354 40.9922H127.965L128.056 40.5419V40.5431ZM124.22 40.0073C124.22 40.2409 124.277 40.4179 124.388 40.5383C124.501 40.6587 124.643 40.7201 124.815 40.7201C124.906 40.7201 124.996 40.7009 125.083 40.6647C125.171 40.6286 125.254 40.5732 125.33 40.4986C125.408 40.4239 125.471 40.3385 125.525 40.2421C125.579 40.147 125.622 40.0435 125.656 39.9327C125.705 39.7786 125.727 39.6317 125.727 39.4884C125.727 39.2645 125.671 39.0911 125.559 38.9671C125.445 38.8431 125.303 38.7804 125.133 38.7804C125 38.7804 124.88 38.813 124.772 38.8768C124.662 38.9382 124.564 39.0309 124.477 39.1525C124.388 39.2741 124.324 39.415 124.283 39.5775C124.241 39.7388 124.221 39.8821 124.221 40.0085M123.802 40.0507C123.802 39.5667 123.944 39.1657 124.226 38.8479C124.46 38.5866 124.766 38.4566 125.146 38.4566C125.442 38.4566 125.681 38.5505 125.864 38.7371C126.045 38.9237 126.137 39.1754 126.137 39.4932C126.137 39.7774 126.08 40.0423 125.966 40.2879C125.852 40.5335 125.688 40.7213 125.477 40.8514C125.266 40.9826 125.045 41.0488 124.809 41.0488C124.619 41.0488 124.443 41.0067 124.287 40.9236C124.129 40.8417 124.009 40.7249 123.927 40.5744C123.844 40.4227 123.804 40.2481 123.804 40.0519M121.193 41.9518L121.215 41.5509C121.303 41.5762 121.386 41.5882 121.469 41.5882C121.551 41.5882 121.623 41.5702 121.676 41.5292C121.745 41.4799 121.819 41.3823 121.899 41.2415L122.034 40.9995L121.624 38.5083H122.038L122.223 39.7581C122.26 40.0049 122.292 40.2506 122.319 40.4986L123.421 38.5083H123.857L122.286 41.3197C122.135 41.5942 122 41.7773 121.882 41.8664C121.764 41.9555 121.629 42 121.476 42C121.378 42 121.283 41.9832 121.19 41.9506" fill="#58595B"/>
<path d="M167.381 26.2453C167.087 23.6759 165.031 22.2444 162.618 22.2444C159.216 22.2444 157.192 24.8125 157.192 28.1164C157.192 31.4202 159.216 33.8933 162.618 33.8933C165.341 33.8933 167.227 32.1354 167.475 29.3469H165.124C164.939 30.8266 164.103 31.8392 162.618 31.8392C160.438 31.8392 159.617 29.9694 159.617 28.1152C159.617 26.1671 160.438 24.2972 162.618 24.2972C163.809 24.2972 164.861 25.1388 165.031 26.2441H167.381V26.2453Z" fill="white"/>
<path d="M176.476 30.1403C176.646 27.6649 175.316 25.3604 172.594 25.3604C170.166 25.3604 168.512 27.1965 168.512 29.6118C168.512 32.0271 170.074 33.8475 172.594 33.8475C174.404 33.8475 175.718 33.0541 176.337 31.1397H174.404C174.264 31.6369 173.553 32.1836 172.672 32.1836C171.434 32.1836 170.77 31.5599 170.707 30.1416H176.477L176.476 30.1403ZM170.706 28.7401C170.753 28.1164 171.108 27.0243 172.532 27.0243C173.599 27.0243 174.079 27.6167 174.28 28.7401H170.707H170.706Z" fill="white"/>
<path d="M177.777 33.6296H179.97V29.4083C179.97 27.7732 180.481 27.1026 181.673 27.1026C182.709 27.1026 183.081 27.7564 183.081 29.0808V33.6296H185.276V28.6763C185.276 26.6824 184.689 25.3604 182.354 25.3604C181.425 25.3604 180.467 25.7806 179.909 26.698H179.863V25.5783H177.777V33.6296Z" fill="white"/>
<path d="M189.73 23.1642H187.536V25.5783H186.206V27.0556H187.536V31.8079C187.536 33.4261 188.694 33.7223 190.055 33.7223C190.488 33.7223 190.967 33.7067 191.339 33.6453V31.9175C191.138 31.9644 190.906 31.9801 190.659 31.9801C189.916 31.9801 189.731 31.7935 189.731 31.0446V27.0556H191.339V25.5783H189.731V23.1642H189.73Z" fill="white"/>
<path d="M192.392 33.6296H194.587V30.0007C194.587 28.5679 195.129 27.4144 196.752 27.4144C197.015 27.4144 197.341 27.4457 197.541 27.4927V25.4386C197.387 25.3917 197.232 25.3616 197.062 25.3616C195.965 25.3616 194.928 26.0611 194.511 27.0737H194.48V25.5795H192.393V33.6308L192.392 33.6296Z" fill="white"/>
<path d="M123.467 9.65869C121.961 9.65869 120.742 10.888 120.742 12.4027C120.742 13.6946 121.629 14.7758 122.823 15.0672C122.878 14.6578 122.97 14.3869 122.97 14.3869C122.97 14.3869 123.045 14.004 123.119 13.567C123.193 13.1299 122.869 12.9601 122.869 12.9601C122.657 12.6049 122.418 12.1233 122.869 11.2564C123.319 10.3907 123.855 11.4274 123.855 11.4274C123.855 11.4274 124.12 11.8392 124.184 11.9451C124.247 12.0511 124.429 12.7253 124.207 13.0023C123.984 13.2792 123.932 13.5128 123.932 13.5128C123.932 13.5128 123.742 14.3749 123.742 14.4074C123.742 14.4399 123.71 14.6831 123.53 14.9817C123.493 15.0431 123.462 15.0949 123.433 15.1442C123.445 15.1442 123.456 15.1454 123.468 15.1454C124.972 15.1454 126.192 13.9173 126.192 12.4015C126.192 10.8856 124.972 9.65749 123.468 9.65749L123.467 9.65869Z" fill="#EE3F65"/>
<path fill-rule="evenodd" clip-rule="evenodd" d="M123.175 16.0147C123.166 16.6866 123.568 16.9948 123.751 17.5812C123.979 18.3144 123.45 19.2776 123.37 20.1746C123.302 20.9332 123.551 23.446 123.551 23.446C123.48 23.2244 123.035 21.2703 123.089 20.2023C123.12 18.9947 123.746 18.1531 123.47 17.6269C123.193 17.1008 122.951 16.8816 122.854 16.3988C122.828 16.2688 122.81 16.14 122.799 16.0147H121.544V33.6368H125.393V16.0147H123.178H123.175Z" fill="#EE3F65"/>
<path d="M36.1258 30.091H38.3639C38.236 31.5178 37.4146 32.2871 35.9561 32.2871C33.9583 32.2871 33.2099 30.575 33.2099 28.8785C33.2099 27.0954 33.9595 25.3845 35.9561 25.3845C37.0189 25.3845 37.8259 25.9552 38.0949 27.0954H40.2194C39.9922 24.7704 38.0232 23.5014 35.9561 23.5014C32.8405 23.5014 30.985 25.8552 30.985 28.8785C30.985 31.9018 32.8405 34.1702 35.9561 34.1702C36.934 34.1702 37.9383 33.7994 38.7321 32.7723L38.9593 33.9282H40.3748V28.4222H36.1258V30.091Z" fill="#58595B"/>
<path d="M48.5296 28.4499C48.5296 26.6824 46.7734 26.3537 45.3148 26.3537C43.6721 26.3537 41.9876 26.9389 41.874 28.8207H43.8849C43.9555 28.0213 44.4373 27.7082 45.2168 27.7082C45.9245 27.7082 46.5199 27.8503 46.5199 28.7064C46.6048 30.3607 41.6756 28.5643 41.6481 31.9151C41.6481 33.4273 42.7384 34.1257 44.1396 34.1257C45.0458 34.1257 45.9664 33.8837 46.6048 33.213C46.6192 33.455 46.6753 33.6983 46.7459 33.9258H48.7855C48.6014 33.626 48.5296 32.9566 48.5296 32.2859V28.4487V28.4499ZM46.5187 31.0747C46.5187 31.531 46.4613 32.7711 44.8892 32.7711C44.2388 32.7711 43.6578 32.5713 43.6578 31.8296C43.6578 31.0879 44.2245 30.8592 44.8474 30.746C45.469 30.6316 46.178 30.6171 46.5187 30.3186V31.0747Z" fill="#58595B"/>
<path d="M52.0266 27.9225H51.9979V26.5536H50.0862V33.927H52.0972V30.6039C52.0972 29.2915 52.5933 28.2368 54.0794 28.2368C54.3197 28.2368 54.6174 28.2645 54.8027 28.3078V26.4259C54.6616 26.3838 54.5193 26.3549 54.3639 26.3549C53.3585 26.3549 52.4092 26.9967 52.0266 27.9238V27.9225Z" fill="#58595B"/>
<path d="M59.9435 26.3537C59.0373 26.3537 58.1311 26.6956 57.6349 27.4518H57.6062V23.7434H55.5953V33.927H57.5082V32.9843H57.5357C57.9745 33.7982 58.8675 34.1257 59.9435 34.1257C61.4021 34.1257 62.9743 32.9277 62.9743 30.2319C62.9743 27.536 61.4021 26.3525 59.9435 26.3525V26.3537ZM59.2489 32.6002C58.0594 32.6002 57.5357 31.4732 57.5357 30.2463C57.5357 29.0194 58.0594 27.8792 59.2489 27.8792C60.4385 27.8792 60.9621 28.9917 60.9621 30.2463C60.9621 31.5009 60.4385 32.6002 59.2489 32.6002Z" fill="#58595B"/>
<path d="M68.4391 26.3537C67.6883 26.3537 66.8107 26.739 66.3002 27.5806H66.2572V23.7446H64.2463V33.9282H66.2572V30.0633C66.2572 28.5655 66.7246 27.9514 67.815 27.9514C68.7643 27.9514 69.105 28.551 69.105 29.7635V33.9282H71.1159V29.3926C71.1159 27.5673 70.5779 26.3549 68.4403 26.3549L68.4391 26.3537Z" fill="#58595B"/>
<path d="M79.2145 28.4499C79.2145 26.6824 77.4583 26.3537 75.9997 26.3537C74.357 26.3537 72.6725 26.9389 72.5589 28.8207H74.5698C74.6404 28.0213 75.1222 27.7082 75.9017 27.7082C76.6094 27.7082 77.2048 27.8503 77.2048 28.7064C77.2897 30.3607 72.3616 28.5643 72.3329 31.9151C72.3329 33.4273 73.4233 34.1257 74.8245 34.1257C75.7307 34.1257 76.6513 33.8837 77.2885 33.213C77.3028 33.455 77.359 33.6983 77.4296 33.9258H79.4692C79.2851 33.626 79.2133 32.9566 79.2133 32.2859V28.4487L79.2145 28.4499ZM77.2036 31.0747C77.2036 31.531 77.1462 32.7711 75.5741 32.7711C74.9225 32.7711 74.3427 32.5713 74.3427 31.8296C74.3427 31.0879 74.9094 30.8592 75.5322 30.746C76.1551 30.6316 76.8641 30.6171 77.2036 30.3186V31.0747Z" fill="#58595B"/>
<path d="M85.6849 30.091H87.9217C87.795 31.5178 86.9737 32.2871 85.5139 32.2871C83.5161 32.2871 82.7665 30.575 82.7665 28.8785C82.7665 27.0954 83.5173 25.3845 85.5139 25.3845C86.5767 25.3845 87.3837 25.9552 87.6527 27.0954H89.7772C89.5501 24.7704 87.5822 23.5014 85.5151 23.5014C82.3995 23.5014 80.544 25.8552 80.544 28.8785C80.544 31.9018 82.4007 34.1702 85.5151 34.1702C86.493 34.1702 87.4973 33.7994 88.2911 32.7723L88.5183 33.9282H89.9338V28.4222H85.6849V30.091Z" fill="#58595B"/>
<path d="M96.3766 30.4185C96.3766 31.9163 95.9104 32.5291 94.8188 32.5291C93.8696 32.5291 93.5288 31.9295 93.5288 30.7171V26.5524H91.5191V31.0879C91.5191 32.9132 92.0571 34.1257 94.1947 34.1257C95.0448 34.1257 95.9235 33.7404 96.4328 32.8988H96.4758V33.9258H98.3875V26.5524H96.3766V30.4173V30.4185Z" fill="#58595B"/>
<path d="M105.042 27.4518H105.013C104.56 26.7245 103.711 26.3537 102.847 26.3537C100.695 26.3537 99.6034 28.1934 99.6034 30.1765C99.6034 32.1595 100.679 34.1269 102.89 34.1269C103.839 34.1269 104.646 33.7849 105.112 32.9855H105.14V33.9282H107.053V23.7446H105.042V27.453V27.4518ZM103.385 32.6002C102.138 32.6002 101.614 31.3877 101.614 30.2331C101.614 29.0784 102.067 27.8804 103.385 27.8804C104.702 27.8804 105.111 29.0218 105.111 30.2198C105.111 31.4178 104.701 32.6014 103.385 32.6014V32.6002Z" fill="#58595B"/>
<path d="M110.636 26.5536H108.625V33.927H110.636V26.5536Z" fill="#58595B"/>
<path d="M110.635 23.7446H108.624V25.4133H110.635V23.7446Z" fill="#58595B"/>
<path d="M19.2842 1.02222C17.7216 2.6332 16.1566 4.24539 14.5917 5.85637C14.7722 6.0743 14.9527 6.29103 15.132 6.50896C16.2834 5.33142 17.4335 4.15388 18.5836 2.97755C20.4199 5.18212 21.8666 7.778 23.0215 10.6677C24.9606 15.5175 26.2183 19.4703 24.7132 24.6175C22.4297 32.428 13.4057 35.2779 7.00352 30.3041C3.23396 27.3735 2.18905 22.0842 7.20437 20.0061C8.7 19.386 10.4981 19.3222 12.5413 19.7135C15.9056 20.5647 19.2913 21.4268 22.6544 22.2793L23.9133 19.2957C23.7519 19.2235 23.532 19.138 23.3694 19.0657C23.3275 19.4558 23.3275 20.0651 22.8134 20.2987C22.2718 20.5431 20.3171 20.0253 19.6058 19.8664C16.9158 19.2644 14.1768 18.2241 11.9806 17.8509C9.90511 17.4969 8.21819 17.9713 6.46193 19.132C3.85923 20.8513 2.34088 23.8674 3.63686 27.4843C7.53434 36.1629 21.5318 36.1364 25.1328 25.9527C27.3685 19.6352 25.6708 9.52383 19.283 1.02462L19.2842 1.02222Z" fill="#58595B"/>
<path d="M22.9282 2.34665H23.0848V1.29674H23.4722V1.15828H22.5408V1.29674H22.9282V2.34665Z" fill="#58595B"/>
<path d="M23.7818 1.33407L24.1225 2.34665H24.2636L24.6055 1.35213V2.34665H24.7562V1.15828H24.5469L24.2648 1.98424C24.2361 2.06732 24.2146 2.13234 24.2014 2.17448C24.1883 2.13595 24.1703 2.07815 24.144 1.99869L23.8655 1.15828H23.6335V2.34665H23.783V1.33407H23.7818Z" fill="#58595B"/>
<path d="M23.6491 3.50371C24.1274 3.50371 24.5625 3.30746 24.8782 2.9896C25.1938 2.67414 25.3875 2.23588 25.3875 1.75186C25.3875 1.26784 25.1926 0.829573 24.8782 0.51171C24.5637 0.195052 24.1286 0 23.6491 0C23.1697 0 22.7333 0.195052 22.4189 0.51171C22.1021 0.829573 21.9072 1.26784 21.9072 1.75186C21.9072 2.23588 22.1021 2.67294 22.4189 2.9896C22.7333 3.30746 23.1673 3.50371 23.6491 3.50371ZM22.5397 0.635729C22.8218 0.349171 23.214 0.17338 23.6491 0.17338C24.0843 0.17338 24.4729 0.349171 24.7562 0.635729C25.0396 0.921082 25.2153 1.316 25.2153 1.75186C25.2153 2.18772 25.0396 2.58143 24.7562 2.86799C24.4729 3.15334 24.0807 3.32913 23.6491 3.32913C23.2175 3.32913 22.8218 3.15334 22.5397 2.86799C22.2563 2.58263 22.0794 2.18772 22.0794 1.75186C22.0794 1.316 22.2551 0.921082 22.5397 0.635729Z" fill="#58595B"/>
<path fill-rule="evenodd" clip-rule="evenodd" d="M11.005 26.6186C10.8472 25.8324 10.2925 25.4699 9.66002 25.4398C8.17276 25.3676 7.37413 27.1303 7.53673 28.427C7.68976 29.6479 8.65935 30.5642 10.4778 30.3751C11.6793 31.1361 12.6429 31.7224 13.7332 32.0018C15.3173 32.4087 17.5984 32.2245 18.3337 30.4931C18.8442 29.2939 17.9739 27.9936 16.5452 27.6071C16.4997 27.0328 16.4543 26.4572 16.4089 25.8805C16.819 25.0943 16.0418 24.6283 15.5373 24.4838C15.2349 24.4694 15.0232 24.8077 15.1763 25.0245C15.4046 25.2797 15.6186 25.4025 15.7561 25.7709C15.6975 26.3754 15.2121 27.058 14.9396 27.6336C14.6156 28.2067 14.6718 28.6919 15.2396 29.0591C15.6856 29.2385 15.8553 29.4565 15.7298 29.7177C15.3126 29.8104 15.26 29.2289 14.7507 29.0326C14.2497 29.0652 13.7631 29.619 13.3375 29.3613C13.4774 28.8412 13.5623 28.3331 13.5001 27.8539C13.487 27.4795 13.041 27.3976 12.8748 27.0592C13.0099 26.8678 13.1689 26.7197 13.1056 26.3742C12.8485 26.0659 12.3213 26.1598 12.295 26.3513C12.3297 26.5788 12.3357 26.8473 12.4277 27.0617C12.5377 27.3916 12.5664 27.7022 12.7924 27.9635C12.674 28.1453 12.5568 28.3295 12.4385 28.5113C12.3643 28.6763 12.0643 28.4403 12.1898 28.1754C12.5903 27.5445 12.1671 26.9605 11.8933 26.8811C11.9112 26.7715 11.8538 26.5813 11.7869 26.4934C11.5597 26.6114 11.2788 26.6571 11.0062 26.6174" fill="#EE3F65"/>
<path fill-rule="evenodd" clip-rule="evenodd" d="M20.0732 6.38494C19.8138 7.63472 19.5532 8.8845 19.2925 10.1343C19.2029 9.42029 19.0092 8.90135 18.7282 8.54255C17.7491 7.29157 14.1385 7.95981 12.8677 8.4655C11.6171 8.96035 10.5232 9.75862 9.57871 10.8471C6.84808 13.9089 5.0715 21.9903 9.75924 23.6362C12.5473 24.6151 17.2171 22.1757 17.6307 18.9128C17.8112 17.4897 17.3486 16.0051 16.2403 15.0467C18.4676 14.7457 19.7911 15.5127 18.9195 18.8707C18.3815 20.1602 17.6869 21.2209 16.8476 22.0698C13.9508 24.9919 6.83373 26.3404 5.46842 21.3582C4.41993 17.5414 6.09847 12.9312 8.93311 10.2703C10.2303 9.05306 11.8311 8.08021 13.7464 7.36141C15.8063 6.59324 17.9057 6.18628 20.0732 6.38614" fill="#EE3F65"/>
<path d="M2.09579 32.2378L2.27871 32.0812L1.23141 30.8435L1.04969 31L1.47889 31.5081L0 32.776L0.185309 32.9951L1.66301 31.7261L2.09579 32.2378Z" fill="#6D6E70"/>
<path d="M3.4958 33.2299L2.88009 33.909L2.1006 33.1914L2.71511 32.5123L2.50828 32.3208L1.03656 33.9439L1.24339 34.1365L1.93442 33.3756L2.71391 34.092L2.02289 34.8529L2.2333 35.0468L3.70622 33.4225L3.4958 33.2299Z" fill="#6D6E70"/>
<path d="M2.90277 35.5705L3.90583 36.2857L4.04332 36.0906L3.2698 35.5404L3.72531 34.8926L4.41872 35.3875L4.55263 35.196L3.8604 34.7012L4.25852 34.1341L4.99139 34.6566L5.12768 34.4628L4.16527 33.7753L2.90277 35.5705Z" fill="#6D6E70"/>
<path d="M7.10033 35.7619C7.26412 35.8402 7.38487 35.9413 7.46019 36.0353L7.62039 35.8559C7.57018 35.7884 7.43987 35.6608 7.19358 35.5428C6.58146 35.249 5.96456 35.4706 5.66926 36.0918C5.36201 36.7432 5.61188 37.2971 6.169 37.5644C6.40931 37.6787 6.61853 37.7221 6.73449 37.7209L6.77753 37.4921C6.65081 37.4921 6.47745 37.4488 6.32323 37.3753C5.84381 37.1454 5.7123 36.6987 5.94304 36.2135C6.18932 35.6909 6.63765 35.5416 7.10033 35.7631V35.7619Z" fill="#6D6E70"/>
<path d="M8.83267 36.1773C8.27794 35.9979 7.72799 36.2989 7.51518 36.9636C7.31313 37.5969 7.56181 38.1495 8.10937 38.3277C8.63899 38.4999 9.19731 38.2591 9.42686 37.5391C9.62532 36.919 9.39817 36.3616 8.83267 36.1773ZM9.13993 37.4596C8.98809 37.934 8.62225 38.2507 8.19664 38.1122C7.77461 37.9762 7.66223 37.4982 7.8045 37.0503C7.95155 36.5903 8.30543 36.2508 8.74898 36.3941C9.19612 36.5398 9.27263 37.0442 9.13993 37.4596Z" fill="#6D6E70"/>
<path d="M10.0234 37.1357C9.96725 37.4404 10.149 37.6643 10.4766 37.8545C10.7456 38.0207 10.8388 38.158 10.8017 38.359C10.7611 38.577 10.5686 38.6974 10.2841 38.6444C10.094 38.6083 9.92422 38.5095 9.81422 38.4096L9.70184 38.6311C9.80227 38.7287 10.0175 38.8322 10.2243 38.8719C10.73 38.9659 11.0289 38.7238 11.0911 38.3903C11.1508 38.0725 10.9978 37.8618 10.6607 37.6523C10.3869 37.4813 10.2745 37.3585 10.3104 37.1562C10.3379 37.0081 10.4825 36.8528 10.7754 36.9082C10.9703 36.9455 11.1006 37.0358 11.164 37.0864L11.2824 36.8733C11.1975 36.801 11.048 36.7191 10.8269 36.6782C10.4096 36.5999 10.0868 36.7974 10.0246 37.1345L10.0234 37.1357Z" fill="#6D6E70"/>
<path d="M13.5121 36.9828L13.0745 38.0267C12.9645 38.3 12.8749 38.536 12.8091 38.7552H12.8007C12.7565 38.524 12.6943 38.2796 12.6154 38.0038L12.2938 36.9238L11.9352 36.907L11.6793 39.0959L11.9471 39.1091L12.0499 38.17C12.0858 37.8425 12.1181 37.4741 12.1384 37.2008H12.1444C12.1934 37.4657 12.2675 37.7522 12.356 38.0677L12.6597 39.1308L12.8737 39.1404L13.3089 38.0941C13.4332 37.7956 13.5372 37.5271 13.6245 37.273H13.6328C13.6185 37.5463 13.6197 37.9148 13.6209 38.223L13.6305 39.1898L13.9054 39.2043L13.8731 37.0021L13.5133 36.984L13.5121 36.9828Z" fill="#6D6E70"/>
<path d="M14.8141 36.9207L14.5327 36.9401L14.6819 39.1335L14.9634 39.1141L14.8141 36.9207Z" fill="#6D6E70"/>
<path d="M16.7185 38.6877C16.1949 38.772 15.8362 38.4806 15.7501 37.9485C15.6593 37.3777 15.9438 36.9985 16.4495 36.9166C16.6289 36.8877 16.7843 36.9022 16.8991 36.9371L16.9302 36.6963C16.85 36.6698 16.6707 36.6385 16.4017 36.683C15.7334 36.7914 15.3484 37.326 15.4572 38.005C15.5708 38.7178 16.0897 39.0297 16.6982 38.9321C16.96 38.8888 17.1573 38.8045 17.2506 38.7371L17.1573 38.524C17.0545 38.5974 16.8871 38.66 16.7173 38.6877H16.7185Z" fill="#6D6E70"/>
<path d="M20.0565 35.6018L20.1725 36.7432C20.2047 37.0238 20.2322 37.2742 20.2741 37.5174L20.2681 37.5198C20.1569 37.3139 20.0099 37.09 19.8628 36.8672L19.2244 35.9161L18.9494 36.0208L19.063 37.1622C19.0929 37.4548 19.1204 37.7233 19.1622 37.9412L19.1562 37.9436C19.0463 37.7594 18.8956 37.5222 18.739 37.2886L18.1089 36.3375L17.8304 36.4422L19.1156 38.3073L19.3918 38.2037L19.2854 37.0201C19.2615 36.7264 19.2328 36.5072 19.1933 36.2881L19.1993 36.2857C19.3033 36.4832 19.4217 36.6686 19.5831 36.9082L20.2394 37.8834L20.5168 37.7799L20.3303 35.5007L20.0601 35.603L20.0565 35.6018Z" fill="#6D6E70"/>
<path d="M21.3573 34.8469C20.8504 35.1395 20.7045 35.7523 21.05 36.3567C21.38 36.9335 21.9538 37.1213 22.4536 36.8311C22.9366 36.5518 23.1338 35.9739 22.7596 35.3177C22.4356 34.7518 21.8737 34.5471 21.3573 34.8469ZM22.3532 36.6228C21.9682 36.8456 21.5402 36.6084 21.3082 36.2002C21.0679 35.7824 21.056 35.2888 21.4613 35.054C21.869 34.8168 22.291 35.0997 22.5074 35.479C22.7549 35.9112 22.7405 36.3977 22.3532 36.6228Z" fill="#6D6E70"/>
<path d="M23.8799 33.0866L24.2397 34.1606C24.3366 34.4375 24.4274 34.6747 24.5231 34.8818L24.5159 34.8878C24.3306 34.7445 24.1214 34.6037 23.8823 34.4508L22.9294 33.8584L22.6497 34.0859L23.9014 35.8932L24.1094 35.7234L23.5678 34.9516C23.3765 34.6831 23.1602 34.3869 22.9952 34.169L23 34.1654C23.2104 34.3291 23.4555 34.4953 23.7292 34.6699L24.657 35.2623L24.8232 35.1262L24.4585 34.0522C24.3557 33.7464 24.2553 33.4755 24.1525 33.2275L24.1596 33.2215C24.3282 33.437 24.5721 33.7115 24.7777 33.939L25.4221 34.6554L25.6373 34.4809L24.1608 32.8554L23.8811 33.0818L23.8799 33.0866Z" fill="#6D6E70"/>
<path d="M26.6858 32.4581C26.4467 32.2354 26.1562 32.298 25.9781 32.4148L25.9721 32.4099C26.0677 32.1824 26.0271 31.9524 25.8716 31.8091C25.7473 31.6923 25.605 31.6526 25.4664 31.6791C25.2918 31.7044 25.134 31.8043 24.9415 32.0138C24.8076 32.1595 24.6893 32.316 24.6247 32.4256L26.1992 33.8969C26.2722 33.8367 26.3833 33.7356 26.5149 33.5923C26.7564 33.3286 26.8771 33.1023 26.8795 32.8952C26.8759 32.741 26.8221 32.5881 26.6846 32.4593L26.6858 32.4581ZM24.9583 32.3473C24.9822 32.3076 25.0252 32.2462 25.1125 32.1499C25.3074 31.9392 25.513 31.8645 25.7007 32.0403C25.8561 32.1848 25.8501 32.4208 25.6469 32.6399L25.4723 32.8289L24.9571 32.3473H24.9583ZM26.412 33.3804C26.3415 33.455 26.2853 33.5128 26.2411 33.5465L25.6302 32.9758L25.7892 32.8037C25.9984 32.5761 26.2638 32.4726 26.4814 32.676C26.7133 32.894 26.6093 33.1661 26.412 33.3804Z" fill="#6D6E70"/>
<path d="M80.5057 12.6411C80.489 12.6916 80.4758 12.729 80.4675 12.7542C80.4615 12.7314 80.4507 12.6965 80.434 12.6495L80.2678 12.1462H80.1279V12.8566H80.2176V12.251L80.4208 12.8566H80.5045L80.7102 12.2618V12.8566H80.7998V12.1462H80.6743L80.5045 12.6399L80.5057 12.6411Z" fill="#EE3F65"/>
<path d="M80.8727 11.7609C80.685 11.5707 80.4244 11.4539 80.1363 11.4539C79.8482 11.4539 79.5887 11.5707 79.401 11.7609C79.2121 11.9512 79.095 12.2124 79.095 12.5026C79.095 12.7928 79.2121 13.054 79.401 13.2431C79.5887 13.4321 79.8494 13.5513 80.1363 13.5513C80.4232 13.5513 80.6839 13.4333 80.8727 13.2431C81.0604 13.054 81.1776 12.7904 81.1776 12.5026C81.1776 12.2148 81.0604 11.9512 80.8727 11.7609ZM80.7998 13.1696C80.6301 13.3406 80.3969 13.4466 80.1363 13.4466C79.8757 13.4466 79.6425 13.3418 79.4728 13.1696C79.303 12.9987 79.1978 12.7627 79.1978 12.5026C79.1978 12.2425 79.303 12.0053 79.4728 11.8344C79.6425 11.6634 79.8769 11.5586 80.1363 11.5586C80.3957 11.5586 80.6301 11.6634 80.7998 11.8344C80.9696 12.0053 81.0748 12.2413 81.0748 12.5026C81.0748 12.7639 80.9696 12.9987 80.7998 13.1696Z" fill="#EE3F65"/>
<path d="M79.4752 12.2305H79.7059V12.8578H79.8004V12.2305H80.0323V12.1474H79.4752V12.2305Z" fill="#EE3F65"/>
<path d="M39.1841 9.83929C38.921 9.81882 38.6867 9.86939 38.4811 9.991C38.2766 10.1138 38.1523 10.292 38.1104 10.5268C38.0578 10.8459 38.1834 11.1878 38.4894 11.549C38.817 11.9427 38.9796 12.2269 38.9796 12.3954C38.9796 12.7687 38.7274 12.9553 38.2216 12.9553H31.939C31.6653 12.9553 31.4895 12.936 31.4106 12.8975C31.3317 12.859 31.2181 12.7302 31.0711 12.5098L31.0244 12.5736C31.2038 12.8494 31.2827 13.1142 31.2612 13.3683C31.2504 13.5176 31.1954 13.6922 31.095 13.8932C30.9958 14.0955 30.9503 14.2797 30.9611 14.4495C30.9718 14.7999 31.0711 15.0852 31.2612 15.308L31.3078 15.261C31.2444 15.1346 31.2133 15.0226 31.2133 14.9275C31.2133 14.6626 31.413 14.5302 31.8135 14.5302H32.7759C32.2391 14.7216 31.8267 15.0479 31.5373 15.5102C31.2468 15.9726 31.1022 16.4963 31.1022 17.0815C31.1022 17.8148 31.1858 18.442 31.3556 18.9634C31.6174 19.7279 32.0347 20.1108 32.6026 20.1108C32.7592 20.1108 32.96 20.0205 33.2015 19.8411C33.443 19.6605 33.6439 19.5714 33.8017 19.5714C34.1484 19.5714 34.3433 19.752 34.3851 20.112C34.7115 19.7508 34.8908 19.5498 34.9219 19.5064C35.069 19.2933 35.1431 19.038 35.1431 18.7407C35.1431 18.1784 34.9159 17.8424 34.464 17.7365C34.0432 17.7052 33.6272 17.6679 33.2171 17.6245C32.764 17.4969 32.538 17.1261 32.538 16.5084C32.538 15.8606 32.874 15.3501 33.5482 14.9781C34.0958 14.6807 34.7223 14.5326 35.4264 14.5326C36.1306 14.5326 36.7679 14.6867 37.3369 14.9949C38.0208 15.367 38.3627 15.8775 38.3627 16.5252C38.3627 17.0779 38.1415 17.4343 37.7004 17.5932C37.2891 17.6679 36.879 17.7425 36.469 17.816C36.0266 17.9327 35.8054 18.235 35.8054 18.7238C35.8054 19.0537 35.8784 19.3511 36.0266 19.616C36.2047 19.9459 36.4474 20.1108 36.7523 20.1108C36.9197 20.1108 37.1444 20.0205 37.423 19.8411C37.7028 19.6605 37.9263 19.5714 38.0937 19.5714C38.5038 19.5714 38.725 19.752 38.7572 20.112C39.4208 19.4438 39.7519 18.3843 39.7519 16.9322C39.7519 16.3073 39.5355 15.7402 39.1039 15.2309C38.866 14.9588 38.5791 14.7288 38.2539 14.5314C38.7381 14.5314 39.1362 14.3857 39.4519 14.0943C39.7675 13.8029 39.9145 13.3972 39.893 12.8783C39.8822 12.6555 39.7806 12.3376 39.5858 11.9247C39.3909 11.5117 39.2928 11.2143 39.2928 11.0349C39.2928 10.6845 39.4351 10.5099 39.7197 10.5099C39.8787 10.5099 40.0197 10.5894 40.1465 10.7483C40.0628 10.1873 39.7412 9.88505 39.1841 9.8417V9.83929Z" fill="#EE3F65"/>
<path d="M44.7409 19.6485C44.5305 19.9278 44.3261 20.2059 44.1252 20.4865C43.8837 20.8188 43.7618 21.1415 43.7618 21.4533C43.7618 21.7977 43.91 21.9999 44.2041 22.065C44.2771 22.0758 44.4169 22.03 44.6226 21.9313C44.8282 21.8314 44.9669 21.7748 45.041 21.7627C45.1151 21.7519 45.1857 21.7808 45.2538 21.8494C45.3232 21.9181 45.3566 21.9903 45.3566 22.0638C45.5981 21.9253 45.7201 21.7146 45.7201 21.428C45.7201 21.121 45.5993 20.8031 45.3566 20.4744C45.157 20.1987 44.9525 19.923 44.7409 19.6473V19.6485Z" fill="#EE3F65"/>
<path d="M48.4986 9.83929C48.2344 9.81882 48 9.86939 47.7956 9.991C47.5911 10.1138 47.4668 10.292 47.425 10.5268C47.3724 10.8459 47.4991 11.1878 47.804 11.549C48.1303 11.9427 48.2929 12.2269 48.2929 12.3954C48.2929 12.7687 48.0407 12.9553 47.535 12.9553H46.1146C45.652 12.9553 45.3148 12.8072 45.1044 12.5098L45.0578 12.5736C45.2264 12.8096 45.31 13.0239 45.31 13.2166C45.31 13.3671 45.2574 13.5754 45.1522 13.8439C45.047 14.1124 44.9944 14.3219 44.9944 14.4712C44.9944 14.8143 45.0948 15.1045 45.2933 15.3393L45.3411 15.2899C45.2778 15.1575 45.2467 15.0479 45.2467 14.9588C45.2467 14.6722 45.579 14.529 46.2414 14.529C46.7459 14.529 47.1882 14.6602 47.5672 14.9239C47.9773 15.2189 48.1829 15.615 48.1829 16.1099C48.1829 16.6047 48.0168 16.9647 47.6856 17.2477C47.3544 17.533 46.9467 17.6751 46.4626 17.6751C45.8421 17.6751 45.4093 17.5703 45.1678 17.3608C44.894 17.1297 44.778 16.7155 44.8199 16.1171H44.6465V16.5734C44.6573 17.3079 44.1946 17.6751 43.2585 17.6751C42.5627 17.6751 42.2148 17.4174 42.2148 16.9009C42.2148 16.6481 42.4324 16.459 42.8699 16.3326C43.5442 16.1219 43.9447 15.981 44.0703 15.9064C44.5066 15.6535 44.7254 15.2538 44.7254 14.706C44.7254 14.1052 44.5054 13.6536 44.0631 13.3478C43.6841 13.0841 43.1844 12.9529 42.5639 12.9529C41.9434 12.9529 41.4843 13.0793 41.0957 13.3322C40.6534 13.638 40.4334 14.0702 40.4334 14.6289C40.4334 15.1141 40.5912 15.509 40.9068 15.8149C40.9798 15.497 41.1746 15.3381 41.4915 15.3381C41.5752 15.3381 41.7126 15.3513 41.9015 15.3778C42.0916 15.4043 42.2339 15.4175 42.3283 15.4175C42.6966 15.4175 42.9225 15.2899 43.0074 15.0359C42.8281 15.0997 42.6488 15.1322 42.4706 15.1322C42.1024 15.1322 41.9183 14.9757 41.9183 14.6614C41.9183 14.4531 42.0235 14.2858 42.2351 14.1593C42.4132 14.045 42.6189 13.986 42.8508 13.986C43.5347 13.986 43.8766 14.246 43.8766 14.7662C43.8766 15.1587 43.5789 15.4079 42.9835 15.5127C42.0665 15.6716 41.5142 15.798 41.3265 15.8943C40.7323 16.2122 40.4358 16.8154 40.4358 17.7064C40.4358 18.4697 40.6869 19.0681 41.1902 19.5028C41.6612 19.9061 42.2805 20.1072 43.0457 20.1072C43.4235 20.1072 43.9423 19.9639 44.6023 19.6774C45.2634 19.3908 45.7763 19.2487 46.1433 19.2487C46.7734 19.2487 47.1655 19.5353 47.3233 20.1072C48.477 19.5245 49.0533 18.4649 49.0533 16.9274C49.0533 16.164 48.8799 15.5283 48.532 15.0202C48.3862 14.8047 48.2081 14.6289 48.0132 14.4748C48.3025 14.411 48.556 14.2858 48.7688 14.0895C49.0844 13.7981 49.2314 13.3924 49.2111 12.8734C49.2004 12.6507 49.0975 12.3328 48.9039 11.9198C48.709 11.5069 48.611 11.2095 48.611 11.0301C48.611 10.6797 48.7532 10.5051 49.0378 10.5051C49.1968 10.5051 49.3378 10.5846 49.4646 10.7435C49.3809 10.1824 49.0593 9.88023 48.5022 9.83689L48.4986 9.83929Z" fill="#EE3F65"/>
<path d="M56.3581 13.3683C56.3366 13.1142 56.4167 12.8494 56.596 12.5736L56.5494 12.5098C56.4011 12.7302 56.2876 12.859 56.2087 12.8975C56.1298 12.9361 55.954 12.9553 55.6802 12.9553H51.497C51.0128 12.9553 50.5944 13.1323 50.2417 13.4875C49.889 13.8427 49.7133 14.2641 49.7133 14.7505C49.7133 15.5139 50.0133 16.0232 50.6135 16.276C50.0133 16.6372 49.7133 17.1935 49.7133 17.946C49.7133 18.5613 49.8759 19.0742 50.2022 19.4883C50.5286 19.9013 50.9758 20.1084 51.5436 20.1084C51.7744 20.1084 52.0673 20.0049 52.4188 19.7978C52.7715 19.5919 53.0584 19.4883 53.2796 19.4883C53.8056 19.4883 54.0949 19.6954 54.1475 20.1084C54.7896 19.5437 55.11 18.7876 55.11 17.84C55.11 17.6053 55.0944 17.297 55.0621 16.9141C54.8003 17.4861 54.0041 17.7726 52.6782 17.7726C51.7517 17.7726 51.283 17.5559 51.2735 17.1212C51.2627 16.8564 51.4157 16.6914 51.7313 16.6288C51.8365 16.5963 52.1462 16.5758 52.6627 16.565C52.7679 16.565 52.8755 16.5939 52.9867 16.6517C53.0967 16.7095 53.1528 16.7817 53.1528 16.866C53.1528 16.9081 53.1361 16.9515 53.105 16.9936L53.1361 17.0093C53.2306 16.9033 53.2832 16.76 53.2939 16.5806C53.2939 16.4951 53.27 16.4 53.2222 16.2941C53.1756 16.1881 53.1469 16.0978 53.1361 16.0232C53.1253 15.8847 53.178 15.7474 53.2939 15.6102L53.2616 15.5777C53.123 15.78 52.8779 15.8799 52.5252 15.8799C51.6166 15.8799 51.1635 15.6367 51.1635 15.149C51.1635 14.9793 51.2364 14.8336 51.3846 14.712C51.5317 14.5892 51.6943 14.529 51.8748 14.529H55.7412C56.1836 14.529 56.4047 14.6723 56.4047 14.9576C56.4047 15.0431 56.3725 15.143 56.3091 15.2598L56.3569 15.308C56.547 15.0852 56.6462 14.7999 56.657 14.4495C56.6678 14.2797 56.6223 14.0943 56.5231 13.8932C56.4227 13.6922 56.3677 13.5176 56.3569 13.3683H56.3581Z" fill="#EE3F65"/>
<path d="M68.9209 12.9553C68.8157 12.9553 68.6686 12.9866 68.4786 13.0504C68.2885 13.1142 68.1462 13.1455 68.0529 13.1455C67.5891 13.1455 67.2101 12.9336 66.916 12.5098L66.8682 12.5736C67.0367 12.8072 67.1204 13.0239 67.1204 13.225C67.1204 13.3635 67.0678 13.5645 66.9626 13.8294C66.8574 14.0943 66.8048 14.3014 66.8048 14.4495C66.8048 14.7782 66.9052 15.0648 67.1037 15.308L67.1515 15.261L67.0726 14.9492C67.0726 14.6686 67.3571 14.529 67.925 14.529C69.2509 14.529 69.9132 15.0611 69.9132 16.1267C69.9132 16.6432 69.7243 17.0382 69.3453 17.3139C69.0082 17.5667 68.5766 17.6931 68.0517 17.6931C67.0439 17.6931 66.4162 17.4644 66.1556 17.0129C66.1556 16.984 66.158 16.9587 66.158 16.9298C66.158 16.3049 65.9416 15.7378 65.51 15.2285C65.2721 14.9564 64.9852 14.7264 64.66 14.529C65.143 14.529 65.5423 14.3833 65.8579 14.0919C66.1735 13.8005 66.3206 13.3948 66.3003 12.8758C66.2895 12.6531 66.1879 12.3352 65.993 11.9223C65.7981 11.5093 65.7001 11.2119 65.7001 11.0325C65.7001 10.6821 65.8424 10.5075 66.1269 10.5075C66.2859 10.5075 66.427 10.587 66.5537 10.7459C66.47 10.1848 66.1484 9.88264 65.5913 9.83929C65.3283 9.81882 65.094 9.86939 64.8895 9.991C64.6851 10.1138 64.5607 10.292 64.5177 10.5268C64.4651 10.8459 64.5918 11.1878 64.8967 11.549C65.2231 11.9427 65.3857 12.2269 65.3857 12.3954C65.3857 12.7687 65.1334 12.9553 64.6277 12.9553H58.3451C58.0713 12.9553 57.8956 12.936 57.8167 12.8975C57.7378 12.859 57.6242 12.7302 57.4783 12.5098L57.4305 12.5736C57.6098 12.8494 57.6887 13.1142 57.6684 13.3683C57.6577 13.5176 57.6027 13.6922 57.5022 13.8932C57.4018 14.0955 57.3576 14.2797 57.3683 14.4495C57.3791 14.7999 57.4795 15.0852 57.6684 15.308L57.715 15.261C57.6517 15.1346 57.6206 15.0226 57.6206 14.9275C57.6206 14.6626 57.8203 14.5302 58.2208 14.5302H59.1832C58.6476 14.7216 58.2339 15.0479 57.9446 15.5102C57.6553 15.9726 57.5106 16.4963 57.5106 17.0815C57.5106 17.8148 57.5943 18.442 57.7641 18.9634C58.0259 19.7279 58.4431 20.1108 59.011 20.1108C59.1676 20.1108 59.3685 20.0205 59.6112 19.8411C59.8515 19.6605 60.0523 19.5714 60.2102 19.5714C60.5569 19.5714 60.7517 19.752 60.7948 20.112C61.12 19.7508 61.2993 19.5498 61.3316 19.5064C61.4786 19.2933 61.5528 19.038 61.5528 18.7406C61.5528 18.1784 61.3256 17.8424 60.8737 17.7365C60.4528 17.7052 60.0368 17.6679 59.6267 17.6245C59.1748 17.4969 58.9477 17.1261 58.9477 16.5084C58.9477 15.8606 59.2836 15.3501 59.9579 14.9781C60.5043 14.6807 61.1307 14.5326 61.8361 14.5326C62.5415 14.5326 63.1775 14.6867 63.7466 14.9949C64.4304 15.367 64.7724 15.8775 64.7724 16.5252C64.7724 17.0779 64.5524 17.4343 64.1088 17.5932C63.6988 17.6679 63.2887 17.7425 62.8774 17.816C62.4351 17.9327 62.2139 18.235 62.2139 18.7238C62.2139 19.0537 62.2868 19.3511 62.4351 19.616C62.6144 19.9459 62.8559 20.1108 63.1608 20.1108C63.3293 20.1108 63.5529 20.0205 63.8315 19.8411C64.11 19.6605 64.3336 19.5714 64.5022 19.5714C64.9122 19.5714 65.1334 19.752 65.1657 20.112C65.4634 19.8134 65.6893 19.4306 65.8543 18.9742C65.8675 19.0067 65.877 19.0429 65.8914 19.0742C66.1974 19.7665 66.6816 20.112 67.344 20.112C67.5233 20.112 67.7541 20.0085 68.0386 19.8026C68.3231 19.5955 68.5539 19.4932 68.7332 19.4932C69.2066 19.4932 69.4649 19.699 69.5067 20.1132C70.2013 19.433 70.548 18.2602 70.548 16.5915C70.548 15.7523 70.4584 15.025 70.2802 14.4098C70.0053 13.4429 69.5534 12.9601 68.9221 12.9601L68.9209 12.9553Z" fill="#EE3F65"/>
<path d="M79.1189 15.0756C78.9503 14.0979 78.4876 13.3394 77.7285 12.7976C77.0243 12.2883 76.1611 12.033 75.1413 12.033C74.467 12.033 73.868 12.1438 73.342 12.3677C72.6366 12.6639 72.2839 13.0998 72.2839 13.6729C72.2839 14.1726 72.4358 14.5434 72.7418 14.7878C71.7005 15.2767 71.1793 16.0785 71.1793 17.1935C71.1793 17.9689 71.4208 18.6371 71.905 19.2006C72.4202 19.805 73.0515 20.1084 73.7987 20.1084C74.1777 20.1084 74.6989 19.9651 75.3613 19.6798C76.0248 19.3932 76.5449 19.2499 76.9239 19.2499C77.5444 19.2499 77.9341 19.5365 78.0919 20.1084C79.2492 19.5245 79.829 18.5155 79.829 17.0815C79.829 16.1255 79.5911 15.4573 79.1189 15.0744V15.0756ZM78.2581 15.4356C78.3681 15.5524 78.4231 15.6896 78.4231 15.8498C78.4231 16.0099 78.3681 16.146 78.2581 16.2628C78.1481 16.3795 78.013 16.4385 77.8552 16.4385C77.6974 16.4385 77.5635 16.3808 77.4523 16.2628C77.3423 16.146 77.2861 16.0087 77.2861 15.8498C77.2861 15.6908 77.3411 15.5524 77.4523 15.4356C77.5635 15.3188 77.6974 15.261 77.8552 15.261C78.013 15.261 78.1469 15.32 78.2581 15.4356ZM74.3188 13.1624C74.5184 13.0143 74.7456 12.9409 74.9978 12.9409C75.2178 12.9409 75.4151 13.0143 75.5896 13.1624C75.763 13.3117 75.8491 13.4971 75.8491 13.7187C75.8491 13.9402 75.757 14.1316 75.5729 14.2906C75.3888 14.4495 75.1855 14.529 74.9644 14.529C74.7121 14.529 74.4921 14.4603 74.302 14.3219C74.1131 14.1846 74.0175 13.9932 74.0175 13.75C74.0175 13.5067 74.1179 13.3105 74.3176 13.1612L74.3188 13.1624ZM77.255 17.6775C76.1396 17.6775 75.5872 17.2633 75.598 16.4373H75.4402C75.4402 16.8238 75.3087 17.1272 75.0457 17.3464C74.7826 17.5667 74.4563 17.6763 74.0665 17.6763C73.1196 17.6763 72.645 17.2657 72.645 16.4434C72.645 15.9377 72.8769 15.485 73.3408 15.0852C73.7078 15.2345 74.0605 15.308 74.3977 15.308C74.9871 15.308 75.4916 15.1864 75.9124 14.9444C76.4169 14.6602 76.6704 14.2388 76.6704 13.6813C76.6704 13.4189 76.5915 13.1756 76.4337 12.9553C77.2861 13.0287 77.8648 13.6488 78.1696 14.8155C78.0214 14.7096 77.8277 14.6566 77.585 14.6566C77.1223 14.6566 76.7326 14.7577 76.417 14.9588C76.0392 15.202 75.8479 15.5416 75.8479 15.975C75.8479 16.3675 76.0117 16.6938 76.338 16.9527C76.6644 17.2127 77.0279 17.3416 77.4272 17.3416C77.9747 17.3416 78.4219 17.1453 78.7686 16.7528C78.5259 17.3681 78.0214 17.6751 77.2526 17.6751L77.255 17.6775Z" fill="#EE3F65"/>
</svg>
