<svg width="19" height="19" viewBox="0 0 19 19" fill="none" xmlns="http://www.w3.org/2000/svg">
<path d="M9.49998 0C7.40106 0.00230501 5.38876 0.83712 3.9046 2.32128C2.42043 3.80545 1.58562 5.81774 1.58331 7.91667C1.58331 12.0982 8.23331 17.8386 8.98856 18.4799L9.49998 18.9121L10.0114 18.4799C10.7666 17.8386 17.4166 12.0982 17.4166 7.91667C17.4143 5.81774 16.5795 3.80545 15.0954 2.32128C13.6112 0.83712 11.5989 0.00230501 9.49998 0ZM9.49998 11.875C8.7171 11.875 7.95179 11.6428 7.30085 11.2079C6.6499 10.773 6.14255 10.1547 5.84296 9.43145C5.54336 8.70816 5.46497 7.91228 5.6177 7.14443C5.77044 6.37659 6.14743 5.67128 6.70102 5.1177C7.2546 4.56412 7.95991 4.18712 8.72775 4.03439C9.49559 3.88166 10.2915 3.96005 11.0148 4.25964C11.7381 4.55924 12.3563 5.06659 12.7912 5.71753C13.2262 6.36848 13.4583 7.13378 13.4583 7.91667C13.4571 8.9661 13.0396 9.97218 12.2976 10.7142C11.5555 11.4563 10.5494 11.8737 9.49998 11.875Z" fill="#EE3F65"/>
<path d="M9.5 10.292C10.8117 10.292 11.875 9.22867 11.875 7.91699C11.875 6.60532 10.8117 5.54199 9.5 5.54199C8.18832 5.54199 7.125 6.60532 7.125 7.91699C7.125 9.22867 8.18832 10.292 9.5 10.292Z" fill="#EE3F65"/>
</svg>
