<svg width="19" height="19" viewBox="0 0 19 19" fill="none" xmlns="http://www.w3.org/2000/svg">
<g clip-path="url(#clip0_70_1125)">
<path d="M0.0799583 3.16667C0.448083 1.36246 2.04725 0 3.95833 0H15.0417C16.9528 0 18.5519 1.36246 18.92 3.16667H0.0799583ZM19 4.75V15.0417C19 17.2243 17.2243 19 15.0417 19H3.95833C1.77571 19 0 17.2243 0 15.0417V4.75H19ZM2.375 7.91667C2.375 8.35367 2.72888 8.70833 3.16667 8.70833H7.125C7.56279 8.70833 7.91667 8.35367 7.91667 7.91667C7.91667 7.47967 7.56279 7.125 7.125 7.125H3.16667C2.72888 7.125 2.375 7.47967 2.375 7.91667ZM11.875 15.8333C11.875 15.3955 11.5211 15.0417 11.0833 15.0417H3.16667C2.72888 15.0417 2.375 15.3955 2.375 15.8333C2.375 16.2711 2.72888 16.625 3.16667 16.625H11.0833C11.5211 16.625 11.875 16.2711 11.875 15.8333ZM11.875 11.875C11.875 11.4372 11.5211 11.0833 11.0833 11.0833H5.54167C5.10388 11.0833 4.75 11.4372 4.75 11.875C4.75 12.3128 5.10388 12.6667 5.54167 12.6667H11.0833C11.5211 12.6667 11.875 12.3128 11.875 11.875ZM16.625 15.8333C16.625 15.2491 16.3044 14.744 15.8333 14.4693V9.5C15.8333 8.19058 14.7678 7.125 13.4583 7.125H12.4474C12.1735 6.65396 11.6684 6.33333 11.0833 6.33333C10.2085 6.33333 9.5 7.04188 9.5 7.91667C9.5 8.79146 10.2085 9.5 11.0833 9.5C11.6676 9.5 12.1727 9.17938 12.4474 8.70833H13.4583C13.8953 8.70833 14.25 9.06379 14.25 9.5V14.4693C13.779 14.7432 13.4583 15.2483 13.4583 15.8333C13.4583 16.7081 14.1669 17.4167 15.0417 17.4167C15.9165 17.4167 16.625 16.7081 16.625 15.8333Z" fill="#EE3F65"/>
</g>
<defs>
<clipPath id="clip0_70_1125">
<rect width="19" height="19" fill="white"/>
</clipPath>
</defs>
</svg>
