<svg width="18" height="18" viewBox="0 0 18 18" fill="none" xmlns="http://www.w3.org/2000/svg">
<g clip-path="url(#clip0_68_1080)">
<path d="M6.75 6.75H11.25V11.25H6.75V6.75ZM16.5 8.25V9.75H17.25C17.6625 9.75 18 10.0875 18 10.5C18 10.9125 17.6625 11.25 17.25 11.25H16.5V12.75H17.25C17.6625 12.75 18 13.0875 18 13.5C18 13.9125 17.6625 14.25 17.25 14.25H16.185C15.81 15.1125 15.1125 15.8025 14.25 16.185V17.25C14.25 17.6625 13.9125 18 13.5 18C13.0875 18 12.75 17.6625 12.75 17.25V16.5H11.25V17.25C11.25 17.6625 10.9125 18 10.5 18C10.0875 18 9.75 17.6625 9.75 17.25V16.5H8.25V17.25C8.25 17.6625 7.9125 18 7.5 18C7.0875 18 6.75 17.6625 6.75 17.25V16.5H5.25V17.25C5.25 17.6625 4.9125 18 4.5 18C4.0875 18 3.75 17.6625 3.75 17.25V16.185C2.8875 15.81 2.1975 15.1125 1.815 14.25H0.75C0.3375 14.25 0 13.9125 0 13.5C0 13.0875 0.3375 12.75 0.75 12.75H1.5V11.25H0.75C0.3375 11.25 0 10.9125 0 10.5C0 10.0875 0.3375 9.75 0.75 9.75H1.5V8.25H0.75C0.3375 8.25 0 7.9125 0 7.5C0 7.0875 0.3375 6.75 0.75 6.75H1.5V5.25H0.75C0.3375 5.25 0 4.9125 0 4.5C0 4.0875 0.3375 3.75 0.75 3.75H1.815C2.19 2.8875 2.8875 2.1975 3.75 1.815V0.75C3.75 0.3375 4.0875 0 4.5 0C4.9125 0 5.25 0.3375 5.25 0.75V1.5H6.75V0.75C6.75 0.3375 7.0875 0 7.5 0C7.9125 0 8.25 0.3375 8.25 0.75V1.5H9.75V0.75C9.75 0.3375 10.0875 0 10.5 0C10.9125 0 11.25 0.3375 11.25 0.75V1.5H12.75V0.75C12.75 0.3375 13.0875 0 13.5 0C13.9125 0 14.25 0.3375 14.25 0.75V1.815C15.1125 2.19 15.8025 2.8875 16.185 3.75H17.25C17.6625 3.75 18 4.0875 18 4.5C18 4.9125 17.6625 5.25 17.25 5.25H16.5V6.75H17.25C17.6625 6.75 18 7.0875 18 7.5C18 7.9125 17.6625 8.25 17.25 8.25H16.5ZM12.75 12V6C12.75 5.5875 12.4125 5.25 12 5.25H6C5.5875 5.25 5.25 5.5875 5.25 6V12C5.25 12.4125 5.5875 12.75 6 12.75H12C12.4125 12.75 12.75 12.4125 12.75 12Z" fill="white"/>
</g>
<defs>
<clipPath id="clip0_68_1080">
<rect width="18" height="18" fill="white"/>
</clipPath>
</defs>
</svg>
