<svg width="19" height="19" viewBox="0 0 19 19" fill="none" xmlns="http://www.w3.org/2000/svg">
<path d="M3.16665 15.8333H17.4166V19H3.16665C2.29185 19 1.58331 18.2915 1.58331 17.4167C1.58331 16.5419 2.29185 15.8333 3.16665 15.8333ZM4.74998 14.25V0H3.95831C2.64652 0 1.58331 1.06321 1.58331 2.375V14.8556C2.01794 14.4645 2.5824 14.2492 3.16665 14.25H4.74998ZM17.4166 1.58333V14.25H6.33331V0H15.8333C16.7081 0 17.4166 0.708542 17.4166 1.58333ZM12.9944 9.5L14.4139 8.08054L13.2944 6.96113L11.875 8.38058L10.4555 6.96113L9.3361 8.08054L10.7556 9.5L9.3361 10.9195L10.4555 12.0389L11.875 10.6194L13.2944 12.0389L14.4139 10.9195L12.9944 9.5ZM14.987 3.11125L13.8803 1.97917L11.8671 4.06204L10.6827 2.81042L9.58469 3.95121L11.1973 5.65488C11.5575 6.03329 12.16 6.03567 12.5226 5.66042L14.987 3.11046V3.11125Z" fill="#EE3F65"/>
</svg>
