<svg width="20" height="20" viewBox="0 0 20 20" fill="none" xmlns="http://www.w3.org/2000/svg">
<g clip-path="url(#clip0_70_1145)">
<path d="M20 14.1667C20 17.3833 17.3825 20 14.1667 20V18.3333C16.4642 18.3333 18.3333 16.4642 18.3333 14.1667H20ZM17.83 12.3867L12.3858 17.8308L11.815 17.4433C11.7683 17.4117 10.8283 16.77 9.69833 15.9092L9.03917 16.57L8.44917 15.9792C5.91583 13.4408 4.91833 12.3358 2.72583 9.4C1.3975 7.62167 1.33417 5.32917 2.4775 3.6575L0.0625 1.24083L1.24083 0.0625L3.6525 2.475C5.2925 1.34167 7.54167 1.39583 9.38917 2.695C11.8483 4.425 13.3458 5.80583 15.9783 8.44167L16.5658 9.03083L15.9042 9.69417C16.7675 10.8267 17.4108 11.77 17.4425 11.8167L17.83 12.3867ZM9.04083 14.2092L14.2092 9.0325C12.0033 6.84167 10.6008 5.585 8.43 4.05833C7.805 3.61917 7.02417 3.32917 6.24333 3.32917C5.52167 3.32917 4.79917 3.57583 4.19667 4.18C3.08917 5.29 3.03333 7.02583 4.06083 8.4025C6.03 11.04 6.96333 12.1117 9.04083 14.2092ZM15.67 12.1892C15.4317 11.8533 15.0958 11.3892 14.715 10.885L10.8875 14.7183C11.3908 15.0983 11.8533 15.4333 12.1883 15.6708L15.67 12.1892ZM7.91583 6.66667C7.22583 6.66667 6.66583 7.22667 6.66583 7.91667C6.66583 8.60667 7.22583 9.16667 7.91583 9.16667C8.60583 9.16667 9.16583 8.60667 9.16583 7.91667C9.16583 7.22667 8.60583 6.66667 7.91583 6.66667Z" fill="#EE3F65"/>
</g>
<defs>
<clipPath id="clip0_70_1145">
<rect width="20" height="20" fill="white"/>
</clipPath>
</defs>
</svg>
