<svg width="19" height="19" viewBox="0 0 19 19" fill="none" xmlns="http://www.w3.org/2000/svg">
<g clip-path="url(#clip0_70_1120)">
<path d="M18.4203 17.445C17.5867 17.2138 17.1814 16.7903 17.1402 16.7467C16.6795 16.286 16.3644 15.6645 16.2512 14.9956C16.0335 13.7083 15.0605 12.7362 13.7725 12.5177C13.1043 12.4044 12.4828 12.0894 12.0221 11.6286C11.5613 11.1679 11.2463 10.5464 11.133 9.87824C10.9304 8.67966 10.0303 7.75895 8.7248 7.41457C7.90067 7.19766 7.60063 6.88732 7.14701 6.41786C7.63071 5.80116 7.90305 5.10845 7.91651 4.38091C7.93392 3.42695 7.51671 2.49674 6.71001 1.69082C5.15834 0.139156 2.0083 -0.646969 0.680672 0.680656C-0.646953 2.00828 0.139964 5.15832 1.69163 6.70999C2.48251 7.50086 3.39134 7.91649 4.32471 7.91649C4.89392 7.91728 5.44017 7.74945 5.94921 7.45891C6.51605 8.04078 7.02034 8.59891 8.32026 8.94566C8.65038 9.03274 9.43334 9.32328 9.57109 10.1419C9.73813 11.1314 10.2108 12.0569 10.9019 12.748C11.593 13.4392 12.5193 13.9126 13.508 14.0796C14.1216 14.1833 14.5847 14.6464 14.6884 15.2592C14.8555 16.2488 15.3289 17.175 15.9891 17.8329C16.0588 17.9121 16.7127 18.6135 17.996 18.9713C18.4061 19.0877 18.855 18.8454 18.9705 18.4203C19.0869 17.9992 18.8407 17.5629 18.4195 17.4458L18.4203 17.445ZM9.64946 17.4299C9.45788 17.3935 9.15942 17.1703 9.0193 17.0333C8.75646 16.7705 8.57676 16.415 8.51184 16.0319C8.34955 15.0708 7.62359 14.3448 6.66171 14.1817C6.33396 14.1263 6.01967 13.9759 5.77188 13.7685C6.12259 13.2903 6.32288 12.7472 6.33238 12.1954C6.34188 11.6579 6.18276 10.8472 5.36971 10.0342C4.76884 9.43332 3.90276 8.98128 2.99392 8.79524C1.96871 8.58466 1.08442 8.76041 0.568256 9.27657C-0.520286 10.3651 0.0750473 12.8272 1.32667 14.078C2.11755 14.8689 2.90605 15.0415 3.4428 15.0415H3.48871C3.84734 15.0352 4.20359 14.9489 4.54084 14.7945C4.54084 14.7945 4.54084 14.7953 4.54242 14.7961C5.03642 15.2901 5.69588 15.6273 6.39967 15.7453C6.69101 15.7944 6.90317 16.0057 6.95225 16.2971C7.071 17.0017 7.40826 17.6619 7.90146 18.1543C8.01546 18.2691 8.62267 18.8462 9.35259 18.9872C9.77138 19.0695 10.1989 18.7908 10.2788 18.3586C10.3612 17.9295 10.0801 17.5147 9.65105 17.4315L9.64946 17.4299ZM10.035 5.3697C10.677 6.01174 11.4228 6.33316 12.1614 6.33316C12.7203 6.33316 13.2721 6.14078 13.7717 5.77028C13.9728 6.0157 14.1255 6.30861 14.1802 6.63478C14.3433 7.59507 15.0684 8.32103 16.0303 8.48332C16.4135 8.54824 16.7697 8.72874 17.0183 8.97732C17.2051 9.17524 17.4062 9.4832 17.4236 9.59799C17.4759 10.0334 17.882 10.3406 18.3071 10.2852C18.7418 10.2305 19.0489 9.8347 18.9943 9.40086C18.9056 8.69074 18.2865 8.01307 18.152 7.87136C17.658 7.37816 16.9985 7.0417 16.2939 6.92295C16.0026 6.87386 15.7904 6.6617 15.7421 6.37195C15.625 5.67132 15.2901 5.01582 14.8016 4.5242C15.2774 3.47603 15.0375 2.28536 14.0788 1.32666C12.8272 0.0758223 10.3659 -0.520303 9.27659 0.568239C8.76042 1.08441 8.58467 1.9687 8.79525 2.99391C8.9813 3.90274 9.43413 4.76882 10.035 5.3697Z" fill="#EE3F65"/>
</g>
<defs>
<clipPath id="clip0_70_1120">
<rect width="19" height="19" fill="white"/>
</clipPath>
</defs>
</svg>
