<svg xmlns="http://www.w3.org/2000/svg" width="71" height="12" viewBox="0 0 71 12" fill="none"><path d="M12.3643 4.34223L8.37624 3.76376L6.59197 0.157641C6.48754 -0.0525469 6.14005 -0.0525469 6.03742 0.157641L4.25255 3.76376L0.265103 4.34223C0.148672 4.35959 0.0508467 4.44103 0.0154374 4.55302C-0.0211722 4.665 0.00823555 4.78716 0.0940581 4.8686L2.97902 7.67529L2.29844 11.6395C2.27743 11.7557 2.32545 11.8725 2.42087 11.9407C2.5163 12.0102 2.64293 12.0192 2.74736 11.9647L6.3141 10.0933L9.88143 11.9647C9.92585 11.9886 9.97506 12 10.0255 12C10.0891 12 10.1527 11.9802 10.2073 11.9407C10.3015 11.8725 10.349 11.7557 10.3286 11.6395L9.64797 7.67529L12.5341 4.8686C12.62 4.78716 12.6488 4.6644 12.614 4.55302C12.5773 4.44103 12.4813 4.35959 12.3643 4.34223Z" fill="#F7CC3F"></path><path d="M26.9919 4.34223L23.0051 3.76376L21.2202 0.157641C21.117 -0.0525469 20.7689 -0.0525469 20.6663 0.157641L18.8802 3.76376L14.8934 4.34223C14.7775 4.35959 14.6803 4.44103 14.6437 4.55302C14.6065 4.665 14.6371 4.78716 14.7229 4.8686L17.6085 7.67529L16.9261 11.6395C16.9081 11.7557 16.9543 11.8725 17.0479 11.9407C17.1452 12.0102 17.2718 12.0192 17.3744 11.9647L20.943 10.0933L24.5091 11.9647C24.5535 11.9886 24.6033 12 24.6531 12C24.7179 12 24.7816 11.9802 24.8368 11.9407C24.9298 11.8725 24.9784 11.7557 24.9574 11.6395L24.2762 7.67529L27.1636 4.8686C27.247 4.78716 27.277 4.6644 27.2422 4.55302C27.2062 4.44103 27.1096 4.35959 26.9919 4.34223Z" fill="#F7CC3F"></path><path d="M41.7715 4.34223L37.7846 3.76376L36.0003 0.157641C35.8965 -0.0525469 35.5484 -0.0525469 35.4458 0.157641L33.6609 3.76376L29.6735 4.34223C29.557 4.35959 29.4592 4.44103 29.4238 4.55302C29.3866 4.665 29.4154 4.78716 29.5024 4.8686L32.388 7.67529L31.7056 11.6395C31.6858 11.7557 31.7338 11.8725 31.8292 11.9407C31.9235 12.0102 32.0513 12.0192 32.1551 11.9647L35.7225 10.0933L39.2898 11.9647C39.3336 11.9886 39.3834 12 39.4326 12C39.4969 12 39.5611 11.9802 39.6145 11.9407C39.7087 11.8725 39.7579 11.7557 39.7369 11.6395L39.0563 7.67529L41.9425 4.8686C42.0271 4.78716 42.0571 4.6644 42.0211 4.55302C41.9857 4.44103 41.8885 4.35959 41.7715 4.34223Z" fill="#F7CC3F"></path><path d="M56.1074 4.34223L52.1193 3.76376L50.3345 0.157641C50.2294 -0.0525469 49.8825 -0.0525469 49.7805 0.157641L47.9956 3.76376L44.0076 4.34223C43.89 4.35959 43.7951 4.44103 43.7573 4.55302C43.7207 4.665 43.7501 4.78716 43.8354 4.8686L46.7221 7.67529L46.0403 11.6395C46.0199 11.7557 46.0673 11.8725 46.1628 11.9407C46.2582 12.0102 46.3848 12.0192 46.4892 11.9647L50.0566 10.0933L53.6227 11.9647C53.6683 11.9886 53.7176 12 53.768 12C53.831 12 53.8946 11.9802 53.9492 11.9407C54.0428 11.8725 54.0909 11.7557 54.071 11.6395L53.3911 7.67529L56.2766 4.8686C56.36 4.78716 56.3901 4.6644 56.3546 4.55302C56.3192 4.44103 56.222 4.35959 56.1074 4.34223Z" fill="#F7CC3F"></path><path d="M70.9853 4.55302C70.9487 4.44103 70.8503 4.35959 70.735 4.34223L66.747 3.76376L64.9621 0.157641C64.8589 -0.0525469 64.512 -0.0525469 64.4076 0.157641L62.6245 3.76376L58.6358 4.34223C58.5194 4.35959 58.4228 4.44103 58.3862 4.55302C58.349 4.665 58.379 4.78716 58.4648 4.8686L61.3504 7.67529L60.6698 11.6395C60.65 11.7557 60.6962 11.8725 60.7928 11.9407C60.8876 12.0102 61.0143 12.0192 61.1181 11.9647L64.6848 10.0933L68.2528 11.9647C68.2972 11.9886 68.3458 12 68.3962 12C68.4604 12 68.524 11.9802 68.5793 11.9407C68.6723 11.8725 68.7203 11.7557 68.6999 11.6395L68.0199 7.67529L70.9055 4.8686C70.9913 4.78716 71.0207 4.665 70.9853 4.55302Z" fill="#F7CC3F"></path></svg>