<svg width="19" height="19" viewBox="0 0 19 19" fill="none" xmlns="http://www.w3.org/2000/svg">
<path d="M11.4791 10.6875C11.4791 11.7808 10.5933 12.6667 9.49997 12.6667C8.40668 12.6667 7.5208 11.7808 7.5208 10.6875C7.5208 9.59421 8.40668 8.70833 9.49997 8.70833C10.5933 8.70833 11.4791 9.59421 11.4791 10.6875ZM17.5576 10.0819L13.0941 14.2025C12.9611 14.3252 12.8163 14.4313 12.6666 14.5287V18.2083C12.6666 18.6453 12.312 19 11.875 19H7.12497C6.68797 19 6.3333 18.6453 6.3333 18.2083V14.5287C6.18368 14.4313 6.0388 14.3252 5.9058 14.2025L1.44239 10.0819C1.12097 9.785 1.10118 9.28467 1.39726 8.96325C1.69414 8.64342 2.19447 8.62204 2.51589 8.91813L6.9793 13.0387C7.27301 13.3095 7.6546 13.4583 8.0528 13.4583H10.9456C11.3446 13.4583 11.7261 13.3095 12.0191 13.0387L16.4825 8.91813C16.8047 8.62204 17.305 8.64262 17.6011 8.96325C17.898 9.28467 17.8774 9.78579 17.556 10.0819H17.5576ZM7.34268 4.83392L6.72201 6.82338C6.6381 7.09017 6.73151 7.3815 6.95555 7.54933C7.07272 7.63721 7.21126 7.68075 7.35139 7.68075C7.47885 7.68075 7.6071 7.64354 7.71793 7.56913L9.50472 6.37371L11.3216 7.55725C11.5559 7.71004 11.8615 7.69738 12.0848 7.52717C12.3072 7.35617 12.3967 7.06325 12.308 6.79725L11.6628 4.83075L13.2232 3.55933C13.4353 3.38121 13.5129 3.08908 13.4179 2.82862C13.3229 2.56817 13.0751 2.39479 12.7981 2.39479H10.8181L10.1175 0.429083C10.0217 0.171 9.77468 0 9.49918 0C9.22368 0 8.97668 0.171 8.88089 0.429083L8.18026 2.39479H6.2003C5.92401 2.39479 5.67622 2.56738 5.58122 2.82704C5.48543 3.08671 5.56222 3.37804 5.7736 3.55696L7.34189 4.83313L7.34268 4.83392Z" fill="white"/>
</svg>
