<svg width="14" height="14" viewBox="0 0 14 14" fill="none" xmlns="http://www.w3.org/2000/svg">
<g clip-path="url(#clip0_1_175)">
<path d="M5.88875 10.5245L6.25508 12.1724C6.4925 13.2399 7.43925 13.9994 8.533 13.9994H11.0839V10.4994C11.0839 10.1774 11.3452 9.91608 11.6672 9.91608C11.9892 9.91608 12.2506 10.1774 12.2506 10.4994V13.9994C13.2172 13.9994 14.0006 13.216 14.0006 12.2494V10.4994C14.0006 9.53283 13.2172 8.74942 12.2506 8.74942H11.9846L10.7053 6.32917C10.6003 6.12383 10.4557 5.971 10.3075 5.90975C10.1838 5.85842 10.0584 5.83275 9.93417 5.83275C9.53633 5.83275 9.2085 6.09292 9.09883 6.49542C9.086 6.54208 9.06967 6.65 9.10292 6.84483L9.44125 8.74942H7.31267C6.37992 8.74942 5.68692 9.61333 5.88933 10.5239L5.88875 10.5245ZM5.54167 0C2.48092 0 0 2.48092 0 5.54167C0 8.35217 2.09417 10.668 4.8055 11.0291L4.7495 10.7777C4.57567 9.99658 4.7635 9.18983 5.26458 8.56567C5.76508 7.94208 6.51175 7.58333 7.31208 7.58333H8.04883L7.95433 7.049C7.89717 6.72175 7.90533 6.43125 7.97533 6.18042C8.22033 5.27858 9.00842 4.66608 9.933 4.66608C10.2118 4.66608 10.4877 4.72208 10.7537 4.83233C10.8582 4.8755 10.9591 4.9315 11.0553 4.99742C10.7823 2.19275 8.41867 0 5.54167 0ZM8.10833 4.21108L5.93775 6.29125C5.369 6.84892 4.45783 6.84717 3.89142 6.28717L2.79883 5.25C2.56958 5.02367 2.56725 4.655 2.79242 4.42458C3.01875 4.19417 3.38858 4.19008 3.61958 4.41642L4.90875 5.63967L7.29225 3.37342C7.52442 3.14883 7.89425 3.15408 8.11942 3.38625C8.34342 3.61725 8.33875 3.98592 8.10892 4.21108H8.10833Z" fill="white"/>
</g>
<defs>
<clipPath id="clip0_1_175">
<rect width="14" height="14" fill="white"/>
</clipPath>
</defs>
</svg>
