<svg xmlns="http://www.w3.org/2000/svg" width="86" height="89" viewBox="0 0 86 89" fill="none"><g opacity="0.5"><mask id="mask0_63_885" style="mask-type:luminance" maskUnits="userSpaceOnUse" x="0" y="0" width="89" height="89"><path d="M89 -7.62939e-06L89 89L7.62939e-06 89L3.73908e-06 -3.73908e-06L89 -7.62939e-06Z" fill="white"></path></mask><g mask="url(#mask0_63_885)"><path fill-rule="evenodd" clip-rule="evenodd" d="M23.3474 41.8342C23.3725 40.2482 23.6132 38.6906 24.0598 37.2778C25.1404 33.8607 27.5291 30.8642 31.3307 28.763C41.3063 23.2512 47.9421 31.1931 49.3941 29.6496C51.297 27.6258 41.474 25.1237 40.4348 25.0017C34.3545 24.2828 29.7839 26.4733 26.2689 30.3773C23.6426 33.2932 21.5948 37.3388 21.4053 41.3843C21.1591 46.6488 23.7036 51.9764 27.7623 55.1309C31.4963 58.0339 36.2401 59.2538 41.5219 58.7146C47.9454 58.06 52.7621 53.0504 54.872 47.1727C56.2859 43.2317 55.9221 40.0565 55.1694 37.3878C54.75 35.9009 54.3394 34.4337 53.8198 33.5285C53.2599 32.5536 51.7731 32.5896 52.1674 34.5263C52.4626 35.9739 53.017 37.7908 53.1434 38.3845C54.1041 42.9267 53.8525 45.9876 51.7545 50.1551C51.3711 50.8294 51.016 51.3163 50.5574 51.935C49.1261 53.7574 47.6415 54.7922 45.5914 55.8172C42.755 57.1308 39.6015 57.4293 36.557 56.9152C28.5041 55.5525 23.2135 50.1802 23.3464 41.8342" fill="#5E2F7E"></path><path fill-rule="evenodd" clip-rule="evenodd" d="M41.7834 40.962L68.3888 14.3565C68.6557 14.0897 68.6568 13.6518 68.3888 13.3849C68.122 13.1169 67.683 13.1169 67.4161 13.3849C57.2173 23.5838 47.0195 33.7815 36.8196 43.9815C36.6224 44.1721 36.8011 44.3464 36.9339 44.2745L41.7834 40.9631L41.7834 40.962Z" fill="#5E2F7E"></path><path fill-rule="evenodd" clip-rule="evenodd" d="M29.9375 42.1272C31.2272 45.7795 35.8784 41.3658 32.3176 40.1306C30.8754 39.6306 29.7698 40.465 29.9375 42.1272Z" fill="#5E2F7E"></path><path fill-rule="evenodd" clip-rule="evenodd" d="M38.1975 11.8187C38.2127 10.8525 38.3598 9.90375 38.631 9.04323C39.29 6.96272 40.7442 5.1371 43.06 3.85721C49.1359 0.500075 53.1782 5.33643 54.0627 4.39639C55.2228 3.16334 49.2394 1.63945 48.6055 1.56538C44.9019 1.12749 42.1178 2.46185 39.9763 4.83864C38.3761 6.61524 37.13 9.07917 37.0145 11.5442C36.8642 14.7499 38.4153 17.9959 40.8869 19.9174C43.1602 21.6853 46.0511 22.4282 49.2677 22.1003C53.1804 21.7006 56.1138 18.6495 57.3992 15.0691C58.2597 12.6694 58.0386 10.7338 57.58 9.10858C57.3251 8.20339 57.0746 7.30911 56.7576 6.75794C56.4166 6.16429 55.5104 6.18607 55.7511 7.36575C55.9297 8.24697 56.2685 9.35367 56.3447 9.71531C56.9308 12.481 56.7772 14.3469 55.4984 16.886C55.2653 17.2966 55.0485 17.5929 54.7697 17.9698C53.8971 19.0798 52.9931 19.7105 51.7437 20.3346C50.0161 21.1341 48.0957 21.3171 46.2417 21.0034C41.3357 20.1734 38.1136 16.9001 38.1942 11.8176" fill="#5E2F7E"></path><path fill-rule="evenodd" clip-rule="evenodd" d="M49.4279 11.2877L65.6341 -4.91842C65.7964 -5.08181 65.7975 -5.3476 65.6341 -5.5099C65.4707 -5.67329 65.2049 -5.67329 65.0415 -5.5099C58.8283 0.702213 52.6162 6.91432 46.4052 13.1264C46.2853 13.243 46.3932 13.3487 46.4738 13.304L49.4279 11.2867L49.4279 11.2877Z" fill="#5E2F7E"></path><path fill-rule="evenodd" clip-rule="evenodd" d="M42.2114 11.9965C42.9968 14.2219 45.83 11.5325 43.6612 10.7809C42.7822 10.4759 42.109 10.9846 42.2114 11.9965Z" fill="#5E2F7E"></path><path fill-rule="evenodd" clip-rule="evenodd" d="M12.8131 12.1045C12.8283 11.1383 12.9754 10.1885 13.2477 9.32906C13.9056 7.24856 15.3609 5.42185 17.6767 4.14195C23.7537 0.785908 27.7949 5.62227 28.6794 4.68223C29.8395 3.45026 23.8561 1.92637 23.2222 1.8523C19.5186 1.41333 16.7334 2.74769 14.5919 5.12557C12.9928 6.90217 11.7456 9.3661 11.6301 11.83C11.4798 15.0368 13.0309 18.2818 15.5025 20.2033C17.7769 21.9701 20.6678 22.7151 23.8844 22.3862C27.7971 21.9875 30.7305 18.9353 32.0158 15.356C32.8764 12.9552 32.6563 11.0207 32.1967 9.39551C31.9418 8.49032 31.6912 7.59604 31.3743 7.04486C31.0333 6.45012 30.1281 6.47299 30.3678 7.65267C30.5475 8.53389 30.8852 9.64169 30.9614 10.0033C31.5464 12.769 31.3939 14.6338 30.1151 17.1729C29.882 17.5836 29.6652 17.8809 29.3863 18.2567C28.5138 19.3678 27.6108 19.9974 26.3614 20.6215C24.6339 21.4222 22.7135 21.6041 20.8584 21.2893C15.9513 20.4603 12.7303 17.1871 12.8109 12.1045" fill="#5E2F7E"></path><path fill-rule="evenodd" clip-rule="evenodd" d="M24.0435 11.5729L40.2497 -4.63222C40.412 -4.79561 40.4131 -5.06248 40.2497 -5.22478C40.0863 -5.38817 39.8194 -5.38817 39.6571 -5.22478C33.445 0.987333 27.2329 7.19944 21.0208 13.4116C20.901 13.5281 21.0088 13.6349 21.0894 13.5902L24.0435 11.5729Z" fill="#5E2F7E"></path><path fill-rule="evenodd" clip-rule="evenodd" d="M16.8282 12.2815C17.6125 14.5069 20.4478 11.8186 18.278 11.0659C17.399 10.762 16.7258 11.2696 16.8282 12.2815Z" fill="#5E2F7E"></path><path fill-rule="evenodd" clip-rule="evenodd" d="M59.8729 34.3505C59.8881 33.3844 60.0352 32.4356 60.3075 31.5751C60.9665 29.4946 62.4207 27.6679 64.7365 26.3891C70.8135 23.0319 74.8547 27.8694 75.7392 26.9283C76.8993 25.6963 70.9159 24.1724 70.282 24.0983C66.5784 23.6604 63.7943 24.9937 61.6528 27.3716C60.0537 29.1482 58.8065 31.6121 58.691 34.0761C58.5407 37.2829 60.0918 40.5289 62.5634 42.4493C64.8378 44.2172 67.7276 44.9611 70.9442 44.6322C74.858 44.2324 77.7914 41.1814 79.0767 37.6009C79.9373 35.2002 79.7161 33.2656 79.2576 31.6404C79.0016 30.7353 78.7521 29.841 78.4352 29.2898C78.0942 28.6961 77.1879 28.719 77.4287 29.8976C77.6073 30.7788 77.9461 31.8855 78.0223 32.2483C78.6073 35.0139 78.4548 36.8798 77.176 39.4178C76.9429 39.8285 76.7272 40.1248 76.4483 40.5028C75.5758 41.6127 74.6717 42.2423 73.4223 42.8676C71.6947 43.6671 69.7744 43.8501 67.9204 43.5353C63.0133 42.7053 59.7923 39.4331 59.8729 34.3495" fill="#5E2F7E"></path><path fill-rule="evenodd" clip-rule="evenodd" d="M71.1033 33.8196L87.3094 17.6135C87.4728 17.4512 87.4728 17.1843 87.3094 17.0209C87.146 16.8575 86.8803 16.8575 86.718 17.0209C80.5048 23.233 74.2926 29.4462 68.0805 35.6583C67.9607 35.7749 68.0696 35.8805 68.1502 35.8348L71.1043 33.8185L71.1033 33.8196Z" fill="#5E2F7E"></path><path fill-rule="evenodd" clip-rule="evenodd" d="M63.8879 34.5292C64.6733 36.7535 67.5065 34.0652 65.3377 33.3136C64.4587 33.0086 63.7855 33.5173 63.8879 34.5292Z" fill="#5E2F7E"></path><path fill-rule="evenodd" clip-rule="evenodd" d="M59.3032 59.7346C59.3185 58.7684 59.4655 57.8197 59.7378 56.9591C60.3958 54.8786 61.851 53.053 64.1657 51.7731C70.2428 48.416 74.284 53.2534 75.1684 52.3134C76.3285 51.0803 70.3452 49.5564 69.7112 49.4824C66.0077 49.0445 63.2235 50.3788 61.082 52.7567C59.4829 54.5333 58.2357 56.9962 58.1214 59.4612C57.9699 62.668 59.5211 65.914 61.9926 67.8344C64.267 69.6023 67.1569 70.3452 70.3746 70.0173C74.2872 69.6175 77.2206 66.5665 78.506 62.9861C79.3676 60.5853 79.1454 58.6508 78.6868 57.0256C78.4308 56.1204 78.1814 55.2261 77.8655 54.6749C77.5235 54.0813 76.6183 54.1031 76.859 55.2827C77.0376 56.164 77.3764 57.2707 77.4527 57.6334C78.0376 60.399 77.8851 62.265 76.6063 64.803C76.3732 65.2136 76.1564 65.5099 75.8776 65.8868C75.0051 66.9968 74.1021 67.6274 72.8527 68.2516C71.1251 69.0511 69.2047 69.233 67.3497 68.9204C62.4436 68.0904 59.2215 64.8171 59.3032 59.7346Z" fill="#5E2F7E"></path><path fill-rule="evenodd" clip-rule="evenodd" d="M70.5336 59.2038L86.7398 42.9976C86.9032 42.8353 86.9032 42.5684 86.7398 42.4061C86.5775 42.2427 86.3106 42.2427 86.1483 42.4061C79.9351 48.6182 73.723 54.8303 67.5119 61.0425C67.3921 61.159 67.5 61.2647 67.5806 61.22L70.5347 59.2027L70.5336 59.2038Z" fill="#5E2F7E"></path><path fill-rule="evenodd" clip-rule="evenodd" d="M63.3182 59.9126C64.1025 62.1379 66.9368 59.4485 64.7681 58.6969C63.889 58.3919 63.2159 58.9006 63.3182 59.9126Z" fill="#5E2F7E"></path><path fill-rule="evenodd" clip-rule="evenodd" d="M84.2094 54.795C84.2203 54.087 84.3281 53.3909 84.5274 52.7591C85.01 51.2331 86.0764 49.8943 87.7746 48.9565C92.2308 46.4947 95.1947 50.0425 95.8439 49.3519C96.6935 48.4478 92.3059 47.3313 91.8419 47.2757C89.1263 46.9555 87.084 47.9326 85.5132 49.6765C84.3401 50.9793 83.4262 52.7864 83.3412 54.5935C83.2312 56.9452 84.3684 59.3253 86.1799 60.7337C87.8475 62.0299 89.9662 62.5756 92.3266 62.3338C95.1958 62.0419 97.3471 59.8045 98.2893 57.1783C98.9211 55.417 98.7588 53.9998 98.4222 52.8071C98.2348 52.1437 98.0518 51.488 97.8198 51.0838C97.5704 50.6481 96.9048 50.6645 97.0813 51.5293C97.212 52.1753 97.4604 52.9879 97.517 53.2526C97.9462 55.2819 97.834 56.6489 96.8972 58.5105C96.7262 58.8111 96.5672 59.0301 96.3635 59.3057C95.7241 60.1204 95.0607 60.5823 94.1446 61.0409C92.8778 61.628 91.4683 61.7609 90.1089 61.531C86.511 60.9221 84.1484 58.5236 84.2083 54.795" fill="#5E2F7E"></path><path fill-rule="evenodd" clip-rule="evenodd" d="M84.2094 29.4118C84.2203 28.7037 84.3281 28.0066 84.5274 27.3759C85.01 25.8498 86.0764 24.5111 87.7746 23.5733C92.2308 21.1115 95.1947 24.6582 95.8439 23.9698C96.6935 23.0657 92.3059 21.9481 91.8419 21.8936C89.1263 21.5723 87.084 22.5504 85.5132 24.2944C84.3401 25.5971 83.4262 27.4042 83.3412 29.2102C83.2312 31.562 84.3684 33.942 86.1799 35.3516C87.8475 36.6478 89.9662 37.1924 92.3266 36.9528C95.1958 36.6598 97.3471 34.4224 98.2893 31.7962C98.9211 30.0359 98.7588 28.6177 98.4222 27.426C98.2348 26.7616 98.0518 26.1058 97.8198 25.7017C97.5704 25.266 96.9048 25.2823 97.0813 26.1472C97.212 26.7932 97.4604 27.6047 97.517 27.8704C97.9462 29.8987 97.834 31.2668 96.8972 33.1283C96.7262 33.429 96.5672 33.6468 96.3635 33.9235C95.7241 34.7372 95.0607 35.199 94.1446 35.6576C92.8778 36.2448 91.4683 36.3776 90.1089 36.1478C86.511 35.5389 84.1484 33.1392 84.2083 29.4118" fill="#5E2F7E"></path><path fill-rule="evenodd" clip-rule="evenodd" d="M69.3789 -2.24769C69.3898 -2.95571 69.4977 -3.65284 69.697 -4.28353C70.1796 -5.8096 71.246 -7.14832 72.9441 -8.08618C77.4003 -10.5479 80.3632 -7.00018 81.0135 -7.69077C81.8631 -8.59487 77.4755 -9.71245 77.0115 -9.76692C74.2959 -10.0883 72.2535 -9.10901 70.6839 -7.36617C69.5107 -6.0634 68.5968 -4.2563 68.5119 -2.4492C68.4008 -0.098552 69.5391 2.2826 71.3505 3.69211C73.0182 4.98726 75.1379 5.53299 77.4973 5.29226C80.3664 4.99925 82.5177 2.76296 83.46 0.136729C84.0917 -1.62353 83.9294 -3.04177 83.5928 -4.23452C83.4066 -4.89788 83.2225 -5.55362 82.9905 -5.95774C82.7399 -6.39345 82.0755 -6.37711 82.252 -5.51223C82.3838 -4.8652 82.6321 -4.05369 82.6877 -3.789C83.1168 -1.75968 83.0046 -0.392659 82.0668 1.46891C81.8958 1.76954 81.7378 1.98849 81.533 2.26408C80.8936 3.07885 80.2303 3.54071 79.3131 3.99929C78.0463 4.58532 76.6378 4.7193 75.2784 4.48947C71.6817 3.88165 69.3179 1.48198 69.3779 -2.2466" fill="#5E2F7E"></path><path fill-rule="evenodd" clip-rule="evenodd" d="M82.3358 9.21648C82.3435 8.72631 82.4175 8.24486 82.557 7.80697C82.8914 6.75038 83.6288 5.8234 84.8052 5.17419C87.89 3.47057 89.9411 5.92579 90.3899 5.4476C90.9792 4.82236 87.9412 4.0479 87.6199 4.01086C85.7398 3.78865 84.327 4.46618 83.2388 5.67309C82.4263 6.57501 81.7934 7.82549 81.7346 9.07706C81.6583 10.7055 82.4448 12.3525 83.7007 13.3274C84.8553 14.2249 86.3226 14.6029 87.9554 14.4363C89.9422 14.2337 91.4313 12.6836 92.0837 10.8667C92.5216 9.64783 92.4083 8.6664 92.1752 7.83964C92.0467 7.37997 91.9192 6.92683 91.758 6.64689C91.5848 6.34516 91.1252 6.35605 91.2472 6.95515C91.3376 7.40284 91.5097 7.96382 91.5478 8.14791C91.8452 9.55198 91.7678 10.4985 91.1186 11.7882C90.9999 11.9963 90.8899 12.1477 90.7483 12.3383C90.3049 12.9015 89.8464 13.2217 89.2124 13.5387C88.3345 13.945 87.3606 14.0365 86.4184 13.8786C83.9284 13.457 82.2923 11.7959 82.3337 9.21539" fill="#5E2F7E"></path><path fill-rule="evenodd" clip-rule="evenodd" d="M84.3739 9.30562C84.7725 10.4352 86.2115 9.07034 85.1102 8.68909C84.6636 8.53333 84.3227 8.79258 84.3739 9.30562Z" fill="#5E2F7E"></path><path fill-rule="evenodd" clip-rule="evenodd" d="M66.3628 76.5271C66.3704 76.037 66.4445 75.5555 66.5839 75.1176C66.9183 74.061 67.6568 73.1341 68.8321 72.4838C71.917 70.7801 73.9691 73.2354 74.4179 72.7583C75.0061 72.1319 71.9692 71.3585 71.6468 71.3204C69.7667 71.0982 68.3539 71.7757 67.2669 72.9816C66.4543 73.8846 65.8214 75.1351 65.7626 76.3866C65.6874 78.014 66.4728 79.6621 67.7287 80.637C68.8833 81.5345 70.3506 81.9125 71.9834 81.7458C73.9702 81.5432 75.4593 79.9943 76.1106 78.1763C76.5485 76.9574 76.4352 75.976 76.2021 75.1503C76.0736 74.6906 75.9462 74.2364 75.786 73.9565C75.6128 73.6558 75.1521 73.6656 75.2752 74.2658C75.3656 74.7135 75.5377 75.2745 75.5769 75.4586C75.8743 76.8637 75.7958 77.8103 75.1477 79.0989C75.029 79.307 74.919 79.4573 74.7774 79.649C74.3351 80.2121 73.8765 80.5324 73.2426 80.8494C72.3646 81.2557 71.3897 81.3483 70.4486 81.1892C67.9585 80.7677 66.3225 79.1065 66.3638 76.5261" fill="#5E2F7E"></path><path fill-rule="evenodd" clip-rule="evenodd" d="M72.064 76.2578L80.2913 68.0305C80.3741 67.9478 80.3741 67.8116 80.2913 67.7299C80.2085 67.6471 80.0734 67.6471 79.9906 67.7299C76.8372 70.8834 73.6838 74.0379 70.5292 77.1913C70.4693 77.2501 70.5238 77.3057 70.5652 77.2828L72.0651 76.2589L72.064 76.2578Z" fill="#5E2F7E"></path><path fill-rule="evenodd" clip-rule="evenodd" d="M68.4008 76.6172C68.7995 77.7467 70.2384 76.3819 69.1371 75.9996C68.6905 75.8449 68.3496 76.103 68.4008 76.6172Z" fill="#5E2F7E"></path><path fill-rule="evenodd" clip-rule="evenodd" d="M41.5492 74.5301C41.5568 74.0399 41.6309 73.5584 41.7692 73.1206C42.1036 72.064 42.8421 71.137 44.0174 70.4878C47.1023 68.7842 49.1545 71.2394 49.6032 70.7612C50.1914 70.136 47.1535 69.3626 46.8321 69.3244C44.952 69.1011 43.5393 69.7798 42.4522 70.9856C41.6396 71.8875 41.0067 73.1391 40.9479 74.3896C40.8727 76.018 41.6581 77.665 42.914 78.6399C44.0686 79.5375 45.5359 79.9154 47.1687 79.7488C49.1555 79.5462 50.6446 77.9972 51.297 76.1792C51.7349 74.9603 51.6216 73.9789 51.3885 73.1532C51.26 72.6936 51.1315 72.2404 50.9724 71.9605C50.7993 71.6588 50.3385 71.6696 50.4605 72.2687C50.552 72.7164 50.7241 73.2785 50.7622 73.4615C51.0596 74.8667 50.9812 75.8121 50.333 77.1018C50.2143 77.3099 50.1043 77.4613 49.9627 77.6519C49.5204 78.2151 49.0619 78.5353 48.4279 78.8523C47.55 79.2586 46.5751 79.3512 45.6339 79.1922C43.1438 78.7706 41.5078 77.1095 41.5492 74.529" fill="#5E2F7E"></path><path fill-rule="evenodd" clip-rule="evenodd" d="M47.2504 74.2616L55.4777 66.0344C55.5594 65.9527 55.5594 65.8165 55.4777 65.7348C55.3949 65.652 55.2598 65.652 55.177 65.7348C52.0236 68.8883 48.8691 72.0417 45.7156 75.1962C45.6557 75.2551 45.7102 75.3095 45.7516 75.2867L47.2515 74.2627L47.2504 74.2616Z" fill="#5E2F7E"></path><path fill-rule="evenodd" clip-rule="evenodd" d="M43.5872 74.6211C43.9859 75.7507 45.4248 74.3858 44.3235 74.0035C43.8769 73.8488 43.536 74.1069 43.5872 74.6211Z" fill="#5E2F7E"></path><path fill-rule="evenodd" clip-rule="evenodd" d="M70.8331 19.325C70.8375 19.0025 70.8876 18.6845 70.978 18.3969C71.1991 17.7009 71.6839 17.0909 72.4583 16.6628C74.4898 15.5397 75.8405 17.1573 76.1368 16.8436C76.5246 16.4308 74.5247 15.921 74.3123 15.897C73.0749 15.7511 72.1435 16.1966 71.4279 16.9917C70.893 17.5854 70.4769 18.41 70.4377 19.2346C70.3876 20.3064 70.9061 21.3913 71.7329 22.034C72.4932 22.6244 73.4594 22.8727 74.5345 22.7627C75.8427 22.6298 76.8241 21.6092 77.2533 20.4121C77.542 19.6093 77.4679 18.9633 77.3143 18.4187C77.2282 18.1159 77.1444 17.8163 77.0398 17.6322C76.9254 17.434 76.6226 17.4416 76.7032 17.8359C76.7631 18.13 76.8764 18.5004 76.9015 18.6213C77.0975 19.5461 77.0463 20.1692 76.6183 21.0188C76.5398 21.156 76.4679 21.2552 76.3743 21.3815C76.0823 21.7529 75.7806 21.9632 75.3623 22.1723C74.785 22.4403 74.1434 22.5013 73.5236 22.3967C71.8821 22.1189 70.8059 21.0242 70.8331 19.325Z" fill="#5E2F7E"></path><path fill-rule="evenodd" clip-rule="evenodd" d="M74.5878 19.1473L80.0059 13.7292C80.0614 13.6748 80.0614 13.5855 80.0059 13.531C79.9514 13.4765 79.8632 13.4765 79.8087 13.531C77.7315 15.6082 75.6542 17.6855 73.577 19.7616C73.5367 19.8019 73.5737 19.8368 73.601 19.8215L74.5889 19.1473L74.5878 19.1473Z" fill="#5E2F7E"></path><path fill-rule="evenodd" clip-rule="evenodd" d="M72.1751 19.385C72.4376 20.1289 73.3853 19.2303 72.6598 18.9787C72.3657 18.8763 72.1413 19.0462 72.1751 19.385Z" fill="#5E2F7E"></path><path fill-rule="evenodd" clip-rule="evenodd" d="M15.6812 30.049C15.6866 29.7255 15.7356 29.4085 15.8261 29.121C16.0461 28.4249 16.5319 27.8149 17.3075 27.3868C19.339 26.2649 20.6907 27.8825 20.9859 27.5677C21.3737 27.1559 19.3727 26.6461 19.1614 26.6211C17.9229 26.4751 16.9927 26.9206 16.277 27.7158C15.7422 28.3095 15.325 29.1329 15.2869 29.9564C15.2357 31.0294 15.7553 32.1143 16.5809 32.7559C17.3412 33.3473 18.3074 33.5957 19.3836 33.4868C20.6918 33.3539 21.6733 32.3321 22.1024 31.1361C22.39 30.3333 22.317 29.6863 22.1634 29.1427C22.0774 28.841 21.9935 28.5426 21.8878 28.3574C21.7735 28.1591 21.4718 28.1668 21.5513 28.56C21.6112 28.8541 21.7245 29.2255 21.7495 29.3453C21.9456 30.2712 21.8944 30.8943 21.4663 31.7428C21.389 31.8801 21.316 31.9792 21.2223 32.1045C20.9304 32.4759 20.6287 32.6872 20.2115 32.8953C19.6331 33.1622 18.9915 33.2242 18.3706 33.1186C16.7302 32.8408 15.654 31.7472 15.6801 30.0479" fill="#5E2F7E"></path><path fill-rule="evenodd" clip-rule="evenodd" d="M19.4359 29.8715L24.8539 24.4535C24.9095 24.399 24.9095 24.3097 24.8539 24.2552C24.7994 24.2008 24.7101 24.2008 24.6557 24.2552C22.5795 26.3325 20.5023 28.4097 18.425 30.4869C18.3847 30.5262 18.4207 30.5621 18.4479 30.5458L19.4359 29.8715Z" fill="#5E2F7E"></path><path fill-rule="evenodd" clip-rule="evenodd" d="M17.0232 30.1086C17.2857 30.8526 18.2334 29.9539 17.509 29.7023C17.2149 29.5999 16.9894 29.7709 17.0232 30.1086Z" fill="#5E2F7E"></path><path fill-rule="evenodd" clip-rule="evenodd" d="M46.6263 62.5275C46.6317 62.204 46.6808 61.887 46.7723 61.5995C46.9923 60.9034 47.4781 60.2934 48.2526 59.8654C50.2841 58.7434 51.6358 60.3599 51.931 60.0462C52.3188 59.6344 50.3178 59.1236 50.1065 59.0996C48.8691 58.9525 47.9378 59.3991 47.2221 60.1943C46.6873 60.788 46.2701 61.6125 46.232 62.436C46.1819 63.5079 46.7004 64.5928 47.5271 65.2355C48.2874 65.8258 49.2525 66.0742 50.3287 65.9653C51.6369 65.8324 52.6184 64.8117 53.0475 63.6146C53.3351 62.8118 53.261 62.1648 53.1085 61.6213C53.0225 61.3184 52.9386 61.02 52.833 60.8348C52.7186 60.6366 52.4169 60.6442 52.4975 61.0385C52.5574 61.3326 52.6696 61.703 52.6957 61.8239C52.8907 62.7497 52.8395 63.3728 52.4125 64.2213C52.3341 64.3586 52.2622 64.4577 52.1696 64.5841C51.8777 64.9555 51.5748 65.1668 51.1577 65.3749C50.5803 65.6429 49.9377 65.7038 49.3179 65.5993C47.6774 65.3215 46.6002 64.2279 46.6274 62.5275" fill="#5E2F7E"></path><path fill-rule="evenodd" clip-rule="evenodd" d="M50.3821 62.3499L55.8001 56.9318C55.8546 56.8763 55.8546 56.788 55.8001 56.7336C55.7456 56.678 55.6574 56.678 55.6018 56.7336C53.5246 58.8097 51.4474 60.887 49.3712 62.9642C49.3309 63.0034 49.3679 63.0383 49.3941 63.0241L50.3821 62.3499Z" fill="#5E2F7E"></path><path fill-rule="evenodd" clip-rule="evenodd" d="M47.9693 62.5871C48.2318 63.3311 49.1795 62.4324 48.454 62.1808C48.1599 62.0784 47.9344 62.2483 47.9693 62.5871Z" fill="#5E2F7E"></path><path fill-rule="evenodd" clip-rule="evenodd" d="M64.6439 5.65946C64.6439 4.19112 63.4533 3.00054 61.985 3.00054C60.5166 3.00054 59.3261 4.19112 59.3261 5.65946C59.3261 7.1278 60.5166 8.31836 61.985 8.31836C63.4533 8.31836 64.6439 7.1278 64.6439 5.65946Z" fill="#FDC259"></path><path fill-rule="evenodd" clip-rule="evenodd" d="M63.1244 46.6781C63.1244 45.2098 61.9338 44.0192 60.4665 44.0192C58.9993 44.0192 57.8076 45.2098 57.8076 46.6781C57.8076 48.1465 58.9982 49.3359 60.4665 49.3359C61.9349 49.3359 63.1244 48.1465 63.1244 46.6781Z" fill="#FDC259"></path><path fill-rule="evenodd" clip-rule="evenodd" d="M86.1657 39.0813C86.1657 37.613 84.9751 36.4235 83.5068 36.4235C82.0385 36.4235 80.849 37.613 80.849 39.0813C80.849 40.5497 82.0396 41.7402 83.5068 41.7402C84.974 41.7402 86.1657 40.5497 86.1657 39.0813Z" fill="#FDC259"></path><path fill-rule="evenodd" clip-rule="evenodd" d="M37.2977 20.8519C37.2977 19.3836 36.1072 18.193 34.6388 18.193C33.1705 18.193 31.9799 19.3836 31.9799 20.8519C31.9799 22.3203 33.1705 23.5098 34.6388 23.5098C36.1072 23.5098 37.2977 22.3192 37.2977 20.8519Z" fill="#B47AA5"></path><path fill-rule="evenodd" clip-rule="evenodd" d="M43.3748 64.4016C43.3748 62.9333 42.1842 61.7438 40.7158 61.7438C39.2475 61.7438 38.058 62.9344 38.058 64.4016C38.058 65.8689 39.2486 67.0605 40.7158 67.0605C42.1831 67.0605 43.3748 65.87 43.3748 64.4016Z" fill="#FDC259"></path><path fill-rule="evenodd" clip-rule="evenodd" d="M63.6309 72.2504C63.6309 71.4824 63.0067 70.8583 62.2377 70.8583C61.4687 70.8583 60.8456 71.4824 60.8456 72.2504C60.8456 73.0183 61.4687 73.6436 62.2377 73.6436C63.0067 73.6436 63.6309 73.0194 63.6309 72.2504Z" fill="#FDC259"></path><path fill-rule="evenodd" clip-rule="evenodd" d="M82.3674 52.7554C82.3674 51.9864 81.7433 51.3622 80.9743 51.3622C80.2052 51.3622 79.5822 51.9853 79.5822 52.7554C79.5822 53.5255 80.2052 54.1475 80.9743 54.1475C81.7433 54.1475 82.3674 53.5244 82.3674 52.7554Z" fill="#FDC259"></path><path fill-rule="evenodd" clip-rule="evenodd" d="M36.3958 4.89589C36.3958 4.12796 35.7717 3.5038 35.0026 3.5038C34.2336 3.5038 33.6106 4.12796 33.6106 4.89589C33.6106 5.66383 34.2336 6.28906 35.0026 6.28906C35.7717 6.28906 36.3958 5.66601 36.3958 4.89589Z" fill="#FDC259"></path><path fill-rule="evenodd" clip-rule="evenodd" d="M76.2316 9.96333C76.2316 9.48078 75.8405 9.08973 75.358 9.08973C74.8754 9.08973 74.4844 9.48078 74.4844 9.96333C74.4844 10.4459 74.8754 10.8369 75.358 10.8369C75.8405 10.8369 76.2316 10.4459 76.2316 9.96333Z" fill="#FDC259"></path><path fill-rule="evenodd" clip-rule="evenodd" d="M81.8217 27.6069C81.8217 27.1243 81.4306 26.7333 80.9481 26.7333C80.4655 26.7333 80.0745 27.1243 80.0745 27.6069C80.0745 28.0894 80.4655 28.4805 80.9481 28.4805C81.4306 28.4805 81.8217 28.0894 81.8217 27.6069Z" fill="#FDC259"></path><path fill-rule="evenodd" clip-rule="evenodd" d="M57.19 30.4017C57.19 29.9191 56.799 29.5281 56.3153 29.5281C55.8317 29.5281 55.4417 29.9191 55.4417 30.4017C55.4417 30.8842 55.8328 31.2764 56.3153 31.2764C56.7979 31.2764 57.19 30.8853 57.19 30.4017Z" fill="#FDC259"></path><path fill-rule="evenodd" clip-rule="evenodd" d="M20.5121 37.3364C20.5121 36.8538 20.121 36.4628 19.6385 36.4628C19.1559 36.4628 18.7649 36.8538 18.7649 37.3364C18.7649 37.8189 19.1559 38.21 19.6385 38.21C20.121 38.21 20.5121 37.8189 20.5121 37.3364Z" fill="#FDC259"></path><path fill-rule="evenodd" clip-rule="evenodd" d="M34.4569 61.8793C34.4569 61.3968 34.0659 61.0047 33.5833 61.0047C33.1008 61.0047 32.7097 61.3957 32.7097 61.8793C32.7097 62.363 33.1008 62.7529 33.5833 62.7529C34.0659 62.7529 34.4569 62.3619 34.4569 61.8793Z" fill="#FDC259"></path><path fill-rule="evenodd" clip-rule="evenodd" d="M56.7684 71.6409C56.7684 71.1584 56.3774 70.7673 55.8948 70.7673C55.4123 70.7673 55.0202 71.1584 55.0202 71.6409C55.0202 72.1235 55.4112 72.5156 55.8948 72.5156C56.3785 72.5156 56.7684 72.1246 56.7684 71.6409Z" fill="#FDC259"></path><path fill-rule="evenodd" clip-rule="evenodd" d="M38.0831 74.4301C38.0831 73.9476 37.6921 73.5565 37.2095 73.5565C36.727 73.5565 36.3359 73.9476 36.3359 74.4301C36.3359 74.9127 36.727 75.3037 37.2095 75.3037C37.6921 75.3037 38.0831 74.9127 38.0831 74.4301Z" fill="#FDC259"></path><path fill-rule="evenodd" clip-rule="evenodd" d="M86.9696 64.011C86.9696 62.5427 85.779 61.3532 84.3107 61.3532C82.8424 61.3532 81.6529 62.5438 81.6529 64.011C81.6529 65.4783 82.8434 66.6699 84.3107 66.6699C85.7779 66.6699 86.9696 65.4804 86.9696 64.011Z" fill="#B47AA5"></path><path fill-rule="evenodd" clip-rule="evenodd" d="M37.3685 68.477C37.3685 66.0447 35.3969 64.0731 32.9646 64.0731C30.5323 64.0731 28.5618 66.0436 28.5618 68.4771C28.5618 70.9105 30.5333 72.8799 32.9646 72.8799C35.3959 72.8799 37.3685 70.9083 37.3685 68.477Z" fill="#B47AA5"></path><path fill-rule="evenodd" clip-rule="evenodd" d="M19.1363 42.059C19.1363 39.6277 17.1647 37.6561 14.7324 37.6561C12.3 37.6561 10.3295 39.6277 10.3295 42.059C10.3295 44.4902 12.3 46.4629 14.7324 46.4629C17.1647 46.4629 19.1363 44.4913 19.1363 42.059Z" fill="#B47AA5"></path></g></g></svg>