<svg width="19" height="19" viewBox="0 0 19 19" fill="none" xmlns="http://www.w3.org/2000/svg">
<path d="M12.6667 1.58333H12.5313C12.367 1.1206 12.0635 0.720029 11.6625 0.436559C11.2616 0.153089 10.7827 0.000599092 10.2917 0L8.70833 0C8.21728 0.000599092 7.73844 0.153089 7.33747 0.436559C6.9365 0.720029 6.63304 1.1206 6.46871 1.58333H6.33333C5.2839 1.58459 4.27782 2.00203 3.53576 2.74409C2.7937 3.48615 2.37626 4.49224 2.375 5.54167V15.0417C2.37626 16.0911 2.7937 17.0972 3.53576 17.8392C4.27782 18.5813 5.2839 18.9987 6.33333 19H12.6667C13.7161 18.9987 14.7222 18.5813 15.4642 17.8392C16.2063 17.0972 16.6237 16.0911 16.625 15.0417V5.54167C16.6237 4.49224 16.2063 3.48615 15.4642 2.74409C14.7222 2.00203 13.7161 1.58459 12.6667 1.58333ZM7.125 5.54167H8.70833V3.95833C8.70833 3.74837 8.79174 3.54701 8.94021 3.39854C9.08867 3.25007 9.29004 3.16667 9.5 3.16667C9.70996 3.16667 9.91133 3.25007 10.0598 3.39854C10.2083 3.54701 10.2917 3.74837 10.2917 3.95833V5.54167H11.875C12.085 5.54167 12.2863 5.62507 12.4348 5.77354C12.5833 5.92201 12.6667 6.12337 12.6667 6.33333C12.6667 6.5433 12.5833 6.74466 12.4348 6.89313C12.2863 7.04159 12.085 7.125 11.875 7.125H10.2917V8.70833C10.2917 8.9183 10.2083 9.11966 10.0598 9.26813C9.91133 9.41659 9.70996 9.5 9.5 9.5C9.29004 9.5 9.08867 9.41659 8.94021 9.26813C8.79174 9.11966 8.70833 8.9183 8.70833 8.70833V7.125H7.125C6.91504 7.125 6.71367 7.04159 6.56521 6.89313C6.41674 6.74466 6.33333 6.5433 6.33333 6.33333C6.33333 6.12337 6.41674 5.92201 6.56521 5.77354C6.71367 5.62507 6.91504 5.54167 7.125 5.54167ZM9.5 15.8333H6.33333C6.12337 15.8333 5.92201 15.7499 5.77354 15.6015C5.62507 15.453 5.54167 15.2516 5.54167 15.0417C5.54167 14.8317 5.62507 14.6303 5.77354 14.4819C5.92201 14.3334 6.12337 14.25 6.33333 14.25H9.5C9.70996 14.25 9.91133 14.3334 10.0598 14.4819C10.2083 14.6303 10.2917 14.8317 10.2917 15.0417C10.2917 15.2516 10.2083 15.453 10.0598 15.6015C9.91133 15.7499 9.70996 15.8333 9.5 15.8333ZM12.6667 12.6667H6.33333C6.12337 12.6667 5.92201 12.5833 5.77354 12.4348C5.62507 12.2863 5.54167 12.085 5.54167 11.875C5.54167 11.665 5.62507 11.4637 5.77354 11.3152C5.92201 11.1667 6.12337 11.0833 6.33333 11.0833H12.6667C12.8766 11.0833 13.078 11.1667 13.2265 11.3152C13.3749 11.4637 13.4583 11.665 13.4583 11.875C13.4583 12.085 13.3749 12.2863 13.2265 12.4348C13.078 12.5833 12.8766 12.6667 12.6667 12.6667Z" fill="#EE3F65"/>
</svg>
