<svg width="18" height="18" viewBox="0 0 18 18" fill="none" xmlns="http://www.w3.org/2000/svg">
<g clip-path="url(#clip0_68_1085)">
<path d="M11.466 3.15201C11.175 2.85726 11.178 2.38251 11.4727 2.09151L13.1257 0.458758C13.7385 -0.151742 14.7368 -0.152492 15.3533 0.461758L17.0235 2.08776C17.3205 2.37651 17.3265 2.85126 17.0385 3.14826C16.8915 3.29901 16.6965 3.37476 16.5007 3.37476C16.3118 3.37476 16.1235 3.30426 15.978 3.16176L15.0007 2.21076V6.74976C15.0007 7.16376 14.6655 7.49976 14.2507 7.49976C13.836 7.49976 13.5007 7.16376 13.5007 6.74976V2.19726L12.528 3.15801C12.2325 3.44901 11.7592 3.44676 11.4667 3.15126L11.466 3.15201ZM18 8.24976V15.7498C18 16.9903 16.9905 17.9998 15.75 17.9998H3.75C1.68225 17.9998 0 16.3175 0 14.2498V6.74976C0 6.08451 0.174 5.45901 0.47925 4.91676C0.49425 4.88676 0.51075 4.85751 0.5295 4.82976C1.185 3.73476 2.3835 2.99976 3.75 2.99976H9C9.41475 2.99976 9.75 3.33576 9.75 3.74976C9.75 4.16376 9.41475 4.49976 9 4.49976H3.75C3.08475 4.49976 2.4855 4.79001 2.07375 5.25051C2.496 5.72076 3.10575 5.99976 3.75 5.99976H12V6.74976C12 7.99026 13.0095 8.99976 14.25 8.99976C15.4905 8.99976 16.5 7.99026 16.5 6.74976V6.13776C17.3708 6.44826 18 7.27326 18 8.24976ZM15 11.9998C15 11.3788 14.496 10.8748 13.875 10.8748C13.254 10.8748 12.75 11.3788 12.75 11.9998C12.75 12.6208 13.254 13.1248 13.875 13.1248C14.496 13.1248 15 12.6208 15 11.9998Z" fill="white"/>
</g>
<defs>
<clipPath id="clip0_68_1085">
<rect width="18" height="18" fill="white"/>
</clipPath>
</defs>
</svg>
